SplineFontDB: 3.0
FontName: Asap-BoldItalic
FullName: Asap BoldItalic
FamilyName: Asap
Weight: Bold
Copyright: Copyright (c) 2011-2014, Omnibus-Type (www.omnibus-type.com omnibus.type@gmail.com) with Reserved Font Name 'Asap'
Version: 001.006
ItalicAngle: -6
UnderlinePosition: -102.4
UnderlineWidth: 102.4
Ascent: 1638
Descent: 410
sfntRevision: 0x00010189
LayerCount: 2
Layer: 0 1 "Back"  1
Layer: 1 1 "Fore"  0
XUID: [1021 191 1600663927 12856651]
FSType: 8
OS2Version: 3
OS2_WeightWidthSlopeOnly: 0
OS2_UseTypoMetrics: 1
CreationTime: 1410960463
ModificationTime: 1410988462
PfmFamily: 17
TTFWeight: 700
TTFWidth: 5
LineGap: 0
VLineGap: 0
Panose: 2 15 8 4 3 1 2 13 2 3
OS2TypoAscent: 2079
OS2TypoAOffset: 0
OS2TypoDescent: -492
OS2TypoDOffset: 0
OS2TypoLinegap: 0
OS2WinAscent: 2079
OS2WinAOffset: 0
OS2WinDescent: 492
OS2WinDOffset: 0
HheadAscent: 2079
HheadAOffset: 0
HheadDescent: -492
HheadDOffset: 0
OS2SubXSize: 1331
OS2SubYSize: 1229
OS2SubXOff: -16
OS2SubYOff: 154
OS2SupXSize: 1331
OS2SupYSize: 1229
OS2SupXOff: 76
OS2SupYOff: 717
OS2StrikeYSize: 102
OS2StrikeYPos: 641
OS2Vendor: 'OMNI'
OS2CodePages: 20000193.00000000
OS2UnicodeRanges: 20000007.00000000.00000000.00000000
Lookup: 1 0 0 "'aalt' Access All Alternates lookup 0"  {"'aalt' Access All Alternates lookup 0 subtable"  } ['aalt' ('DFLT' <'dflt' > 'grek' <'dflt' > 'latn' <'AZE ' 'CAT ' 'CRT ' 'ESP ' 'KAZ ' 'MOL ' 'NLD ' 'PLK ' 'ROM ' 'TAT ' 'TRK ' 'dflt' > ) ]
Lookup: 6 0 0 "'locl' Localized Forms in Latin lookup 1"  {"'locl' Localized Forms in Latin lookup 1 contextual 0"  "'locl' Localized Forms in Latin lookup 1 contextual 1"  } ['locl' ('latn' <'AZE ' 'CAT ' 'CRT ' 'ESP ' 'KAZ ' 'MOL ' 'PLK ' 'ROM ' 'TAT ' 'TRK ' 'dflt' > ) ]
Lookup: 1 0 0 "'locl' Localized Forms in Latin lookup 2"  {"'locl' Localized Forms in Latin lookup 2 subtable"  } ['locl' ('latn' <'TRK ' > ) ]
Lookup: 1 0 0 "'locl' Localized Forms in Latin lookup 3"  {"'locl' Localized Forms in Latin lookup 3 subtable"  } ['locl' ('latn' <'AZE ' > ) ]

StartChar: .notdef
Encoding: 65536 -1 0
Width: 1054
Flags: MW
HStem: 0 102<133 829 133 983> 1331 102<262 958 262 262>
VStem: -41 1176
LayerCount: 2
Fore
SplineSet
111 1434 m 1,0,-1
 1135 1434 l 1,1,-1
 983 0 l 1,2,-1
 -41 0 l 1,3,-1
 111 1434 l 1,0,-1
958 1331 m 1,4,-1
 262 1331 l 1,5,-1
 557 809 l 1,6,-1
 958 1331 l 1,4,-1
80 195 m 1,7,-1
 485 717 l 1,8,-1
 190 1239 l 1,9,-1
 80 195 l 1,7,-1
899 195 m 1,10,-1
 1010 1239 l 1,11,-1
 608 717 l 1,12,-1
 899 195 l 1,10,-1
829 102 m 1,13,-1
 535 625 l 1,14,-1
 133 102 l 1,15,-1
 829 102 l 1,13,-1
EndSplineSet
EndChar

StartChar: A
Encoding: 65 65 1
Width: 1255
GlyphClass: 2
Flags: MW
HStem: 289 270<453 768 453 831 336 768> 1397 41G<653 760 760 790>
VStem: -76 1278<29 43>
AnchorPoint: "Anchor-1" 707 1434 basechar 0
AnchorPoint: "Anchor-0" 616 0 basechar 0
LayerCount: 2
Fore
SplineSet
653 1438 m 2,0,-1
 760 1438 l 2,1,2
 862 1438 862 1438 872 1395 c 2,3,-1
 1196 78 l 2,4,5
 1202 60 1202 60 1202 43 c 0,6,7
 1202 -4 1202 -4 1092 -4 c 2,8,-1
 1001 -4 l 2,9,10
 901 -4 901 -4 891 39 c 2,11,-1
 831 289 l 1,12,-1
 336 289 l 1,13,-1
 223 39 l 2,14,15
 203 -4 203 -4 125 -4 c 2,16,-1
 43 -4 l 2,17,18
 -76 -4 -76 -4 -76 37 c 0,19,20
 -76 53 -76 53 -63 78 c 2,21,-1
 532 1395 l 2,22,23
 551 1438 551 1438 653 1438 c 2,0,-1
670 1055 m 1,24,-1
 662 1055 l 1,25,26
 637 971 637 971 616 924 c 2,27,-1
 453 559 l 1,28,-1
 768 559 l 1,29,-1
 686 924 l 2,30,31
 674 977 674 977 670 1055 c 1,24,-1
EndSplineSet
Substitution2: "Single Substitution lookup 20 subtable" ordfeminine
Substitution2: "'aalt' Access All Alternates lookup 0 subtable" ordfeminine
Position2: "'cpsp' Capital Spacing lookup 0 subtable" dx=10 dy=0 dh=20 dv=0
EndChar

StartChar: Aacute
Encoding: 193 193 2
Width: 1255
GlyphClass: 2
Flags: MW
HStem: 289 270<453 768 453 831 336 768> 1397 41G<653 760 760 790> 1540 326<627 967>
VStem: -76 1278<29 43>
AnchorPoint: "Anchor-1" 780 1796 basechar 0
AnchorPoint: "Anchor-0" 616 0 basechar 0
LayerCount: 2
Fore
SplineSet
686 1719 m 128,-1,1
 717 1763 717 1763 750.5 1814.5 c 128,-1,2
 784 1866 784 1866 915.5 1866 c 128,-1,3
 1047 1866 1047 1866 1047 1839 c 0,4,5
 1047 1825 1047 1825 1037.5 1813.5 c 128,-1,6
 1028 1802 1028 1802 954.5 1731.5 c 128,-1,7
 881 1661 881 1661 819.5 1600.5 c 128,-1,8
 758 1540 758 1540 649 1540 c 0,9,10
 590 1540 590 1540 590 1567 c 0,11,12
 590 1580 590 1580 607.5 1605 c 128,-1,13
 625 1630 625 1630 640 1652.5 c 128,-1,0
 655 1675 655 1675 686 1719 c 128,-1,1
653 1438 m 2,14,-1
 760 1438 l 2,15,16
 862 1438 862 1438 872 1395 c 2,17,-1
 1196 78 l 2,18,19
 1202 60 1202 60 1202 43 c 0,20,21
 1202 -4 1202 -4 1092 -4 c 2,22,-1
 1001 -4 l 2,23,24
 901 -4 901 -4 891 39 c 2,25,-1
 831 289 l 1,26,-1
 336 289 l 1,27,-1
 223 39 l 2,28,29
 203 -4 203 -4 125 -4 c 2,30,-1
 43 -4 l 2,31,32
 -76 -4 -76 -4 -76 37 c 0,33,34
 -76 53 -76 53 -63 78 c 2,35,-1
 532 1395 l 2,36,37
 551 1438 551 1438 653 1438 c 2,14,-1
670 1055 m 1,38,-1
 662 1055 l 1,39,40
 637 971 637 971 616 924 c 2,41,-1
 453 559 l 1,42,-1
 768 559 l 1,43,-1
 686 924 l 2,44,45
 674 977 674 977 670 1055 c 1,38,-1
EndSplineSet
Position2: "'cpsp' Capital Spacing lookup 0 subtable" dx=10 dy=0 dh=20 dv=0
EndChar

StartChar: Abreve
Encoding: 258 258 3
Width: 1255
GlyphClass: 2
Flags: MW
HStem: 289 270<453 768 453 831 336 768> 1397 41G<653 760 760 790> 1540 186<681 793 681 801>
VStem: -76 1278<29 43>
AnchorPoint: "Anchor-1" 745 1767 basechar 0
AnchorPoint: "Anchor-0" 616 0 basechar 0
LayerCount: 2
Fore
SplineSet
973 1827 m 0,0,1
 1039 1827 1039 1827 1038 1778 c 0,2,3
 1038 1686 1038 1686 941 1613 c 128,-1,4
 844 1540 844 1540 717 1540 c 128,-1,5
 590 1540 590 1540 512 1602.5 c 128,-1,6
 434 1665 434 1665 434 1746 c 128,-1,7
 434 1827 434 1827 514 1827 c 0,8,9
 549 1827 549 1827 578 1790 c 0,10,11
 627 1727 627 1727 733 1726 c 0,12,13
 804 1726 804 1726 832 1741.5 c 128,-1,14
 860 1757 860 1757 868.5 1761 c 128,-1,15
 877 1765 877 1765 895 1783 c 2,16,-1
 913 1800 l 2,17,18
 940 1827 940 1827 973 1827 c 0,0,1
653 1438 m 2,19,-1
 760 1438 l 2,20,21
 862 1438 862 1438 872 1395 c 2,22,-1
 1196 78 l 2,23,24
 1202 60 1202 60 1202 43 c 0,25,26
 1202 -4 1202 -4 1092 -4 c 2,27,-1
 1001 -4 l 2,28,29
 901 -4 901 -4 891 39 c 2,30,-1
 831 289 l 1,31,-1
 336 289 l 1,32,-1
 223 39 l 2,33,34
 203 -4 203 -4 125 -4 c 2,35,-1
 43 -4 l 2,36,37
 -76 -4 -76 -4 -76 37 c 0,38,39
 -76 53 -76 53 -63 78 c 2,40,-1
 532 1395 l 2,41,42
 551 1438 551 1438 653 1438 c 2,19,-1
670 1055 m 1,43,-1
 662 1055 l 1,44,45
 637 971 637 971 616 924 c 2,46,-1
 453 559 l 1,47,-1
 768 559 l 1,48,-1
 686 924 l 2,49,50
 674 977 674 977 670 1055 c 1,43,-1
EndSplineSet
Position2: "'cpsp' Capital Spacing lookup 0 subtable" dx=10 dy=0 dh=20 dv=0
EndChar

StartChar: Abreveacute
Encoding: 7854 7854 4
Width: 1255
GlyphClass: 2
Flags: MW
HStem: 289 270<453 768 453 831 336 768> 1397 41G<653 760 760 790> 1538 170<685 797 685 805>
VStem: -76 1278<29 43>
AnchorPoint: "Anchor-1" 748 1786 basechar 0
AnchorPoint: "Anchor-0" 616 0 basechar 0
LayerCount: 2
Fore
SplineSet
909 2060 m 0,0,1
 987 2060 987 2060 987 2013 c 0,2,3
 987 1980 987 1980 811 1806 c 0,4,5
 776 1775 776 1775 692 1776 c 0,6,7
 653 1776 653 1776 653 1802 c 0,8,9
 653 1814 653 1814 750 2005 c 0,10,11
 778 2060 778 2060 909 2060 c 0,0,1
977 1808 m 0,12,13
 1043 1808 1043 1808 1042 1759 c 0,14,15
 1042 1675 1042 1675 944 1606.5 c 128,-1,16
 846 1538 846 1538 720 1538 c 128,-1,17
 594 1538 594 1538 516 1597.5 c 128,-1,18
 438 1657 438 1657 438 1732.5 c 128,-1,19
 438 1808 438 1808 518 1808 c 0,20,21
 553 1808 553 1808 582 1772 c 0,22,23
 629 1709 629 1709 737 1708 c 0,24,25
 839 1708 839 1708 882 1744 c 0,26,27
 895 1755 895 1755 918 1782 c 0,28,29
 944 1808 944 1808 977 1808 c 0,12,13
653 1438 m 2,30,-1
 760 1438 l 2,31,32
 862 1438 862 1438 872 1395 c 2,33,-1
 1196 78 l 2,34,35
 1202 60 1202 60 1202 43 c 0,36,37
 1202 -4 1202 -4 1092 -4 c 2,38,-1
 1001 -4 l 2,39,40
 901 -4 901 -4 891 39 c 2,41,-1
 831 289 l 1,42,-1
 336 289 l 1,43,-1
 223 39 l 2,44,45
 203 -4 203 -4 125 -4 c 2,46,-1
 43 -4 l 2,47,48
 -76 -4 -76 -4 -76 37 c 0,49,50
 -76 53 -76 53 -63 78 c 2,51,-1
 532 1395 l 2,52,53
 551 1438 551 1438 653 1438 c 2,30,-1
670 1055 m 1,54,-1
 662 1055 l 1,55,56
 637 971 637 971 616 924 c 2,57,-1
 453 559 l 1,58,-1
 768 559 l 1,59,-1
 686 924 l 2,60,61
 674 977 674 977 670 1055 c 1,54,-1
EndSplineSet
Position2: "'cpsp' Capital Spacing lookup 0 subtable" dx=10 dy=0 dh=20 dv=0
EndChar

StartChar: Abrevedotbelow
Encoding: 7862 7862 5
Width: 1255
GlyphClass: 2
Flags: MW
HStem: -418 254<551 608> 289 270<453 768 453 831 336 768> 1397 41G<653 760 760 790> 1540 186<681 793 681 801>
VStem: -76 1278<29 43> 451 260<-374 -208>
AnchorPoint: "Anchor-1" 635 -168 basechar 0
AnchorPoint: "Anchor-0" 573 -416 basechar 0
LayerCount: 2
Fore
SplineSet
973 1827 m 0,0,1
 1039 1827 1039 1827 1038 1778 c 0,2,3
 1038 1686 1038 1686 941 1613 c 128,-1,4
 844 1540 844 1540 717 1540 c 128,-1,5
 590 1540 590 1540 512 1602.5 c 128,-1,6
 434 1665 434 1665 434 1746 c 128,-1,7
 434 1827 434 1827 514 1827 c 0,8,9
 549 1827 549 1827 578 1790 c 0,10,11
 627 1727 627 1727 733 1726 c 0,12,13
 804 1726 804 1726 832 1741.5 c 128,-1,14
 860 1757 860 1757 868.5 1761 c 128,-1,15
 877 1765 877 1765 895 1783 c 2,16,-1
 913 1800 l 2,17,18
 940 1827 940 1827 973 1827 c 0,0,1
653 1438 m 2,19,-1
 760 1438 l 2,20,21
 862 1438 862 1438 872 1395 c 2,22,-1
 1196 78 l 2,23,24
 1202 60 1202 60 1202 43 c 0,25,26
 1202 -4 1202 -4 1092 -4 c 2,27,-1
 1001 -4 l 2,28,29
 901 -4 901 -4 891 39 c 2,30,-1
 831 289 l 1,31,-1
 336 289 l 1,32,-1
 223 39 l 2,33,34
 203 -4 203 -4 125 -4 c 2,35,-1
 43 -4 l 2,36,37
 -76 -4 -76 -4 -76 37 c 0,38,39
 -76 53 -76 53 -63 78 c 2,40,-1
 532 1395 l 2,41,42
 551 1438 551 1438 653 1438 c 2,19,-1
670 1055 m 1,43,-1
 662 1055 l 1,44,45
 637 971 637 971 616 924 c 2,46,-1
 453 559 l 1,47,-1
 768 559 l 1,48,-1
 686 924 l 2,49,50
 674 977 674 977 670 1055 c 1,43,-1
465 -229 m 2,51,52
 471 -163 471 -163 591 -163.5 c 128,-1,53
 711 -164 711 -164 711 -229 c 1,54,-1
 696 -352 l 1,55,56
 686 -418 686 -418 568.5 -418 c 128,-1,57
 451 -418 451 -418 451 -352 c 1,58,-1
 465 -229 l 2,51,52
EndSplineSet
Position2: "'cpsp' Capital Spacing lookup 0 subtable" dx=10 dy=0 dh=20 dv=0
EndChar

StartChar: Abrevegrave
Encoding: 7856 7856 6
Width: 1255
GlyphClass: 2
Flags: MW
HStem: 289 270<453 768 453 831 336 768> 1397 41G<653 760 760 790> 1538 170<685 797 685 805> 1778 285<578 793>
VStem: -76 1278<29 43>
AnchorPoint: "Anchor-1" 748 1786 basechar 0
AnchorPoint: "Anchor-0" 616 0 basechar 0
LayerCount: 2
Fore
SplineSet
610 2062 m 0,0,1
 760 2062 760 2062 778 2007 c 0,2,3
 835 1821 835 1821 836 1810 c 0,4,5
 836 1777 836 1777 761 1777.5 c 128,-1,6
 686 1778 686 1778 651 1824 c 0,7,8
 510 2011 510 2011 510 2030 c 0,9,10
 510 2062 510 2062 610 2062 c 0,0,1
977 1808 m 0,11,12
 1043 1808 1043 1808 1042 1759 c 0,13,14
 1042 1675 1042 1675 944 1606.5 c 128,-1,15
 846 1538 846 1538 720 1538 c 128,-1,16
 594 1538 594 1538 516 1597.5 c 128,-1,17
 438 1657 438 1657 438 1732.5 c 128,-1,18
 438 1808 438 1808 518 1808 c 0,19,20
 553 1808 553 1808 582 1772 c 0,21,22
 629 1709 629 1709 737 1708 c 0,23,24
 839 1708 839 1708 882 1744 c 0,25,26
 895 1755 895 1755 918 1782 c 0,27,28
 944 1808 944 1808 977 1808 c 0,11,12
653 1438 m 2,29,-1
 760 1438 l 2,30,31
 862 1438 862 1438 872 1395 c 2,32,-1
 1196 78 l 2,33,34
 1202 60 1202 60 1202 43 c 0,35,36
 1202 -4 1202 -4 1092 -4 c 2,37,-1
 1001 -4 l 2,38,39
 901 -4 901 -4 891 39 c 2,40,-1
 831 289 l 1,41,-1
 336 289 l 1,42,-1
 223 39 l 2,43,44
 203 -4 203 -4 125 -4 c 2,45,-1
 43 -4 l 2,46,47
 -76 -4 -76 -4 -76 37 c 0,48,49
 -76 53 -76 53 -63 78 c 2,50,-1
 532 1395 l 2,51,52
 551 1438 551 1438 653 1438 c 2,29,-1
670 1055 m 1,53,-1
 662 1055 l 1,54,55
 637 971 637 971 616 924 c 2,56,-1
 453 559 l 1,57,-1
 768 559 l 1,58,-1
 686 924 l 2,59,60
 674 977 674 977 670 1055 c 1,53,-1
EndSplineSet
Position2: "'cpsp' Capital Spacing lookup 0 subtable" dx=10 dy=0 dh=20 dv=0
EndChar

StartChar: Abrevehookabove
Encoding: 7858 7858 7
Width: 1255
GlyphClass: 2
Flags: MW
HStem: 289 270<453 768 453 831 336 768> 1397 41G<653 760 760 790> 1538 170<685 797 685 805> 1923 143<618 805>
VStem: 776 143<1909 1934>
AnchorPoint: "Anchor-1" 748 1786 basechar 0
AnchorPoint: "Anchor-0" 616 0 basechar 0
LayerCount: 2
Fore
SplineSet
776 1923 m 0,0,1
 776 1958 776 1958 736 1958 c 128,-1,2
 696 1958 696 1958 663.5 1940.5 c 128,-1,3
 631 1923 631 1923 627 1923 c 0,4,5
 615 1923 615 1923 595 1955 c 128,-1,6
 575 1987 575 1987 575 2008.5 c 128,-1,7
 575 2030 575 2030 632.5 2048 c 128,-1,8
 690 2066 690 2066 745 2066 c 0,9,10
 919 2066 919 2066 920 1931 c 0,11,12
 920 1874 920 1874 844 1827 c 128,-1,13
 768 1780 768 1780 748 1780 c 0,14,15
 664 1780 664 1780 664 1823 c 0,16,17
 664 1848 664 1848 707 1864 c 0,18,19
 754 1884 754 1884 765 1896.5 c 128,-1,20
 776 1909 776 1909 776 1923 c 0,0,1
977 1808 m 0,21,22
 1043 1808 1043 1808 1042 1759 c 0,23,24
 1042 1675 1042 1675 944 1606.5 c 128,-1,25
 846 1538 846 1538 720 1538 c 128,-1,26
 594 1538 594 1538 516 1597.5 c 128,-1,27
 438 1657 438 1657 438 1732.5 c 128,-1,28
 438 1808 438 1808 518 1808 c 0,29,30
 553 1808 553 1808 582 1772 c 0,31,32
 629 1709 629 1709 737 1708 c 0,33,34
 839 1708 839 1708 882 1744 c 0,35,36
 895 1755 895 1755 918 1782 c 0,37,38
 944 1808 944 1808 977 1808 c 0,21,22
653 1438 m 2,39,-1
 760 1438 l 2,40,41
 862 1438 862 1438 872 1395 c 2,42,-1
 1196 78 l 2,43,44
 1202 60 1202 60 1202 43 c 0,45,46
 1202 -4 1202 -4 1092 -4 c 2,47,-1
 1001 -4 l 2,48,49
 901 -4 901 -4 891 39 c 2,50,-1
 831 289 l 1,51,-1
 336 289 l 1,52,-1
 223 39 l 2,53,54
 203 -4 203 -4 125 -4 c 2,55,-1
 43 -4 l 2,56,57
 -76 -4 -76 -4 -76 37 c 0,58,59
 -76 53 -76 53 -63 78 c 2,60,-1
 532 1395 l 2,61,62
 551 1438 551 1438 653 1438 c 2,39,-1
670 1055 m 1,63,-1
 662 1055 l 1,64,65
 637 971 637 971 616 924 c 2,66,-1
 453 559 l 1,67,-1
 768 559 l 1,68,-1
 686 924 l 2,69,70
 674 977 674 977 670 1055 c 1,63,-1
EndSplineSet
Position2: "'cpsp' Capital Spacing lookup 0 subtable" dx=10 dy=0 dh=20 dv=0
EndChar

StartChar: Abrevetilde
Encoding: 7860 7860 8
Width: 1255
GlyphClass: 2
Flags: MW
HStem: 289 270<453 768 453 831 336 768> 1397 41G<653 760 760 790> 1538 170<685 797 685 805> 1849 176<871 898> 1874 205
VStem: -76 1278<29 43>
AnchorPoint: "Anchor-1" 748 1786 basechar 0
AnchorPoint: "Anchor-0" 616 0 basechar 0
LayerCount: 2
Fore
SplineSet
659 2079 m 0,0,1
 725 2079 725 2079 787.5 2052 c 128,-1,2
 850 2025 850 2025 896 2025 c 128,-1,3
 942 2025 942 2025 989 2057 c 128,-1,4
 1036 2089 1036 2089 1071 2040 c 0,5,6
 1089 2017 1089 2017 1087 1993.5 c 128,-1,7
 1085 1970 1085 1970 1057 1933 c 0,8,9
 979 1849 979 1849 860 1849 c 0,10,11
 790 1849 790 1849 720.5 1876 c 128,-1,12
 651 1903 651 1903 620.5 1903 c 128,-1,13
 590 1903 590 1903 544 1876 c 128,-1,14
 498 1849 498 1849 465 1902.5 c 128,-1,15
 432 1956 432 1956 469 1995 c 0,16,17
 563 2079 563 2079 659 2079 c 0,0,1
977 1808 m 0,18,19
 1043 1808 1043 1808 1042 1759 c 0,20,21
 1042 1675 1042 1675 944 1606.5 c 128,-1,22
 846 1538 846 1538 720 1538 c 128,-1,23
 594 1538 594 1538 516 1597.5 c 128,-1,24
 438 1657 438 1657 438 1732.5 c 128,-1,25
 438 1808 438 1808 518 1808 c 0,26,27
 553 1808 553 1808 582 1772 c 0,28,29
 629 1709 629 1709 737 1708 c 0,30,31
 839 1708 839 1708 882 1744 c 0,32,33
 895 1755 895 1755 918 1782 c 0,34,35
 944 1808 944 1808 977 1808 c 0,18,19
653 1438 m 2,36,-1
 760 1438 l 2,37,38
 862 1438 862 1438 872 1395 c 2,39,-1
 1196 78 l 2,40,41
 1202 60 1202 60 1202 43 c 0,42,43
 1202 -4 1202 -4 1092 -4 c 2,44,-1
 1001 -4 l 2,45,46
 901 -4 901 -4 891 39 c 2,47,-1
 831 289 l 1,48,-1
 336 289 l 1,49,-1
 223 39 l 2,50,51
 203 -4 203 -4 125 -4 c 2,52,-1
 43 -4 l 2,53,54
 -76 -4 -76 -4 -76 37 c 0,55,56
 -76 53 -76 53 -63 78 c 2,57,-1
 532 1395 l 2,58,59
 551 1438 551 1438 653 1438 c 2,36,-1
670 1055 m 1,60,-1
 662 1055 l 1,61,62
 637 971 637 971 616 924 c 2,63,-1
 453 559 l 1,64,-1
 768 559 l 1,65,-1
 686 924 l 2,66,67
 674 977 674 977 670 1055 c 1,60,-1
EndSplineSet
Position2: "'cpsp' Capital Spacing lookup 0 subtable" dx=10 dy=0 dh=20 dv=0
EndChar

StartChar: Acircumflex
Encoding: 194 194 9
Width: 1255
GlyphClass: 2
Flags: MW
HStem: 289 270<453 768 453 831 336 768> 1397 41G<653 760 760 790> 1534 299<455 750 467 750 727 903 727 948>
VStem: -76 1278<29 43>
AnchorPoint: "Anchor-1" 1106 1585 basechar 0
AnchorPoint: "Anchor-0" 616 0 basechar 0
LayerCount: 2
Fore
SplineSet
727 1833 m 2,0,-1
 750 1833 l 2,1,2
 848 1833 848 1833 870 1794 c 2,3,-1
 981 1585 l 1,4,5
 987 1569 987 1569 987 1561 c 0,6,7
 987 1534 987 1534 948 1534 c 2,8,-1
 903 1534 l 2,9,10
 803 1534 803 1534 772 1583 c 2,11,-1
 721 1665 l 1,12,-1
 657 1585 l 2,13,14
 618 1534 618 1534 516 1534 c 2,15,-1
 467 1534 l 2,16,17
 428 1534 428 1534 428 1554 c 0,18,19
 428 1568 428 1568 442 1585 c 2,20,-1
 598 1794 l 2,21,22
 627 1833 627 1833 727 1833 c 2,0,-1
653 1438 m 2,23,-1
 760 1438 l 2,24,25
 862 1438 862 1438 872 1395 c 2,26,-1
 1196 78 l 2,27,28
 1202 60 1202 60 1202 43 c 0,29,30
 1202 -4 1202 -4 1092 -4 c 2,31,-1
 1001 -4 l 2,32,33
 901 -4 901 -4 891 39 c 2,34,-1
 831 289 l 1,35,-1
 336 289 l 1,36,-1
 223 39 l 2,37,38
 203 -4 203 -4 125 -4 c 2,39,-1
 43 -4 l 2,40,41
 -76 -4 -76 -4 -76 37 c 0,42,43
 -76 53 -76 53 -63 78 c 2,44,-1
 532 1395 l 2,45,46
 551 1438 551 1438 653 1438 c 2,23,-1
670 1055 m 1,47,-1
 662 1055 l 1,48,49
 637 971 637 971 616 924 c 2,50,-1
 453 559 l 1,51,-1
 768 559 l 1,52,-1
 686 924 l 2,53,54
 674 977 674 977 670 1055 c 1,47,-1
EndSplineSet
Position2: "'cpsp' Capital Spacing lookup 0 subtable" dx=10 dy=0 dh=20 dv=0
EndChar

StartChar: Acircumflexacute
Encoding: 7844 7844 10
Width: 1255
GlyphClass: 2
Flags: MW
HStem: 289 270<453 768 453 831 336 768> 1397 41G<653 760 760 790> 1534 299<449 743 461 743 721 866 721 911>
VStem: -76 1323
AnchorPoint: "Anchor-1" 1008 1698 basechar 0
AnchorPoint: "Anchor-0" 616 0 basechar 0
LayerCount: 2
Fore
SplineSet
1169 1972 m 0,0,1
 1247 1972 1247 1972 1247 1925 c 0,2,3
 1247 1892 1247 1892 1071 1718 c 0,4,5
 1036 1687 1036 1687 952 1688 c 0,6,7
 913 1688 913 1688 913 1714 c 0,8,9
 913 1726 913 1726 1010 1917 c 0,10,11
 1038 1972 1038 1972 1169 1972 c 0,0,1
721 1833 m 2,12,-1
 743 1833 l 2,13,14
 825 1833 825 1833 844 1794 c 2,15,-1
 944 1585 l 2,16,17
 950 1569 950 1569 950 1561 c 0,18,19
 950 1534 950 1534 911 1534 c 2,20,-1
 866 1534 l 2,21,22
 745 1534 745 1534 735 1583 c 2,23,-1
 715 1665 l 1,24,-1
 651 1585 l 2,25,26
 612 1534 612 1534 510 1534 c 2,27,-1
 461 1534 l 2,28,29
 422 1534 422 1534 422 1554 c 0,30,31
 422 1568 422 1568 436 1585 c 2,32,-1
 592 1794 l 2,33,34
 621 1833 621 1833 721 1833 c 2,12,-1
653 1438 m 2,35,-1
 760 1438 l 2,36,37
 862 1438 862 1438 872 1395 c 2,38,-1
 1196 78 l 2,39,40
 1202 60 1202 60 1202 43 c 0,41,42
 1202 -4 1202 -4 1092 -4 c 2,43,-1
 1001 -4 l 2,44,45
 901 -4 901 -4 891 39 c 2,46,-1
 831 289 l 1,47,-1
 336 289 l 1,48,-1
 223 39 l 2,49,50
 203 -4 203 -4 125 -4 c 2,51,-1
 43 -4 l 2,52,53
 -76 -4 -76 -4 -76 37 c 0,54,55
 -76 53 -76 53 -63 78 c 2,56,-1
 532 1395 l 2,57,58
 551 1438 551 1438 653 1438 c 2,35,-1
670 1055 m 1,59,-1
 662 1055 l 1,60,61
 637 971 637 971 616 924 c 2,62,-1
 453 559 l 1,63,-1
 768 559 l 1,64,-1
 686 924 l 2,65,66
 674 977 674 977 670 1055 c 1,59,-1
EndSplineSet
Position2: "'cpsp' Capital Spacing lookup 0 subtable" dx=10 dy=0 dh=20 dv=0
EndChar

StartChar: Acircumflexdotbelow
Encoding: 7852 7852 11
Width: 1255
GlyphClass: 2
Flags: MW
HStem: -418 254<551 608> 289 270<453 768 453 831 336 768> 1397 41G<653 760 760 790> 1534 299<455 750 467 750 727 903 727 948>
VStem: -76 1278<29 43> 451 260<-374 -208>
AnchorPoint: "Anchor-1" 635 -168 basechar 0
AnchorPoint: "Anchor-0" 573 -416 basechar 0
LayerCount: 2
Fore
SplineSet
727 1833 m 2,0,-1
 750 1833 l 2,1,2
 848 1833 848 1833 870 1794 c 2,3,-1
 981 1585 l 1,4,5
 987 1569 987 1569 987 1561 c 0,6,7
 987 1534 987 1534 948 1534 c 2,8,-1
 903 1534 l 2,9,10
 803 1534 803 1534 772 1583 c 2,11,-1
 721 1665 l 1,12,-1
 657 1585 l 2,13,14
 618 1534 618 1534 516 1534 c 2,15,-1
 467 1534 l 2,16,17
 428 1534 428 1534 428 1554 c 0,18,19
 428 1568 428 1568 442 1585 c 2,20,-1
 598 1794 l 2,21,22
 627 1833 627 1833 727 1833 c 2,0,-1
653 1438 m 2,23,-1
 760 1438 l 2,24,25
 862 1438 862 1438 872 1395 c 2,26,-1
 1196 78 l 2,27,28
 1202 60 1202 60 1202 43 c 0,29,30
 1202 -4 1202 -4 1092 -4 c 2,31,-1
 1001 -4 l 2,32,33
 901 -4 901 -4 891 39 c 2,34,-1
 831 289 l 1,35,-1
 336 289 l 1,36,-1
 223 39 l 2,37,38
 203 -4 203 -4 125 -4 c 2,39,-1
 43 -4 l 2,40,41
 -76 -4 -76 -4 -76 37 c 0,42,43
 -76 53 -76 53 -63 78 c 2,44,-1
 532 1395 l 2,45,46
 551 1438 551 1438 653 1438 c 2,23,-1
670 1055 m 1,47,-1
 662 1055 l 1,48,49
 637 971 637 971 616 924 c 2,50,-1
 453 559 l 1,51,-1
 768 559 l 1,52,-1
 686 924 l 2,53,54
 674 977 674 977 670 1055 c 1,47,-1
465 -229 m 2,55,56
 471 -163 471 -163 591 -163.5 c 128,-1,57
 711 -164 711 -164 711 -229 c 1,58,-1
 696 -352 l 1,59,60
 686 -418 686 -418 568.5 -418 c 128,-1,61
 451 -418 451 -418 451 -352 c 1,62,-1
 465 -229 l 2,55,56
EndSplineSet
Position2: "'cpsp' Capital Spacing lookup 0 subtable" dx=10 dy=0 dh=20 dv=0
EndChar

StartChar: Acircumflexgrave
Encoding: 7846 7846 12
Width: 1255
GlyphClass: 2
Flags: MW
HStem: 289 270<453 768 453 831 336 768> 1397 41G<653 760 760 790> 1534 299<449 743 461 743 721 866 721 911> 1690 285<838 1053>
VStem: -76 1278<29 43>
AnchorPoint: "Anchor-1" 1008 1698 basechar 0
AnchorPoint: "Anchor-0" 616 0 basechar 0
LayerCount: 2
Fore
SplineSet
870 1974 m 0,0,1
 1020 1974 1020 1974 1038 1919 c 0,2,3
 1095 1733 1095 1733 1096 1722 c 0,4,5
 1096 1689 1096 1689 1021 1689.5 c 128,-1,6
 946 1690 946 1690 911 1736 c 0,7,8
 770 1923 770 1923 770 1942 c 0,9,10
 770 1974 770 1974 870 1974 c 0,0,1
721 1833 m 2,11,-1
 743 1833 l 2,12,13
 825 1833 825 1833 844 1794 c 2,14,-1
 944 1585 l 2,15,16
 950 1569 950 1569 950 1561 c 0,17,18
 950 1534 950 1534 911 1534 c 2,19,-1
 866 1534 l 2,20,21
 745 1534 745 1534 735 1583 c 2,22,-1
 715 1665 l 1,23,-1
 651 1585 l 2,24,25
 612 1534 612 1534 510 1534 c 2,26,-1
 461 1534 l 2,27,28
 422 1534 422 1534 422 1554 c 0,29,30
 422 1568 422 1568 436 1585 c 2,31,-1
 592 1794 l 2,32,33
 621 1833 621 1833 721 1833 c 2,11,-1
653 1438 m 2,34,-1
 760 1438 l 2,35,36
 862 1438 862 1438 872 1395 c 2,37,-1
 1196 78 l 2,38,39
 1202 60 1202 60 1202 43 c 0,40,41
 1202 -4 1202 -4 1092 -4 c 2,42,-1
 1001 -4 l 2,43,44
 901 -4 901 -4 891 39 c 2,45,-1
 831 289 l 1,46,-1
 336 289 l 1,47,-1
 223 39 l 2,48,49
 203 -4 203 -4 125 -4 c 2,50,-1
 43 -4 l 2,51,52
 -76 -4 -76 -4 -76 37 c 0,53,54
 -76 53 -76 53 -63 78 c 2,55,-1
 532 1395 l 2,56,57
 551 1438 551 1438 653 1438 c 2,34,-1
670 1055 m 1,58,-1
 662 1055 l 1,59,60
 637 971 637 971 616 924 c 2,61,-1
 453 559 l 1,62,-1
 768 559 l 1,63,-1
 686 924 l 2,64,65
 674 977 674 977 670 1055 c 1,58,-1
EndSplineSet
Position2: "'cpsp' Capital Spacing lookup 0 subtable" dx=10 dy=0 dh=20 dv=0
EndChar

StartChar: Acircumflexhookabove
Encoding: 7848 7848 13
Width: 1255
GlyphClass: 2
Flags: MW
HStem: 289 270<453 768 453 831 336 768> 1397 41G<653 760 760 790> 1534 299<449 743 461 743 721 866 721 911> 1835 143<879 1065>
VStem: 1036 143<1821 1846>
AnchorPoint: "Anchor-1" 1008 1698 basechar 0
AnchorPoint: "Anchor-0" 616 0 basechar 0
LayerCount: 2
Fore
SplineSet
1036 1835 m 0,0,1
 1036 1870 1036 1870 996 1870 c 128,-1,2
 956 1870 956 1870 923.5 1852.5 c 128,-1,3
 891 1835 891 1835 887 1835 c 0,4,5
 875 1835 875 1835 855.5 1866.5 c 128,-1,6
 836 1898 836 1898 836 1920 c 128,-1,7
 836 1942 836 1942 893 1960 c 128,-1,8
 950 1978 950 1978 1006 1978 c 0,9,10
 1180 1978 1180 1978 1180 1843 c 0,11,12
 1180 1786 1180 1786 1104 1739 c 128,-1,13
 1028 1692 1028 1692 1008 1692 c 0,14,15
 924 1692 924 1692 924 1735 c 0,16,17
 924 1760 924 1760 967 1776 c 0,18,19
 1014 1796 1014 1796 1025 1808.5 c 128,-1,20
 1036 1821 1036 1821 1036 1835 c 0,0,1
721 1833 m 2,21,-1
 743 1833 l 2,22,23
 825 1833 825 1833 844 1794 c 2,24,-1
 944 1585 l 2,25,26
 950 1569 950 1569 950 1561 c 0,27,28
 950 1534 950 1534 911 1534 c 2,29,-1
 866 1534 l 2,30,31
 745 1534 745 1534 735 1583 c 2,32,-1
 715 1665 l 1,33,-1
 651 1585 l 2,34,35
 612 1534 612 1534 510 1534 c 2,36,-1
 461 1534 l 2,37,38
 422 1534 422 1534 422 1554 c 0,39,40
 422 1568 422 1568 436 1585 c 2,41,-1
 592 1794 l 2,42,43
 621 1833 621 1833 721 1833 c 2,21,-1
653 1438 m 2,44,-1
 760 1438 l 2,45,46
 862 1438 862 1438 872 1395 c 2,47,-1
 1196 78 l 2,48,49
 1202 60 1202 60 1202 43 c 0,50,51
 1202 -4 1202 -4 1092 -4 c 2,52,-1
 1001 -4 l 2,53,54
 901 -4 901 -4 891 39 c 2,55,-1
 831 289 l 1,56,-1
 336 289 l 1,57,-1
 223 39 l 2,58,59
 203 -4 203 -4 125 -4 c 2,60,-1
 43 -4 l 2,61,62
 -76 -4 -76 -4 -76 37 c 0,63,64
 -76 53 -76 53 -63 78 c 2,65,-1
 532 1395 l 2,66,67
 551 1438 551 1438 653 1438 c 2,44,-1
670 1055 m 1,68,-1
 662 1055 l 1,69,70
 637 971 637 971 616 924 c 2,71,-1
 453 559 l 1,72,-1
 768 559 l 1,73,-1
 686 924 l 2,74,75
 674 977 674 977 670 1055 c 1,68,-1
EndSplineSet
Position2: "'cpsp' Capital Spacing lookup 0 subtable" dx=10 dy=0 dh=20 dv=0
EndChar

StartChar: Acircumflextilde
Encoding: 7850 7850 14
Width: 1255
GlyphClass: 2
Flags: MW
HStem: 289 270<453 768 453 831 336 768> 1397 41G<653 760 760 790> 1534 250<475 758 735 911 735 956> 1849 176<871 898> 1874 205
VStem: -76 1278<29 43>
AnchorPoint: "Anchor-1" 752 1796 basechar 0
AnchorPoint: "Anchor-0" 616 0 basechar 0
LayerCount: 2
Fore
SplineSet
659 2079 m 0,0,1
 725 2079 725 2079 787.5 2052 c 128,-1,2
 850 2025 850 2025 896 2025 c 128,-1,3
 942 2025 942 2025 989 2057 c 128,-1,4
 1036 2089 1036 2089 1071 2040 c 0,5,6
 1089 2017 1089 2017 1087 1993.5 c 128,-1,7
 1085 1970 1085 1970 1057 1933 c 0,8,9
 979 1849 979 1849 860 1849 c 0,10,11
 790 1849 790 1849 720.5 1876 c 128,-1,12
 651 1903 651 1903 620.5 1903 c 128,-1,13
 590 1903 590 1903 544 1876 c 128,-1,14
 498 1849 498 1849 465 1902.5 c 128,-1,15
 432 1956 432 1956 469 1995 c 0,16,17
 563 2079 563 2079 659 2079 c 0,0,1
735 1784 m 2,18,-1
 758 1784 l 2,19,20
 848 1784 848 1784 879 1745 c 1,21,-1
 989 1585 l 1,22,23
 995 1569 995 1569 995 1561 c 0,24,25
 995 1534 995 1534 956 1534 c 2,26,-1
 911 1534 l 2,27,28
 856 1534 856 1534 780 1583 c 1,29,-1
 729 1636 l 1,30,-1
 666 1585 l 1,31,32
 652 1579 652 1579 630 1567.5 c 128,-1,33
 608 1556 608 1556 596 1550 c 0,34,35
 563 1534 563 1534 524 1534 c 2,36,-1
 475 1534 l 2,37,38
 436 1534 436 1534 436 1554 c 0,39,40
 436 1568 436 1568 451 1585 c 2,41,-1
 606 1745 l 1,42,43
 647 1784 647 1784 735 1784 c 2,18,-1
653 1438 m 2,44,-1
 760 1438 l 2,45,46
 862 1438 862 1438 872 1395 c 2,47,-1
 1196 78 l 2,48,49
 1202 60 1202 60 1202 43 c 0,50,51
 1202 -4 1202 -4 1092 -4 c 2,52,-1
 1001 -4 l 2,53,54
 901 -4 901 -4 891 39 c 2,55,-1
 831 289 l 1,56,-1
 336 289 l 1,57,-1
 223 39 l 2,58,59
 203 -4 203 -4 125 -4 c 2,60,-1
 43 -4 l 2,61,62
 -76 -4 -76 -4 -76 37 c 0,63,64
 -76 53 -76 53 -63 78 c 2,65,-1
 532 1395 l 2,66,67
 551 1438 551 1438 653 1438 c 2,44,-1
670 1055 m 1,68,-1
 662 1055 l 1,69,70
 637 971 637 971 616 924 c 2,71,-1
 453 559 l 1,72,-1
 768 559 l 1,73,-1
 686 924 l 2,74,75
 674 977 674 977 670 1055 c 1,68,-1
EndSplineSet
Position2: "'cpsp' Capital Spacing lookup 0 subtable" dx=10 dy=0 dh=20 dv=0
EndChar

StartChar: Adieresis
Encoding: 196 196 15
Width: 1255
GlyphClass: 2
Flags: MW
HStem: 289 270<453 768 453 831 336 768> 1397 41G<653 760 760 790> 1546 254<520 578 889 946>
VStem: 420 260<1590 1756> 788 260<1590 1756>
AnchorPoint: "Anchor-1" 754 1796 basechar 0
AnchorPoint: "Anchor-0" 616 0 basechar 0
LayerCount: 2
Fore
SplineSet
434 1735 m 2,0,1
 440 1801 440 1801 560 1800.5 c 128,-1,2
 680 1800 680 1800 680 1735 c 1,3,-1
 666 1612 l 1,4,5
 656 1546 656 1546 538 1546 c 128,-1,6
 420 1546 420 1546 420 1612 c 1,7,-1
 434 1735 l 2,0,1
803 1735 m 2,8,9
 809 1801 809 1801 929 1800.5 c 128,-1,10
 1049 1800 1049 1800 1049 1735 c 1,11,-1
 1034 1612 l 1,12,13
 1024 1546 1024 1546 906 1546 c 128,-1,14
 788 1546 788 1546 788 1612 c 1,15,-1
 803 1735 l 2,8,9
653 1438 m 2,16,-1
 760 1438 l 2,17,18
 862 1438 862 1438 872 1395 c 2,19,-1
 1196 78 l 2,20,21
 1202 60 1202 60 1202 43 c 0,22,23
 1202 -4 1202 -4 1092 -4 c 2,24,-1
 1001 -4 l 2,25,26
 901 -4 901 -4 891 39 c 2,27,-1
 831 289 l 1,28,-1
 336 289 l 1,29,-1
 223 39 l 2,30,31
 203 -4 203 -4 125 -4 c 2,32,-1
 43 -4 l 2,33,34
 -76 -4 -76 -4 -76 37 c 0,35,36
 -76 53 -76 53 -63 78 c 2,37,-1
 532 1395 l 2,38,39
 551 1438 551 1438 653 1438 c 2,16,-1
670 1055 m 1,40,-1
 662 1055 l 1,41,42
 637 971 637 971 616 924 c 2,43,-1
 453 559 l 1,44,-1
 768 559 l 1,45,-1
 686 924 l 2,46,47
 674 977 674 977 670 1055 c 1,40,-1
EndSplineSet
Position2: "'cpsp' Capital Spacing lookup 0 subtable" dx=10 dy=0 dh=20 dv=0
EndChar

StartChar: Adotbelow
Encoding: 7840 7840 16
Width: 1255
GlyphClass: 2
Flags: MW
HStem: -418 254<551 608> 289 270<453 768 453 831 336 768> 1397 41G<653 760 760 790>
VStem: -76 1278<29 43> 451 260<-374 -208>
AnchorPoint: "Anchor-1" 635 -168 basechar 0
AnchorPoint: "Anchor-0" 573 -416 basechar 0
LayerCount: 2
Fore
SplineSet
653 1438 m 2,0,-1
 760 1438 l 2,1,2
 862 1438 862 1438 872 1395 c 2,3,-1
 1196 78 l 2,4,5
 1202 60 1202 60 1202 43 c 0,6,7
 1202 -4 1202 -4 1092 -4 c 2,8,-1
 1001 -4 l 2,9,10
 901 -4 901 -4 891 39 c 2,11,-1
 831 289 l 1,12,-1
 336 289 l 1,13,-1
 223 39 l 2,14,15
 203 -4 203 -4 125 -4 c 2,16,-1
 43 -4 l 2,17,18
 -76 -4 -76 -4 -76 37 c 0,19,20
 -76 53 -76 53 -63 78 c 2,21,-1
 532 1395 l 2,22,23
 551 1438 551 1438 653 1438 c 2,0,-1
670 1055 m 1,24,-1
 662 1055 l 1,25,26
 637 971 637 971 616 924 c 2,27,-1
 453 559 l 1,28,-1
 768 559 l 1,29,-1
 686 924 l 2,30,31
 674 977 674 977 670 1055 c 1,24,-1
465 -229 m 2,32,33
 471 -163 471 -163 591 -163.5 c 128,-1,34
 711 -164 711 -164 711 -229 c 1,35,-1
 696 -352 l 1,36,37
 686 -418 686 -418 568.5 -418 c 128,-1,38
 451 -418 451 -418 451 -352 c 1,39,-1
 465 -229 l 2,32,33
EndSplineSet
Position2: "'cpsp' Capital Spacing lookup 0 subtable" dx=10 dy=0 dh=20 dv=0
EndChar

StartChar: Agrave
Encoding: 192 192 17
Width: 1255
GlyphClass: 2
Flags: MW
HStem: 289 270<453 768 453 831 336 768> 1397 41G<653 760 760 790> 1540 326<520 797>
VStem: -76 1278<29 43>
AnchorPoint: "Anchor-1" 743 1796 basechar 0
AnchorPoint: "Anchor-0" 616 0 basechar 0
LayerCount: 2
Fore
SplineSet
436 1833 m 0,0,1
 436 1866 436 1866 570.5 1866 c 128,-1,2
 705 1866 705 1866 731 1810 c 0,3,4
 751 1767 751 1767 771 1726.5 c 128,-1,5
 791 1686 791 1686 802 1663 c 128,-1,6
 813 1640 813 1640 822 1620 c 0,7,8
 839 1581 839 1581 840 1573 c 0,9,10
 840 1540 840 1540 754 1540 c 128,-1,11
 668 1540 668 1540 623 1595.5 c 128,-1,12
 578 1651 578 1651 507 1735 c 128,-1,13
 436 1819 436 1819 436 1833 c 0,0,1
653 1438 m 2,14,-1
 760 1438 l 2,15,16
 862 1438 862 1438 872 1395 c 2,17,-1
 1196 78 l 2,18,19
 1202 60 1202 60 1202 43 c 0,20,21
 1202 -4 1202 -4 1092 -4 c 2,22,-1
 1001 -4 l 2,23,24
 901 -4 901 -4 891 39 c 2,25,-1
 831 289 l 1,26,-1
 336 289 l 1,27,-1
 223 39 l 2,28,29
 203 -4 203 -4 125 -4 c 2,30,-1
 43 -4 l 2,31,32
 -76 -4 -76 -4 -76 37 c 0,33,34
 -76 53 -76 53 -63 78 c 2,35,-1
 532 1395 l 2,36,37
 551 1438 551 1438 653 1438 c 2,14,-1
670 1055 m 1,38,-1
 662 1055 l 1,39,40
 637 971 637 971 616 924 c 2,41,-1
 453 559 l 1,42,-1
 768 559 l 1,43,-1
 686 924 l 2,44,45
 674 977 674 977 670 1055 c 1,38,-1
EndSplineSet
Position2: "'cpsp' Capital Spacing lookup 0 subtable" dx=10 dy=0 dh=20 dv=0
EndChar

StartChar: Ahookabove
Encoding: 7842 7842 18
Width: 1255
GlyphClass: 2
Flags: MW
HStem: 289 270<453 768 453 831 336 768> 1397 41G<653 760 760 790> 1776 125<722 749>
VStem: 795 178<1696 1745>
AnchorPoint: "Anchor-1" 743 1796 basechar 0
AnchorPoint: "Anchor-0" 616 0 basechar 0
LayerCount: 2
Fore
SplineSet
795 1731 m 0,0,1
 795 1776 795 1776 729 1776 c 0,2,3
 702 1776 702 1776 673.5 1763.5 c 128,-1,4
 645 1751 645 1751 639 1751 c 0,5,6
 627 1751 627 1751 607.5 1783 c 128,-1,7
 588 1815 588 1815 588 1836 c 0,8,9
 588 1858 588 1858 646.5 1879.5 c 128,-1,10
 705 1901 705 1901 781 1901 c 0,11,12
 858 1901 858 1901 915.5 1856.5 c 128,-1,13
 973 1812 973 1812 973 1742.5 c 128,-1,14
 973 1673 973 1673 887 1601.5 c 128,-1,15
 801 1530 801 1530 755 1530 c 0,16,17
 709 1530 709 1530 678 1543 c 128,-1,18
 647 1556 647 1556 647 1575 c 0,19,20
 647 1593 647 1593 721 1642.5 c 128,-1,21
 795 1692 795 1692 795 1731 c 0,0,1
653 1438 m 2,22,-1
 760 1438 l 2,23,24
 862 1438 862 1438 872 1395 c 2,25,-1
 1196 78 l 2,26,27
 1202 60 1202 60 1202 43 c 0,28,29
 1202 -4 1202 -4 1092 -4 c 2,30,-1
 1001 -4 l 2,31,32
 901 -4 901 -4 891 39 c 2,33,-1
 831 289 l 1,34,-1
 336 289 l 1,35,-1
 223 39 l 2,36,37
 203 -4 203 -4 125 -4 c 2,38,-1
 43 -4 l 2,39,40
 -76 -4 -76 -4 -76 37 c 0,41,42
 -76 53 -76 53 -63 78 c 2,43,-1
 532 1395 l 2,44,45
 551 1438 551 1438 653 1438 c 2,22,-1
670 1055 m 1,46,-1
 662 1055 l 1,47,48
 637 971 637 971 616 924 c 2,49,-1
 453 559 l 1,50,-1
 768 559 l 1,51,-1
 686 924 l 2,52,53
 674 977 674 977 670 1055 c 1,46,-1
EndSplineSet
Position2: "'cpsp' Capital Spacing lookup 0 subtable" dx=10 dy=0 dh=20 dv=0
EndChar

StartChar: Amacron
Encoding: 256 256 19
Width: 1255
GlyphClass: 2
Flags: MW
HStem: 289 270<453 768 453 831 336 768> 1397 41G<653 760 760 790> 1585 195<489 973 530 950>
VStem: -76 1278<29 43>
AnchorPoint: "Anchor-1" 766 1796 basechar 0
AnchorPoint: "Anchor-0" 616 0 basechar 0
LayerCount: 2
Fore
SplineSet
530 1780 m 2,0,-1
 973 1780 l 2,1,2
 1026 1780 1026 1780 1026 1718 c 0,3,4
 1026 1585 1026 1585 950 1585 c 2,5,-1
 508 1585 l 2,6,7
 455 1585 455 1585 455 1647 c 0,8,9
 454 1780 454 1780 530 1780 c 2,0,-1
653 1438 m 2,10,-1
 760 1438 l 2,11,12
 862 1438 862 1438 872 1395 c 2,13,-1
 1196 78 l 2,14,15
 1202 60 1202 60 1202 43 c 0,16,17
 1202 -4 1202 -4 1092 -4 c 2,18,-1
 1001 -4 l 2,19,20
 901 -4 901 -4 891 39 c 2,21,-1
 831 289 l 1,22,-1
 336 289 l 1,23,-1
 223 39 l 2,24,25
 203 -4 203 -4 125 -4 c 2,26,-1
 43 -4 l 2,27,28
 -76 -4 -76 -4 -76 37 c 0,29,30
 -76 53 -76 53 -63 78 c 2,31,-1
 532 1395 l 2,32,33
 551 1438 551 1438 653 1438 c 2,10,-1
670 1055 m 1,34,-1
 662 1055 l 1,35,36
 637 971 637 971 616 924 c 2,37,-1
 453 559 l 1,38,-1
 768 559 l 1,39,-1
 686 924 l 2,40,41
 674 977 674 977 670 1055 c 1,34,-1
EndSplineSet
Position2: "'cpsp' Capital Spacing lookup 0 subtable" dx=10 dy=0 dh=20 dv=0
EndChar

StartChar: Aogonek
Encoding: 260 260 20
Width: 1255
GlyphClass: 2
Flags: MW
HStem: -375 143<1190 1214> 289 270<453 768 453 831 336 768> 1397 41G<653 760 760 790>
VStem: 952 141<-184 -167>
AnchorPoint: "Anchor-1" 707 1434 basechar 0
AnchorPoint: "Anchor-0" 1040 -416 basechar 0
LayerCount: 2
Fore
SplineSet
1331 -203 m 0,0,1
 1354 -203 1354 -203 1354 -263 c 0,2,3
 1354 -323 1354 -323 1300.5 -349 c 128,-1,4
 1247 -375 1247 -375 1174 -375 c 0,5,6
 1047 -375 1047 -375 999.5 -319.5 c 128,-1,7
 952 -264 952 -264 952 -193 c 0,8,9
 952 -70 952 -70 1018 -4 c 1,10,-1
 1001 -4 l 2,11,12
 901 -4 901 -4 891 39 c 2,13,-1
 831 289 l 1,14,-1
 336 289 l 1,15,-1
 223 39 l 2,16,17
 203 -4 203 -4 125 -4 c 2,18,-1
 43 -4 l 2,19,20
 -76 -4 -76 -4 -76 37 c 0,21,22
 -76 53 -76 53 -63 78 c 2,23,-1
 532 1395 l 2,24,25
 550 1438 550 1438 653 1438 c 2,26,-1
 760 1438 l 2,27,28
 862 1438 862 1438 872 1395 c 2,29,-1
 1196 78 l 2,30,31
 1202 60 1202 60 1202 43 c 0,32,33
 1202 8 1202 8 1130 -2 c 1,34,-1
 1130 -6 l 2,35,36
 1130 -18 1130 -18 1112 -60 c 128,-1,37
 1094 -102 1094 -102 1094 -143 c 0,38,39
 1094 -231 1094 -231 1212 -231 c 0,40,41
 1249 -231 1249 -231 1288 -217 c 128,-1,42
 1327 -203 1327 -203 1331 -203 c 0,0,1
768 559 m 1,43,-1
 686 924 l 2,44,45
 674 977 674 977 670 1055 c 1,46,-1
 662 1055 l 1,47,48
 637 971 637 971 616 924 c 2,49,-1
 453 559 l 1,50,-1
 768 559 l 1,43,-1
EndSplineSet
Position2: "'cpsp' Capital Spacing lookup 0 subtable" dx=10 dy=0 dh=20 dv=0
EndChar

StartChar: Aring
Encoding: 197 197 21
Width: 1255
GlyphClass: 2
Flags: MW
HStem: 289 270<453 768 453 831 336 768> 1397 41G<653 760 760 790> 1489 127<708 749 708 784> 1765 131<720 761>
VStem: 528 131<1663 1704 1663 1734> 809 129<1674 1715>
AnchorPoint: "Anchor-1" 756 1796 basechar 0
AnchorPoint: "Anchor-0" 616 0 basechar 0
LayerCount: 2
Fore
SplineSet
590.5 1831.5 m 128,-1,1
 653 1896 653 1896 744.5 1896 c 128,-1,2
 836 1896 836 1896 887 1844 c 128,-1,3
 938 1792 938 1792 938 1705 c 128,-1,4
 938 1618 938 1618 877.5 1553.5 c 128,-1,5
 817 1489 817 1489 724 1489 c 128,-1,6
 631 1489 631 1489 579.5 1541 c 128,-1,7
 528 1593 528 1593 528 1680 c 128,-1,0
 528 1767 528 1767 590.5 1831.5 c 128,-1,1
789.5 1744.5 m 128,-1,9
 770 1765 770 1765 739.5 1765 c 128,-1,10
 709 1765 709 1765 684 1739.5 c 128,-1,11
 659 1714 659 1714 659 1683.5 c 128,-1,12
 659 1653 659 1653 678.5 1634.5 c 128,-1,13
 698 1616 698 1616 729 1616 c 128,-1,14
 760 1616 760 1616 784.5 1639.5 c 128,-1,15
 809 1663 809 1663 809 1693.5 c 128,-1,8
 809 1724 809 1724 789.5 1744.5 c 128,-1,9
653 1438 m 2,16,-1
 760 1438 l 2,17,18
 862 1438 862 1438 872 1395 c 2,19,-1
 1196 78 l 2,20,21
 1202 60 1202 60 1202 43 c 0,22,23
 1202 -4 1202 -4 1092 -4 c 2,24,-1
 1001 -4 l 2,25,26
 901 -4 901 -4 891 39 c 2,27,-1
 831 289 l 1,28,-1
 336 289 l 1,29,-1
 223 39 l 2,30,31
 203 -4 203 -4 125 -4 c 2,32,-1
 43 -4 l 2,33,34
 -76 -4 -76 -4 -76 37 c 0,35,36
 -76 53 -76 53 -63 78 c 2,37,-1
 532 1395 l 2,38,39
 551 1438 551 1438 653 1438 c 2,16,-1
670 1055 m 1,40,-1
 662 1055 l 1,41,42
 637 971 637 971 616 924 c 2,43,-1
 453 559 l 1,44,-1
 768 559 l 1,45,-1
 686 924 l 2,46,47
 674 977 674 977 670 1055 c 1,40,-1
EndSplineSet
Position2: "'cpsp' Capital Spacing lookup 0 subtable" dx=10 dy=0 dh=20 dv=0
EndChar

StartChar: Aringacute
Encoding: 506 506 22
Width: 1255
GlyphClass: 2
Flags: MW
HStem: 289 270<453 768 453 831 336 768> 1499 131<693 734> 1663 244<676 961>
VStem: 502 131<1397 1438 1397 1467> 782 129<1427 1449>
AnchorPoint: "Anchor-1" 729 1530 basechar 0
AnchorPoint: "Anchor-0" 0 0 basechar 0
LayerCount: 2
Fore
SplineSet
700 1663 m 0,0,1
 663 1663 663 1663 650 1670 c 128,-1,2
 637 1677 637 1677 639 1694 c 0,3,4
 684 1776 684 1776 739 1851 c 0,5,6
 778 1906 778 1906 920 1907 c 0,7,8
 1044 1907 1044 1907 1040 1878 c 0,9,10
 1038 1866 1038 1866 987 1823 c 128,-1,11
 936 1780 936 1780 925.5 1770.5 c 128,-1,12
 915 1761 915 1761 896 1746 c 128,-1,13
 877 1731 877 1731 858 1714 c 0,14,15
 806 1663 806 1663 700 1663 c 0,0,1
887 1337 m 1,16,-1
 1196 78 l 2,17,18
 1202 60 1202 60 1202 43 c 0,19,20
 1202 -4 1202 -4 1092 -4 c 2,21,-1
 1001 -4 l 2,22,23
 901 -4 901 -4 891 39 c 2,24,-1
 831 289 l 1,25,-1
 336 289 l 1,26,-1
 223 39 l 2,27,28
 203 -4 203 -4 125 -4 c 2,29,-1
 43 -4 l 2,30,31
 -76 -4 -76 -4 -76 37 c 0,32,33
 -76 53 -76 53 -63 78 c 2,34,-1
 510 1346 l 1,35,36
 502 1371 502 1371 502 1405 c 0,37,38
 502 1501 502 1501 564.5 1565.5 c 128,-1,39
 627 1630 627 1630 718 1630 c 128,-1,40
 809 1630 809 1630 860 1578 c 128,-1,41
 911 1526 911 1526 911.5 1456 c 128,-1,42
 912 1386 912 1386 887 1337 c 1,16,-1
762.5 1478.5 m 128,-1,44
 743 1499 743 1499 712.5 1499 c 128,-1,45
 682 1499 682 1499 657.5 1473.5 c 128,-1,46
 633 1448 633 1448 633 1417 c 128,-1,47
 633 1386 633 1386 652.5 1368 c 128,-1,48
 672 1350 672 1350 702.5 1350 c 128,-1,49
 733 1350 733 1350 757.5 1373.5 c 128,-1,50
 782 1397 782 1397 782 1427.5 c 128,-1,43
 782 1458 782 1458 762.5 1478.5 c 128,-1,44
768 559 m 1,51,-1
 686 924 l 2,52,53
 674 977 674 977 670 1055 c 1,54,-1
 662 1055 l 1,55,56
 637 971 637 971 616 924 c 2,57,-1
 453 559 l 1,58,-1
 768 559 l 1,51,-1
EndSplineSet
Position2: "'cpsp' Capital Spacing lookup 0 subtable" dx=10 dy=0 dh=20 dv=0
EndChar

StartChar: Atilde
Encoding: 195 195 23
Width: 1255
GlyphClass: 2
Flags: MW
HStem: 289 270<453 768 453 831 336 768> 1397 41G<653 760 760 790> 1552 176<845 873> 1577 205
VStem: -76 1278<29 43>
AnchorPoint: "Anchor-1" 756 1796 basechar 0
AnchorPoint: "Anchor-0" 616 0 basechar 0
LayerCount: 2
Fore
SplineSet
401 1698 m 0,0,1
 507 1782 507 1782 595.5 1782 c 128,-1,2
 684 1782 684 1782 752.5 1755.5 c 128,-1,3
 821 1729 821 1729 871.5 1729 c 128,-1,4
 922 1729 922 1729 975 1760.5 c 128,-1,5
 1028 1792 1028 1792 1065 1743 c 0,6,7
 1085 1720 1085 1720 1082 1696.5 c 128,-1,8
 1079 1673 1079 1673 1049 1636 c 0,9,10
 965 1552 965 1552 831 1552 c 0,11,12
 755 1552 755 1552 677.5 1579 c 128,-1,13
 600 1606 600 1606 567.5 1606 c 128,-1,14
 535 1606 535 1606 484.5 1579 c 128,-1,15
 434 1552 434 1552 398 1605.5 c 128,-1,16
 362 1659 362 1659 401 1698 c 0,0,1
653 1438 m 2,17,-1
 760 1438 l 2,18,19
 862 1438 862 1438 872 1395 c 2,20,-1
 1196 78 l 2,21,22
 1202 60 1202 60 1202 43 c 0,23,24
 1202 -4 1202 -4 1092 -4 c 2,25,-1
 1001 -4 l 2,26,27
 901 -4 901 -4 891 39 c 2,28,-1
 831 289 l 1,29,-1
 336 289 l 1,30,-1
 223 39 l 2,31,32
 203 -4 203 -4 125 -4 c 2,33,-1
 43 -4 l 2,34,35
 -76 -4 -76 -4 -76 37 c 0,36,37
 -76 53 -76 53 -63 78 c 2,38,-1
 532 1395 l 2,39,40
 551 1438 551 1438 653 1438 c 2,17,-1
670 1055 m 1,41,-1
 662 1055 l 1,42,43
 637 971 637 971 616 924 c 2,44,-1
 453 559 l 1,45,-1
 768 559 l 1,46,-1
 686 924 l 2,47,48
 674 977 674 977 670 1055 c 1,41,-1
EndSplineSet
Position2: "'cpsp' Capital Spacing lookup 0 subtable" dx=10 dy=0 dh=20 dv=0
EndChar

StartChar: AE
Encoding: 198 198 24
Width: 1873
GlyphClass: 2
Flags: MW
HStem: 0 268<934 1665 1186 1640> 289 270<537 852 537 872 375 852> 600 268<1157 1647 1157 1157> 1165 268<1106 1761 1106 1106>
VStem: 831 287
AnchorPoint: "Anchor-1" 938 1434 basechar 0
AnchorPoint: "Anchor-0" 0 0 basechar 0
LayerCount: 2
Fore
SplineSet
831 1434 m 2,0,-1
 1786 1434 l 2,1,2
 1839 1434 1839 1434 1839 1352 c 0,3,4
 1839 1166 1839 1166 1761 1165 c 2,5,-1
 1106 1165 l 1,6,-1
 1130 868 l 1,7,-1
 1671 868 l 2,8,9
 1724 868 1724 868 1724 786 c 0,10,11
 1724 600 1724 600 1647 600 c 2,12,-1
 1157 600 l 1,13,-1
 1186 268 l 1,14,-1
 1665 268 l 2,15,16
 1718 268 1718 268 1718 186 c 0,17,18
 1718 0 1718 0 1640 0 c 2,19,-1
 956 0 l 2,20,21
 923 0 923 0 909 14.5 c 128,-1,22
 895 29 895 29 891 61 c 2,23,-1
 872 289 l 1,24,-1
 375 289 l 1,25,-1
 225 39 l 1,26,27
 196 -4 196 -4 127 -4 c 2,28,-1
 51 -4 l 2,29,30
 -72 -4 -72 -4 -72 41 c 0,31,32
 -72 55 -72 55 -55 78 c 1,33,-1
 737 1378 l 2,34,35
 772 1434 772 1434 831 1434 c 2,0,-1
831 1100 m 1,36,-1
 758 932 l 1,37,-1
 537 559 l 1,38,-1
 852 559 l 1,39,-1
 823 930 l 1,40,-1
 840 1100 l 1,41,-1
 831 1100 l 1,36,-1
EndSplineSet
Position2: "'cpsp' Capital Spacing lookup 0 subtable" dx=10 dy=0 dh=20 dv=0
EndChar

StartChar: AEacute
Encoding: 508 508 25
Width: 1873
GlyphClass: 2
Flags: MW
HStem: 0 268<934 1665 1186 1640> 289 270<537 852 537 872 375 852> 600 268<1157 1647 1157 1157> 1165 268<1106 1761 1106 1106> 1540 326<858 1198>
VStem: 831 287
AnchorPoint: "Anchor-1" 1012 1796 basechar 0
AnchorPoint: "Anchor-0" 0 0 basechar 0
LayerCount: 2
Fore
SplineSet
917.5 1719 m 128,-1,1
 948 1763 948 1763 982 1814.5 c 128,-1,2
 1016 1866 1016 1866 1147 1866 c 128,-1,3
 1278 1866 1278 1866 1278 1839 c 0,4,5
 1278 1825 1278 1825 1269 1813.5 c 128,-1,6
 1260 1802 1260 1802 1215.5 1760 c 128,-1,7
 1171 1718 1171 1718 1155 1703 c 0,8,9
 1106 1657 1106 1657 1047.5 1598.5 c 128,-1,10
 989 1540 989 1540 881 1540 c 0,11,12
 822 1540 822 1540 821 1567 c 0,13,14
 821 1580 821 1580 838.5 1605 c 128,-1,15
 856 1630 856 1630 871.5 1652.5 c 128,-1,0
 887 1675 887 1675 917.5 1719 c 128,-1,1
831 1434 m 2,16,-1
 1786 1434 l 2,17,18
 1839 1434 1839 1434 1839 1352 c 0,19,20
 1839 1166 1839 1166 1761 1165 c 2,21,-1
 1106 1165 l 1,22,-1
 1130 868 l 1,23,-1
 1671 868 l 2,24,25
 1724 868 1724 868 1724 786 c 0,26,27
 1724 600 1724 600 1647 600 c 2,28,-1
 1157 600 l 1,29,-1
 1186 268 l 1,30,-1
 1665 268 l 2,31,32
 1718 268 1718 268 1718 186 c 0,33,34
 1718 0 1718 0 1640 0 c 2,35,-1
 956 0 l 2,36,37
 923 0 923 0 909 14.5 c 128,-1,38
 895 29 895 29 891 61 c 2,39,-1
 872 289 l 1,40,-1
 375 289 l 1,41,-1
 225 39 l 1,42,43
 196 -4 196 -4 127 -4 c 2,44,-1
 51 -4 l 2,45,46
 -72 -4 -72 -4 -72 41 c 0,47,48
 -72 55 -72 55 -55 78 c 1,49,-1
 737 1378 l 2,50,51
 772 1434 772 1434 831 1434 c 2,16,-1
831 1100 m 1,52,-1
 758 932 l 1,53,-1
 537 559 l 1,54,-1
 852 559 l 1,55,-1
 823 930 l 1,56,-1
 840 1100 l 1,57,-1
 831 1100 l 1,52,-1
EndSplineSet
Position2: "'cpsp' Capital Spacing lookup 0 subtable" dx=10 dy=0 dh=20 dv=0
EndChar

StartChar: B
Encoding: 66 66 26
Width: 1214
GlyphClass: 2
Flags: MW
HStem: 0 268<128 616 416 590> 594 268<451 621 479 618> 1167 266<512 512 512 657>
VStem: 823 324<393 500> 827 332<1037 1081>
LayerCount: 2
Fore
SplineSet
305 1434 m 2,0,-1
 711 1434 l 2,1,2
 942 1434 942 1434 1050.5 1350 c 128,-1,3
 1159 1266 1159 1266 1159 1133 c 0,4,5
 1159 1000 1159 1000 1087.5 902.5 c 128,-1,6
 1016 805 1016 805 903 760 c 1,7,-1
 903 752 l 1,8,9
 1014 729 1014 729 1080.5 644 c 128,-1,10
 1147 559 1147 559 1147 451 c 0,11,12
 1147 236 1147 236 999.5 118 c 128,-1,13
 852 0 852 0 590 0 c 2,14,-1
 156 0 l 2,15,16
 115 0 115 0 98.5 14.5 c 128,-1,17
 82 29 82 29 82 51 c 0,18,19
 82 74 82 74 116 394 c 0,20,21
 150 715 150 715 215 1352 c 0,22,23
 223 1434 223 1434 305 1434 c 2,0,-1
512 1167 m 1,24,-1
 479 862 l 1,25,-1
 621 862 l 2,26,27
 717 862 717 862 772 912.5 c 128,-1,28
 827 963 827 963 827 1038 c 0,29,30
 827 1167 827 1167 657 1167 c 2,31,-1
 512 1167 l 1,24,-1
451 594 m 1,32,-1
 416 268 l 1,33,-1
 616 268 l 2,34,35
 710 268 710 268 766.5 316.5 c 128,-1,36
 823 365 823 365 823 453 c 0,37,38
 823 594 823 594 618 594 c 2,39,-1
 451 594 l 1,32,-1
EndSplineSet
Position2: "'cpsp' Capital Spacing lookup 0 subtable" dx=10 dy=0 dh=20 dv=0
EndChar

StartChar: C
Encoding: 67 67 27
Width: 1267
GlyphClass: 2
Flags: MW
HStem: -16 268<615 740> 1180 270<688 916>
VStem: 86 326<493 800 493 801>
AnchorPoint: "Anchor-1" 817 1434 basechar 0
AnchorPoint: "Anchor-0" 635 0 basechar 0
LayerCount: 2
Fore
SplineSet
489.5 1379.5 m 128,-1,1
 643 1450 643 1450 821 1450 c 128,-1,2
 999 1450 999 1450 1133.5 1410 c 128,-1,3
 1268 1370 1268 1370 1268 1311 c 0,4,5
 1268 1268 1268 1268 1209.5 1191 c 128,-1,6
 1151 1114 1151 1114 1114 1114 c 0,7,8
 1108 1114 1108 1114 1074 1130 c 0,9,10
 973 1179 973 1179 819 1180 c 0,11,12
 620 1180 620 1180 516 1036.5 c 128,-1,13
 412 893 412 893 412 610 c 0,14,15
 412 252 412 252 719 252 c 0,16,17
 821 252 821 252 916.5 279.5 c 128,-1,18
 1012 307 1012 307 1068 336 c 128,-1,19
 1124 365 1124 365 1130 365 c 0,20,21
 1155 365 1155 365 1155 334 c 0,22,23
 1155 248 1155 248 1135 139 c 0,24,25
 1119 57 1119 57 967 20.5 c 128,-1,26
 815 -16 815 -16 690 -16 c 0,27,28
 383 -16 383 -16 234.5 126 c 128,-1,29
 86 268 86 268 86 565 c 0,30,31
 86 938 86 938 251 1183 c 0,32,0
 336 1309 336 1309 489.5 1379.5 c 128,-1,1
EndSplineSet
Position2: "'cpsp' Capital Spacing lookup 0 subtable" dx=10 dy=0 dh=20 dv=0
EndChar

StartChar: Cacute
Encoding: 262 262 28
Width: 1267
GlyphClass: 2
Flags: MW
HStem: -16 268<615 740> 1180 270<688 916> 1540 326<737 1077>
VStem: 86 326<493 800 493 801>
AnchorPoint: "Anchor-1" 891 1796 basechar 0
AnchorPoint: "Anchor-0" 635 0 basechar 0
LayerCount: 2
Fore
SplineSet
796.5 1719 m 128,-1,1
 827 1763 827 1763 861 1814.5 c 128,-1,2
 895 1866 895 1866 1026 1866 c 128,-1,3
 1157 1866 1157 1866 1157 1839 c 0,4,5
 1157 1825 1157 1825 1148 1813.5 c 128,-1,6
 1139 1802 1139 1802 1065 1731.5 c 128,-1,7
 991 1661 991 1661 929.5 1600.5 c 128,-1,8
 868 1540 868 1540 760 1540 c 0,9,10
 701 1540 701 1540 700 1567 c 0,11,12
 700 1580 700 1580 717.5 1605 c 128,-1,13
 735 1630 735 1630 750.5 1652.5 c 128,-1,0
 766 1675 766 1675 796.5 1719 c 128,-1,1
489.5 1379.5 m 128,-1,15
 643 1450 643 1450 821 1450 c 128,-1,16
 999 1450 999 1450 1133.5 1410 c 128,-1,17
 1268 1370 1268 1370 1268 1311 c 0,18,19
 1268 1268 1268 1268 1209.5 1191 c 128,-1,20
 1151 1114 1151 1114 1114 1114 c 0,21,22
 1108 1114 1108 1114 1074 1130 c 0,23,24
 973 1179 973 1179 819 1180 c 0,25,26
 620 1180 620 1180 516 1036.5 c 128,-1,27
 412 893 412 893 412 610 c 0,28,29
 412 252 412 252 719 252 c 0,30,31
 821 252 821 252 916.5 279.5 c 128,-1,32
 1012 307 1012 307 1068 336 c 128,-1,33
 1124 365 1124 365 1130 365 c 0,34,35
 1155 365 1155 365 1155 334 c 0,36,37
 1155 248 1155 248 1135 139 c 0,38,39
 1119 57 1119 57 967 20.5 c 128,-1,40
 815 -16 815 -16 690 -16 c 0,41,42
 383 -16 383 -16 234.5 126 c 128,-1,43
 86 268 86 268 86 565 c 0,44,45
 86 938 86 938 251 1183 c 0,46,14
 336 1309 336 1309 489.5 1379.5 c 128,-1,15
EndSplineSet
Substitution2: "'locl' Localized Forms in Latin lookup 11 subtable" Cacute.loclPLK
Substitution2: "'aalt' Access All Alternates lookup 0 subtable" Cacute.loclPLK
Position2: "'cpsp' Capital Spacing lookup 0 subtable" dx=10 dy=0 dh=20 dv=0
EndChar

StartChar: Ccaron
Encoding: 268 268 29
Width: 1267
GlyphClass: 2
Flags: MW
HStem: -16 268<615 740> 1180 270<688 916> 1534 299<610 809 610 831>
VStem: 86 326<493 800 493 801>
AnchorPoint: "Anchor-1" 860 1796 basechar 0
AnchorPoint: "Anchor-0" 635 0 basechar 0
LayerCount: 2
Fore
SplineSet
1042 1833 m 1,0,-1
 1092 1833 l 2,1,2
 1131 1833 1131 1833 1130 1812 c 0,3,4
 1130 1798 1130 1798 1116 1782 c 2,5,-1
 961 1573 l 2,6,7
 932 1534 932 1534 831 1534 c 2,8,-1
 809 1534 l 2,9,10
 711 1534 711 1534 688 1573 c 2,11,-1
 578 1782 l 1,12,13
 572 1798 572 1798 571 1806 c 0,14,15
 571 1833 571 1833 610 1833 c 2,16,-1
 655 1833 l 2,17,18
 753 1833 753 1833 786 1784 c 2,19,-1
 838 1702 l 1,20,-1
 901 1782 l 2,21,22
 938 1829 938 1829 1042 1833 c 1,0,-1
489.5 1379.5 m 128,-1,24
 643 1450 643 1450 821 1450 c 128,-1,25
 999 1450 999 1450 1133.5 1410 c 128,-1,26
 1268 1370 1268 1370 1268 1311 c 0,27,28
 1268 1268 1268 1268 1209.5 1191 c 128,-1,29
 1151 1114 1151 1114 1114 1114 c 0,30,31
 1108 1114 1108 1114 1074 1130 c 0,32,33
 973 1179 973 1179 819 1180 c 0,34,35
 620 1180 620 1180 516 1036.5 c 128,-1,36
 412 893 412 893 412 610 c 0,37,38
 412 252 412 252 719 252 c 0,39,40
 821 252 821 252 916.5 279.5 c 128,-1,41
 1012 307 1012 307 1068 336 c 128,-1,42
 1124 365 1124 365 1130 365 c 0,43,44
 1155 365 1155 365 1155 334 c 0,45,46
 1155 248 1155 248 1135 139 c 0,47,48
 1119 57 1119 57 967 20.5 c 128,-1,49
 815 -16 815 -16 690 -16 c 0,50,51
 383 -16 383 -16 234.5 126 c 128,-1,52
 86 268 86 268 86 565 c 0,53,54
 86 938 86 938 251 1183 c 0,55,23
 336 1309 336 1309 489.5 1379.5 c 128,-1,24
EndSplineSet
Position2: "'cpsp' Capital Spacing lookup 0 subtable" dx=10 dy=0 dh=20 dv=0
EndChar

StartChar: Ccedilla
Encoding: 199 199 30
Width: 1267
GlyphClass: 2
Flags: MW
HStem: -434 150<525 573 508 637> -16 268<698 698> 1180 270<688 916>
VStem: 86 326<493 800 493 801> 606 213
AnchorPoint: "Anchor-1" 817 1434 basechar 0
AnchorPoint: "Anchor-0" 551 -416 basechar 0
LayerCount: 2
Fore
SplineSet
819 1180 m 0,0,1
 620 1180 620 1180 516 1036.5 c 128,-1,2
 412 893 412 893 412 610 c 0,3,4
 412 252 412 252 719 252 c 0,5,6
 821 252 821 252 916.5 279.5 c 128,-1,7
 1012 307 1012 307 1068 336 c 128,-1,8
 1124 365 1124 365 1130 365 c 0,9,10
 1155 365 1155 365 1155 334 c 0,11,12
 1155 248 1155 248 1135 139 c 0,13,14
 1119 59 1119 59 974 22.5 c 128,-1,15
 829 -14 829 -14 698 -16 c 1,16,-1
 676 -72 l 1,17,18
 733 -82 733 -82 776 -121 c 128,-1,19
 819 -160 819 -160 819 -225 c 0,20,21
 819 -327 819 -327 749.5 -380.5 c 128,-1,22
 680 -434 680 -434 555 -434 c 0,23,24
 418 -434 418 -434 368 -384 c 0,25,26
 344 -360 344 -360 344 -328 c 0,27,28
 344 -230 344 -230 373 -229 c 0,29,30
 377 -229 377 -229 438.5 -257 c 128,-1,31
 500 -285 500 -285 551 -285 c 128,-1,32
 602 -285 602 -285 606 -250 c 0,33,34
 606 -225 606 -225 557 -200.5 c 128,-1,35
 508 -176 508 -176 508 -152 c 0,36,37
 508 -138 508 -138 563 -10 c 1,38,39
 319 19 319 19 202.5 159 c 128,-1,40
 86 299 86 299 86 565 c 0,41,42
 86 938 86 938 251 1183 c 0,43,44
 336 1309 336 1309 489.5 1379.5 c 128,-1,45
 643 1450 643 1450 821 1450 c 128,-1,46
 999 1450 999 1450 1133.5 1410 c 128,-1,47
 1268 1370 1268 1370 1268 1311 c 0,48,49
 1268 1268 1268 1268 1209.5 1191 c 128,-1,50
 1151 1114 1151 1114 1114 1114 c 0,51,52
 1108 1114 1108 1114 1074 1130 c 0,53,54
 973 1180 973 1180 819 1180 c 0,0,1
EndSplineSet
Position2: "'cpsp' Capital Spacing lookup 0 subtable" dx=10 dy=0 dh=20 dv=0
EndChar

StartChar: Ccircumflex
Encoding: 264 264 31
Width: 1267
GlyphClass: 2
Flags: MW
HStem: -16 268<615 740> 1180 270<688 916> 1534 299<565 860 578 860 838 1014 838 1059>
VStem: 86 326<493 800 493 801>
AnchorPoint: "Anchor-1" 1217 1585 basechar 0
AnchorPoint: "Anchor-0" 635 0 basechar 0
LayerCount: 2
Fore
SplineSet
838 1833 m 2,0,-1
 860 1833 l 2,1,2
 958 1833 958 1833 981 1794 c 2,3,-1
 1092 1585 l 1,4,5
 1098 1569 1098 1569 1098 1561 c 0,6,7
 1098 1534 1098 1534 1059 1534 c 2,8,-1
 1014 1534 l 2,9,10
 914 1534 914 1534 883 1583 c 2,11,-1
 831 1665 l 1,12,-1
 768 1585 l 2,13,14
 729 1534 729 1534 627 1534 c 2,15,-1
 578 1534 l 2,16,17
 539 1534 539 1534 539 1554 c 0,18,19
 539 1568 539 1568 553 1585 c 2,20,-1
 709 1794 l 2,21,22
 738 1833 738 1833 838 1833 c 2,0,-1
489.5 1379.5 m 128,-1,24
 643 1450 643 1450 821 1450 c 128,-1,25
 999 1450 999 1450 1133.5 1410 c 128,-1,26
 1268 1370 1268 1370 1268 1311 c 0,27,28
 1268 1268 1268 1268 1209.5 1191 c 128,-1,29
 1151 1114 1151 1114 1114 1114 c 0,30,31
 1108 1114 1108 1114 1074 1130 c 0,32,33
 973 1179 973 1179 819 1180 c 0,34,35
 620 1180 620 1180 516 1036.5 c 128,-1,36
 412 893 412 893 412 610 c 0,37,38
 412 252 412 252 719 252 c 0,39,40
 821 252 821 252 916.5 279.5 c 128,-1,41
 1012 307 1012 307 1068 336 c 128,-1,42
 1124 365 1124 365 1130 365 c 0,43,44
 1155 365 1155 365 1155 334 c 0,45,46
 1155 248 1155 248 1135 139 c 0,47,48
 1119 57 1119 57 967 20.5 c 128,-1,49
 815 -16 815 -16 690 -16 c 0,50,51
 383 -16 383 -16 234.5 126 c 128,-1,52
 86 268 86 268 86 565 c 0,53,54
 86 938 86 938 251 1183 c 0,55,23
 336 1309 336 1309 489.5 1379.5 c 128,-1,24
EndSplineSet
Position2: "'cpsp' Capital Spacing lookup 0 subtable" dx=10 dy=0 dh=20 dv=0
EndChar

StartChar: Cdotaccent
Encoding: 266 266 32
Width: 1267
GlyphClass: 2
Flags: MW
HStem: -16 268<615 740> 1180 270<688 916> 1546 254<786 844>
VStem: 86 326<493 800 493 801> 686 260<1590 1756>
AnchorPoint: "Anchor-1" 870 1796 basechar 0
AnchorPoint: "Anchor-0" 635 0 basechar 0
LayerCount: 2
Fore
SplineSet
700 1735 m 2,0,1
 706 1801 706 1801 826 1800.5 c 128,-1,2
 946 1800 946 1800 946 1735 c 1,3,-1
 932 1612 l 1,4,5
 922 1546 922 1546 804 1546 c 128,-1,6
 686 1546 686 1546 686 1612 c 1,7,-1
 700 1735 l 2,0,1
489.5 1379.5 m 128,-1,9
 643 1450 643 1450 821 1450 c 128,-1,10
 999 1450 999 1450 1133.5 1410 c 128,-1,11
 1268 1370 1268 1370 1268 1311 c 0,12,13
 1268 1268 1268 1268 1209.5 1191 c 128,-1,14
 1151 1114 1151 1114 1114 1114 c 0,15,16
 1108 1114 1108 1114 1074 1130 c 0,17,18
 973 1179 973 1179 819 1180 c 0,19,20
 620 1180 620 1180 516 1036.5 c 128,-1,21
 412 893 412 893 412 610 c 0,22,23
 412 252 412 252 719 252 c 0,24,25
 821 252 821 252 916.5 279.5 c 128,-1,26
 1012 307 1012 307 1068 336 c 128,-1,27
 1124 365 1124 365 1130 365 c 0,28,29
 1155 365 1155 365 1155 334 c 0,30,31
 1155 248 1155 248 1135 139 c 0,32,33
 1119 57 1119 57 967 20.5 c 128,-1,34
 815 -16 815 -16 690 -16 c 0,35,36
 383 -16 383 -16 234.5 126 c 128,-1,37
 86 268 86 268 86 565 c 0,38,39
 86 938 86 938 251 1183 c 0,40,8
 336 1309 336 1309 489.5 1379.5 c 128,-1,9
EndSplineSet
Position2: "'cpsp' Capital Spacing lookup 0 subtable" dx=10 dy=0 dh=20 dv=0
EndChar

StartChar: D
Encoding: 68 68 33
Width: 1423
GlyphClass: 2
Flags: MW
HStem: 0 268<128 641 418 614> 1165 268<514 514 514 737>
VStem: 1026 326<637 928>
AnchorPoint: "Anchor-1" 713 1434 basechar 0
AnchorPoint: "Anchor-0" 596 0 basechar 0
LayerCount: 2
Fore
SplineSet
305 1434 m 2,0,-1
 764 1434 l 2,1,2
 1051 1434 1051 1434 1201.5 1281 c 128,-1,3
 1352 1128 1352 1128 1352 842 c 0,4,5
 1352 441 1352 441 1154 220.5 c 128,-1,6
 956 0 956 0 614 0 c 2,7,-1
 156 0 l 2,8,9
 115 0 115 0 98.5 15.5 c 128,-1,10
 82 31 82 31 82 58 c 0,11,12
 82 86 82 86 215 1352 c 0,13,14
 223 1434 223 1434 305 1434 c 2,0,-1
514 1165 m 1,15,-1
 418 268 l 1,16,-1
 641 268 l 2,17,18
 819 268 819 268 922.5 410.5 c 128,-1,19
 1026 553 1026 553 1026 813 c 0,20,21
 1026 1165 1026 1165 737 1165 c 2,22,-1
 514 1165 l 1,15,-1
EndSplineSet
Position2: "'cpsp' Capital Spacing lookup 0 subtable" dx=10 dy=0 dh=20 dv=0
EndChar

StartChar: DZ
Encoding: 497 497 34
Width: 2684
GlyphClass: 2
Flags: MW
HStem: 0 268<128 641 418 614 1872 2472> 1165 268<514 514 514 737 1667 2212>
VStem: 1026 326<637 928>
AnchorPoint: "Anchor-1" 2103 1434 basechar 0
AnchorPoint: "Anchor-0" 1982 0 basechar 0
LayerCount: 2
Fore
SplineSet
305 1434 m 2,0,-1
 764 1434 l 2,1,2
 1051 1434 1051 1434 1201.5 1281 c 128,-1,3
 1352 1128 1352 1128 1352 842 c 0,4,5
 1352 441 1352 441 1154 220.5 c 128,-1,6
 956 0 956 0 614 0 c 2,7,-1
 156 0 l 2,8,9
 115 0 115 0 98.5 15.5 c 128,-1,10
 82 31 82 31 82 58 c 0,11,12
 82 86 82 86 215 1352 c 0,13,14
 223 1434 223 1434 305 1434 c 2,0,-1
1667 1434 m 2,15,-1
 2595 1434 l 2,16,17
 2622 1434 2622 1434 2641 1370.5 c 128,-1,18
 2660 1307 2660 1307 2660 1269 c 0,19,20
 2660 1231 2660 1231 2654 1225 c 2,21,-1
 1872 268 l 1,22,-1
 2497 268 l 2,23,24
 2550 268 2550 268 2550 186 c 0,25,26
 2550 0 2550 0 2472 0 c 2,27,-1
 1491 0 l 2,28,29
 1464 0 1464 0 1444.5 63.5 c 128,-1,30
 1425 127 1425 127 1425 165 c 0,31,32
 1425 203 1425 203 1432 209 c 2,33,-1
 2212 1165 l 1,34,-1
 1642 1165 l 2,35,36
 1589 1165 1589 1165 1589 1247 c 0,37,38
 1589 1434 1589 1434 1667 1434 c 2,15,-1
514 1165 m 1,39,-1
 418 268 l 1,40,-1
 641 268 l 2,41,42
 819 268 819 268 922.5 410.5 c 128,-1,43
 1026 553 1026 553 1026 813 c 0,44,45
 1026 1165 1026 1165 737 1165 c 2,46,-1
 514 1165 l 1,39,-1
EndSplineSet
Position2: "'cpsp' Capital Spacing lookup 0 subtable" dx=10 dy=0 dh=20 dv=0
EndChar

StartChar: DZcaron
Encoding: 452 452 35
Width: 2684
GlyphClass: 2
Flags: MW
HStem: 0 268<128 641 418 614 1872 2472> 1165 268<514 514 514 737 1667 2212> 1534 299<1896 2095 1896 2118>
VStem: 1026 326<637 928>
AnchorPoint: "Anchor-1" 2146 1796 basechar 0
AnchorPoint: "Anchor-0" 1982 0 basechar 0
LayerCount: 2
Fore
SplineSet
2329 1833 m 1,0,-1
 2378 1833 l 2,1,2
 2417 1833 2417 1833 2417 1812 c 0,3,4
 2417 1798 2417 1798 2402 1782 c 2,5,-1
 2247 1573 l 2,6,7
 2218 1534 2218 1534 2118 1534 c 2,8,-1
 2095 1534 l 2,9,10
 1997 1534 1997 1534 1974 1573 c 2,11,-1
 1864 1782 l 1,12,13
 1858 1798 1858 1798 1858 1806 c 0,14,15
 1858 1833 1858 1833 1896 1833 c 2,16,-1
 1942 1833 l 2,17,18
 2040 1833 2040 1833 2073 1784 c 2,19,-1
 2124 1702 l 1,20,-1
 2187 1782 l 2,21,22
 2225 1829 2225 1829 2329 1833 c 1,0,-1
305 1434 m 2,23,-1
 764 1434 l 2,24,25
 1051 1434 1051 1434 1201.5 1281 c 128,-1,26
 1352 1128 1352 1128 1352 842 c 0,27,28
 1352 441 1352 441 1154 220.5 c 128,-1,29
 956 0 956 0 614 0 c 2,30,-1
 156 0 l 2,31,32
 115 0 115 0 98.5 15.5 c 128,-1,33
 82 31 82 31 82 58 c 0,34,35
 82 86 82 86 215 1352 c 0,36,37
 223 1434 223 1434 305 1434 c 2,23,-1
1667 1434 m 2,38,-1
 2595 1434 l 2,39,40
 2622 1434 2622 1434 2641 1370.5 c 128,-1,41
 2660 1307 2660 1307 2660 1269 c 0,42,43
 2660 1231 2660 1231 2654 1225 c 2,44,-1
 1872 268 l 1,45,-1
 2497 268 l 2,46,47
 2550 268 2550 268 2550 186 c 0,48,49
 2550 0 2550 0 2472 0 c 2,50,-1
 1491 0 l 2,51,52
 1464 0 1464 0 1444.5 63.5 c 128,-1,53
 1425 127 1425 127 1425 165 c 0,54,55
 1425 203 1425 203 1432 209 c 2,56,-1
 2212 1165 l 1,57,-1
 1642 1165 l 2,58,59
 1589 1165 1589 1165 1589 1247 c 0,60,61
 1589 1434 1589 1434 1667 1434 c 2,38,-1
514 1165 m 1,62,-1
 418 268 l 1,63,-1
 641 268 l 2,64,65
 819 268 819 268 922.5 410.5 c 128,-1,66
 1026 553 1026 553 1026 813 c 0,67,68
 1026 1165 1026 1165 737 1165 c 2,69,-1
 514 1165 l 1,62,-1
EndSplineSet
Position2: "'cpsp' Capital Spacing lookup 0 subtable" dx=10 dy=0 dh=20 dv=0
EndChar

StartChar: Eth
Encoding: 208 208 36
Width: 1425
GlyphClass: 2
Flags: MW
HStem: 0 268<128 641 418 614> 594 268<53 164 96 135 481 573> 1165 268<514 737 514 514>
VStem: 1026 326<637 928>
AnchorPoint: "Anchor-1" 713 1434 basechar 0
AnchorPoint: "Anchor-0" 596 0 basechar 0
LayerCount: 2
Fore
SplineSet
305 1434 m 2,0,-1
 764 1434 l 2,1,2
 1051 1434 1051 1434 1201.5 1281 c 128,-1,3
 1352 1128 1352 1128 1352 842 c 0,4,5
 1352 441 1352 441 1154 220.5 c 128,-1,6
 956 0 956 0 614 0 c 2,7,-1
 156 0 l 2,8,9
 115 0 115 0 98.5 15.5 c 128,-1,10
 82 31 82 31 82 52 c 0,11,12
 82 74 82 74 135 594 c 1,13,-1
 72 594 l 2,14,15
 19 594 19 594 18 676 c 0,16,17
 18 862 18 862 96 862 c 2,18,-1
 164 862 l 1,19,-1
 215 1352 l 2,20,21
 223 1434 223 1434 305 1434 c 2,0,-1
418 268 m 1,22,-1
 641 268 l 2,23,24
 819 268 819 268 922.5 410.5 c 128,-1,25
 1026 553 1026 553 1026 813 c 0,26,27
 1026 1165 1026 1165 737 1165 c 2,28,-1
 514 1165 l 1,29,-1
 481 862 l 1,30,-1
 598 862 l 2,31,32
 651 862 651 862 651 780 c 0,33,34
 651 594 651 594 573 594 c 2,35,-1
 453 594 l 1,36,-1
 418 268 l 1,22,-1
EndSplineSet
Position2: "'cpsp' Capital Spacing lookup 0 subtable" dx=10 dy=0 dh=20 dv=0
EndChar

StartChar: Dcaron
Encoding: 270 270 37
Width: 1423
GlyphClass: 2
Flags: MW
HStem: 0 268<128 641 418 614> 1165 268<514 514 514 737> 1534 299<506 705 506 727>
VStem: 1026 326<637 928>
AnchorPoint: "Anchor-1" 756 1796 basechar 0
AnchorPoint: "Anchor-0" 596 0 basechar 0
LayerCount: 2
Fore
SplineSet
938 1833 m 1,0,-1
 987 1833 l 2,1,2
 1026 1833 1026 1833 1026 1812 c 0,3,4
 1026 1798 1026 1798 1012 1782 c 2,5,-1
 856 1573 l 2,6,7
 827 1534 827 1534 727 1534 c 2,8,-1
 705 1534 l 2,9,10
 607 1534 607 1534 584 1573 c 2,11,-1
 473 1782 l 1,12,13
 467 1798 467 1798 467 1806 c 0,14,15
 467 1833 467 1833 506 1833 c 2,16,-1
 551 1833 l 2,17,18
 649 1833 649 1833 682 1784 c 2,19,-1
 733 1702 l 1,20,-1
 797 1782 l 2,21,22
 834 1829 834 1829 938 1833 c 1,0,-1
305 1434 m 2,23,-1
 764 1434 l 2,24,25
 1051 1434 1051 1434 1201.5 1281 c 128,-1,26
 1352 1128 1352 1128 1352 842 c 0,27,28
 1352 441 1352 441 1154 220.5 c 128,-1,29
 956 0 956 0 614 0 c 2,30,-1
 156 0 l 2,31,32
 115 0 115 0 98.5 15.5 c 128,-1,33
 82 31 82 31 82 58 c 0,34,35
 82 86 82 86 215 1352 c 0,36,37
 223 1434 223 1434 305 1434 c 2,23,-1
514 1165 m 1,38,-1
 418 268 l 1,39,-1
 641 268 l 2,40,41
 819 268 819 268 922.5 410.5 c 128,-1,42
 1026 553 1026 553 1026 813 c 0,43,44
 1026 1165 1026 1165 737 1165 c 2,45,-1
 514 1165 l 1,38,-1
EndSplineSet
Position2: "'cpsp' Capital Spacing lookup 0 subtable" dx=10 dy=0 dh=20 dv=0
EndChar

StartChar: Dcroat
Encoding: 272 272 38
Width: 1425
GlyphClass: 2
Flags: MW
HStem: 0 268<128 641 418 614> 594 268<53 164 96 135 481 573> 1165 268<514 737 514 514>
VStem: 1026 326<637 928>
AnchorPoint: "Anchor-1" 713 1434 basechar 0
AnchorPoint: "Anchor-0" 596 0 basechar 0
LayerCount: 2
Fore
SplineSet
305 1434 m 2,0,-1
 764 1434 l 2,1,2
 1051 1434 1051 1434 1201.5 1281 c 128,-1,3
 1352 1128 1352 1128 1352 842 c 0,4,5
 1352 441 1352 441 1154 220.5 c 128,-1,6
 956 0 956 0 614 0 c 2,7,-1
 156 0 l 2,8,9
 115 0 115 0 98.5 15.5 c 128,-1,10
 82 31 82 31 82 52 c 0,11,12
 82 74 82 74 135 594 c 1,13,-1
 72 594 l 2,14,15
 19 594 19 594 18 676 c 0,16,17
 18 862 18 862 96 862 c 2,18,-1
 164 862 l 1,19,-1
 215 1352 l 2,20,21
 223 1434 223 1434 305 1434 c 2,0,-1
418 268 m 1,22,-1
 641 268 l 2,23,24
 819 268 819 268 922.5 410.5 c 128,-1,25
 1026 553 1026 553 1026 813 c 0,26,27
 1026 1165 1026 1165 737 1165 c 2,28,-1
 514 1165 l 1,29,-1
 481 862 l 1,30,-1
 598 862 l 2,31,32
 651 862 651 862 651 780 c 0,33,34
 651 594 651 594 573 594 c 2,35,-1
 453 594 l 1,36,-1
 418 268 l 1,22,-1
EndSplineSet
Position2: "'cpsp' Capital Spacing lookup 0 subtable" dx=10 dy=0 dh=20 dv=0
EndChar

StartChar: Ddotbelow
Encoding: 7692 7692 39
Width: 1423
GlyphClass: 2
Flags: MW
HStem: -418 254<530 588> 0 268<128 641 418 614> 1165 268<514 514 514 737>
VStem: 430 260<-374 -208> 1026 326<637 928>
AnchorPoint: "Anchor-1" 614 -168 basechar 0
AnchorPoint: "Anchor-0" 553 -416 basechar 0
LayerCount: 2
Fore
SplineSet
305 1434 m 2,0,-1
 764 1434 l 2,1,2
 1051 1434 1051 1434 1201.5 1281 c 128,-1,3
 1352 1128 1352 1128 1352 842 c 0,4,5
 1352 441 1352 441 1154 220.5 c 128,-1,6
 956 0 956 0 614 0 c 2,7,-1
 156 0 l 2,8,9
 115 0 115 0 98.5 15.5 c 128,-1,10
 82 31 82 31 82 58.5 c 128,-1,11
 82 86 82 86 215 1352 c 0,12,13
 223 1434 223 1434 305 1434 c 2,0,-1
514 1165 m 1,14,-1
 418 268 l 1,15,-1
 641 268 l 2,16,17
 819 268 819 268 922.5 410.5 c 128,-1,18
 1026 553 1026 553 1026 813 c 0,19,20
 1026 1165 1026 1165 737 1165 c 2,21,-1
 514 1165 l 1,14,-1
444 -229 m 2,22,23
 450 -163 450 -163 570 -163.5 c 128,-1,24
 690 -164 690 -164 690 -229 c 1,25,-1
 676 -352 l 1,26,27
 666 -418 666 -418 548 -418 c 128,-1,28
 430 -418 430 -418 430 -352 c 1,29,-1
 444 -229 l 2,22,23
EndSplineSet
Position2: "'cpsp' Capital Spacing lookup 0 subtable" dx=10 dy=0 dh=20 dv=0
EndChar

StartChar: Dz
Encoding: 498 498 40
Width: 2424
GlyphClass: 2
Flags: MW
HStem: 0 240<1847 2247> 831 240<1577 2341 1620 1980> 1165 268<514 514 514 737>
VStem: 1026 326<637 928>
AnchorPoint: "Anchor-1" 2007 1071 basechar 0
AnchorPoint: "Anchor-0" 1855 0 basechar 0
LayerCount: 2
Fore
SplineSet
305 1434 m 2,0,-1
 764 1434 l 2,1,2
 1051 1434 1051 1434 1201.5 1281 c 128,-1,3
 1352 1128 1352 1128 1352 842 c 0,4,5
 1352 441 1352 441 1154 220.5 c 128,-1,6
 956 0 956 0 614 0 c 2,7,-1
 156 0 l 2,8,9
 115 0 115 0 98.5 15.5 c 128,-1,10
 82 31 82 31 82 58 c 0,11,12
 82 86 82 86 215 1352 c 0,13,14
 223 1434 223 1434 305 1434 c 2,0,-1
514 1165 m 1,15,-1
 418 268 l 1,16,-1
 641 268 l 2,17,18
 819 268 819 268 922.5 410.5 c 128,-1,19
 1026 553 1026 553 1026 813 c 0,20,21
 1026 1165 1026 1165 737 1165 c 2,22,-1
 514 1165 l 1,15,-1
1620 1071 m 2,23,-1
 2341 1071 l 2,24,25
 2359 1071 2359 1071 2374.5 1019 c 128,-1,26
 2390 967 2390 967 2390 929 c 0,27,28
 2390 891 2390 891 2382 883 c 2,29,-1
 1847 240 l 1,30,-1
 2271 240 l 2,31,32
 2324 240 2324 240 2324 166 c 0,33,34
 2324 0 2324 0 2247 0 c 2,35,-1
 1487 0 l 2,36,37
 1469 0 1469 0 1453.5 52 c 128,-1,38
 1438 104 1438 104 1438 142 c 0,39,40
 1438 180 1438 180 1446 188 c 2,41,-1
 1980 831 l 1,42,-1
 1595 831 l 2,43,44
 1542 831 1542 831 1542 905 c 0,45,46
 1542 1071 1542 1071 1620 1071 c 2,23,-1
EndSplineSet
Position2: "'cpsp' Capital Spacing lookup 0 subtable" dx=10 dy=0 dh=20 dv=0
EndChar

StartChar: Dzcaron
Encoding: 453 453 41
Width: 2424
GlyphClass: 2
Flags: MW
HStem: 0 240<1847 2247> 831 240<1577 2341 1620 1980> 1165 268<514 514 514 737> 1171 299<1800 1999 1800 2021>
VStem: 1026 326<637 928>
AnchorPoint: "Anchor-1" 2050 1434 basechar 0
AnchorPoint: "Anchor-0" 1855 0 basechar 0
LayerCount: 2
Fore
SplineSet
2232 1470 m 1,0,-1
 2281 1470 l 2,1,2
 2320 1470 2320 1470 2320 1450 c 0,3,4
 2320 1436 2320 1436 2306 1419 c 2,5,-1
 2150 1210 l 2,6,7
 2121 1171 2121 1171 2021 1171 c 2,8,-1
 1999 1171 l 2,9,10
 1901 1171 1901 1171 1878 1210 c 2,11,-1
 1767 1419 l 1,12,13
 1761 1435 1761 1435 1761 1444 c 0,14,15
 1761 1471 1761 1471 1800 1470 c 2,16,-1
 1845 1470 l 2,17,18
 1943 1470 1943 1470 1976 1421 c 2,19,-1
 2028 1339 l 1,20,-1
 2091 1419 l 2,21,22
 2128 1466 2128 1466 2232 1470 c 1,0,-1
305 1434 m 2,23,-1
 764 1434 l 2,24,25
 1051 1434 1051 1434 1201.5 1281 c 128,-1,26
 1352 1128 1352 1128 1352 842 c 0,27,28
 1352 441 1352 441 1154 220.5 c 128,-1,29
 956 0 956 0 614 0 c 2,30,-1
 156 0 l 2,31,32
 115 0 115 0 98.5 15.5 c 128,-1,33
 82 31 82 31 82 58 c 0,34,35
 82 86 82 86 215 1352 c 0,36,37
 223 1434 223 1434 305 1434 c 2,23,-1
514 1165 m 1,38,-1
 418 268 l 1,39,-1
 641 268 l 2,40,41
 819 268 819 268 922.5 410.5 c 128,-1,42
 1026 553 1026 553 1026 813 c 0,43,44
 1026 1165 1026 1165 737 1165 c 2,45,-1
 514 1165 l 1,38,-1
1620 1071 m 2,46,-1
 2341 1071 l 2,47,48
 2359 1071 2359 1071 2374.5 1019 c 128,-1,49
 2390 967 2390 967 2390 929 c 0,50,51
 2390 891 2390 891 2382 883 c 2,52,-1
 1847 240 l 1,53,-1
 2271 240 l 2,54,55
 2324 240 2324 240 2324 166 c 0,56,57
 2324 0 2324 0 2247 0 c 2,58,-1
 1487 0 l 2,59,60
 1469 0 1469 0 1453.5 52 c 128,-1,61
 1438 104 1438 104 1438 142 c 0,62,63
 1438 180 1438 180 1446 188 c 2,64,-1
 1980 831 l 1,65,-1
 1595 831 l 2,66,67
 1542 831 1542 831 1542 905 c 0,68,69
 1542 1071 1542 1071 1620 1071 c 2,46,-1
EndSplineSet
Position2: "'cpsp' Capital Spacing lookup 0 subtable" dx=10 dy=0 dh=20 dv=0
EndChar

StartChar: E
Encoding: 69 69 42
Width: 1118
GlyphClass: 2
Flags: MW
HStem: 0 268<128 934 418 909> 600 268<481 915 455 940> 1165 268<514 1030 514 514> 1352 82
VStem: 82 1026
AnchorPoint: "Anchor-1" 672 1434 basechar 0
AnchorPoint: "Anchor-0" 518 0 basechar 0
LayerCount: 2
Fore
SplineSet
305 1434 m 2,0,-1
 1055 1434 l 2,1,2
 1108 1434 1108 1434 1108 1352 c 0,3,4
 1108 1166 1108 1166 1030 1165 c 2,5,-1
 514 1165 l 1,6,-1
 481 868 l 1,7,-1
 940 868 l 2,8,9
 993 868 993 868 993 786 c 0,10,11
 993 600 993 600 915 600 c 2,12,-1
 455 600 l 1,13,-1
 418 268 l 1,14,-1
 934 268 l 2,15,16
 987 268 987 268 987 186 c 0,17,18
 987 0 987 0 909 0 c 2,19,-1
 156 0 l 2,20,21
 115 0 115 0 98.5 14.5 c 128,-1,22
 82 29 82 29 82 66 c 1,23,-1
 215 1352 l 2,24,25
 223 1434 223 1434 305 1434 c 2,0,-1
EndSplineSet
Position2: "'cpsp' Capital Spacing lookup 0 subtable" dx=10 dy=0 dh=20 dv=0
EndChar

StartChar: Eacute
Encoding: 201 201 43
Width: 1118
GlyphClass: 2
Flags: MW
HStem: 0 268<128 934 418 909> 600 268<481 915 455 940> 1165 268<514 1030 514 514> 1352 82 1540 326<592 932>
VStem: 82 1026
AnchorPoint: "Anchor-1" 745 1796 basechar 0
AnchorPoint: "Anchor-0" 518 0 basechar 0
LayerCount: 2
Fore
SplineSet
651.5 1719 m 128,-1,1
 682 1763 682 1763 716 1814.5 c 128,-1,2
 750 1866 750 1866 881 1866 c 128,-1,3
 1012 1866 1012 1866 1012 1839 c 0,4,5
 1012 1825 1012 1825 1002.5 1813.5 c 128,-1,6
 993 1802 993 1802 919.5 1731.5 c 128,-1,7
 846 1661 846 1661 784.5 1600.5 c 128,-1,8
 723 1540 723 1540 614 1540 c 0,9,10
 555 1540 555 1540 555 1567 c 0,11,12
 555 1580 555 1580 572.5 1605 c 128,-1,13
 590 1630 590 1630 605.5 1652.5 c 128,-1,0
 621 1675 621 1675 651.5 1719 c 128,-1,1
305 1434 m 2,14,-1
 1055 1434 l 2,15,16
 1108 1434 1108 1434 1108 1352 c 0,17,18
 1108 1166 1108 1166 1030 1165 c 2,19,-1
 514 1165 l 1,20,-1
 481 868 l 1,21,-1
 940 868 l 2,22,23
 993 868 993 868 993 786 c 0,24,25
 993 600 993 600 915 600 c 2,26,-1
 455 600 l 1,27,-1
 418 268 l 1,28,-1
 934 268 l 2,29,30
 987 268 987 268 987 186 c 0,31,32
 987 0 987 0 909 0 c 2,33,-1
 156 0 l 2,34,35
 115 0 115 0 98.5 14.5 c 128,-1,36
 82 29 82 29 82 66 c 1,37,-1
 215 1352 l 2,38,39
 223 1434 223 1434 305 1434 c 2,14,-1
EndSplineSet
Position2: "'cpsp' Capital Spacing lookup 0 subtable" dx=10 dy=0 dh=20 dv=0
EndChar

StartChar: Ebreve
Encoding: 276 276 44
Width: 1118
GlyphClass: 2
Flags: MW
HStem: 0 268<128 934 418 909> 600 268<481 915 455 940> 1165 268<514 1030 514 514> 1352 82 1540 186<646 758 646 766>
VStem: 82 1026
AnchorPoint: "Anchor-1" 711 1767 basechar 0
AnchorPoint: "Anchor-0" 518 0 basechar 0
LayerCount: 2
Fore
SplineSet
938 1827 m 0,0,1
 1004 1827 1004 1827 1004 1778 c 0,2,3
 1004 1686 1004 1686 906.5 1613 c 128,-1,4
 809 1540 809 1540 682 1540 c 128,-1,5
 555 1540 555 1540 477 1602.5 c 128,-1,6
 399 1665 399 1665 399 1746 c 128,-1,7
 399 1827 399 1827 479 1827 c 0,8,9
 514 1827 514 1827 543 1790 c 0,10,11
 592 1727 592 1727 698 1726 c 0,12,13
 769 1726 769 1726 797 1741.5 c 128,-1,14
 825 1757 825 1757 833.5 1761 c 128,-1,15
 842 1765 842 1765 860 1783 c 2,16,-1
 879 1800 l 2,17,18
 905 1827 905 1827 938 1827 c 0,0,1
305 1434 m 2,19,-1
 1055 1434 l 2,20,21
 1108 1434 1108 1434 1108 1352 c 0,22,23
 1108 1166 1108 1166 1030 1165 c 2,24,-1
 514 1165 l 1,25,-1
 481 868 l 1,26,-1
 940 868 l 2,27,28
 993 868 993 868 993 786 c 0,29,30
 993 600 993 600 915 600 c 2,31,-1
 455 600 l 1,32,-1
 418 268 l 1,33,-1
 934 268 l 2,34,35
 987 268 987 268 987 186 c 0,36,37
 987 0 987 0 909 0 c 2,38,-1
 156 0 l 2,39,40
 115 0 115 0 98.5 14.5 c 128,-1,41
 82 29 82 29 82 66 c 1,42,-1
 215 1352 l 2,43,44
 223 1434 223 1434 305 1434 c 2,19,-1
EndSplineSet
Position2: "'cpsp' Capital Spacing lookup 0 subtable" dx=10 dy=0 dh=20 dv=0
EndChar

StartChar: Ecaron
Encoding: 282 282 45
Width: 1118
GlyphClass: 2
Flags: MW
HStem: 0 268<128 934 418 909> 600 268<481 915 455 940> 1165 268<514 1030 514 514> 1352 82 1534 299<465 664 465 686>
VStem: 82 1026
AnchorPoint: "Anchor-1" 715 1796 basechar 0
AnchorPoint: "Anchor-0" 518 0 basechar 0
LayerCount: 2
Fore
SplineSet
897 1833 m 1,0,-1
 946 1833 l 2,1,2
 985 1833 985 1833 985 1812 c 0,3,4
 985 1798 985 1798 971 1782 c 2,5,-1
 815 1573 l 2,6,7
 786 1534 786 1534 686 1534 c 2,8,-1
 664 1534 l 2,9,10
 566 1534 566 1534 543 1573 c 2,11,-1
 432 1782 l 1,12,13
 426 1798 426 1798 426 1806 c 0,14,15
 426 1833 426 1833 465 1833 c 2,16,-1
 510 1833 l 2,17,18
 608 1833 608 1833 641 1784 c 2,19,-1
 692 1702 l 1,20,-1
 756 1782 l 2,21,22
 793 1829 793 1829 897 1833 c 1,0,-1
305 1434 m 2,23,-1
 1055 1434 l 2,24,25
 1108 1434 1108 1434 1108 1352 c 0,26,27
 1108 1166 1108 1166 1030 1165 c 2,28,-1
 514 1165 l 1,29,-1
 481 868 l 1,30,-1
 940 868 l 2,31,32
 993 868 993 868 993 786 c 0,33,34
 993 600 993 600 915 600 c 2,35,-1
 455 600 l 1,36,-1
 418 268 l 1,37,-1
 934 268 l 2,38,39
 987 268 987 268 987 186 c 0,40,41
 987 0 987 0 909 0 c 2,42,-1
 156 0 l 2,43,44
 115 0 115 0 98.5 14.5 c 128,-1,45
 82 29 82 29 82 66 c 1,46,-1
 215 1352 l 2,47,48
 223 1434 223 1434 305 1434 c 2,23,-1
EndSplineSet
Position2: "'cpsp' Capital Spacing lookup 0 subtable" dx=10 dy=0 dh=20 dv=0
EndChar

StartChar: Ecircumflex
Encoding: 202 202 46
Width: 1118
GlyphClass: 2
Flags: MW
HStem: 0 268<128 934 418 909> 600 268<481 915 455 940> 1165 268<514 1030 514 514> 1352 82 1534 299<420 715 432 715 692 868 692 913>
VStem: 82 1026
AnchorPoint: "Anchor-1" 1071 1585 basechar 0
AnchorPoint: "Anchor-0" 518 0 basechar 0
LayerCount: 2
Fore
SplineSet
692 1833 m 2,0,-1
 715 1833 l 2,1,2
 813 1833 813 1833 836 1794 c 2,3,-1
 946 1585 l 1,4,5
 952 1569 952 1569 952 1561 c 0,6,7
 952 1534 952 1534 913 1534 c 2,8,-1
 868 1534 l 2,9,10
 768 1534 768 1534 737 1583 c 2,11,-1
 686 1665 l 1,12,-1
 623 1585 l 2,13,14
 584 1534 584 1534 481 1534 c 2,15,-1
 432 1534 l 2,16,17
 393 1534 393 1534 393 1554 c 0,18,19
 393 1568 393 1568 408 1585 c 2,20,-1
 563 1794 l 2,21,22
 592 1833 592 1833 692 1833 c 2,0,-1
305 1434 m 2,23,-1
 1055 1434 l 2,24,25
 1108 1434 1108 1434 1108 1352 c 0,26,27
 1108 1166 1108 1166 1030 1165 c 2,28,-1
 514 1165 l 1,29,-1
 481 868 l 1,30,-1
 940 868 l 2,31,32
 993 868 993 868 993 786 c 0,33,34
 993 600 993 600 915 600 c 2,35,-1
 455 600 l 1,36,-1
 418 268 l 1,37,-1
 934 268 l 2,38,39
 987 268 987 268 987 186 c 0,40,41
 987 0 987 0 909 0 c 2,42,-1
 156 0 l 2,43,44
 115 0 115 0 98.5 14.5 c 128,-1,45
 82 29 82 29 82 66 c 1,46,-1
 215 1352 l 2,47,48
 223 1434 223 1434 305 1434 c 2,23,-1
EndSplineSet
Position2: "'cpsp' Capital Spacing lookup 0 subtable" dx=10 dy=0 dh=20 dv=0
EndChar

StartChar: Ecircumflexacute
Encoding: 7870 7870 47
Width: 1118
GlyphClass: 2
Flags: MW
HStem: 0 268<128 934 418 909> 600 268<481 915 455 940> 1165 268<514 1030 514 514> 1352 82 1534 299<414 709 426 709 686 831 686 877>
VStem: 82 1130
AnchorPoint: "Anchor-1" 973 1698 basechar 0
AnchorPoint: "Anchor-0" 518 0 basechar 0
LayerCount: 2
Fore
SplineSet
1135 1972 m 0,0,1
 1213 1972 1213 1972 1212 1925 c 0,2,3
 1212 1892 1212 1892 1036 1718 c 0,4,5
 1001 1687 1001 1687 918 1688 c 0,6,7
 879 1688 879 1688 879 1714 c 0,8,9
 879 1726 879 1726 975 1917 c 0,10,11
 1004 1972 1004 1972 1135 1972 c 0,0,1
686 1833 m 2,12,-1
 709 1833 l 2,13,14
 791 1833 791 1833 809 1794 c 2,15,-1
 909 1585 l 2,16,17
 915 1569 915 1569 915 1561 c 0,18,19
 915 1534 915 1534 877 1534 c 2,20,-1
 831 1534 l 2,21,22
 710 1534 710 1534 700 1583 c 2,23,-1
 680 1665 l 1,24,-1
 616 1585 l 2,25,26
 577 1534 577 1534 475 1534 c 2,27,-1
 426 1534 l 2,28,29
 387 1534 387 1534 387 1554 c 0,30,31
 387 1568 387 1568 401 1585 c 2,32,-1
 557 1794 l 2,33,34
 586 1833 586 1833 686 1833 c 2,12,-1
305 1434 m 2,35,-1
 1055 1434 l 2,36,37
 1108 1434 1108 1434 1108 1352 c 0,38,39
 1108 1166 1108 1166 1030 1165 c 2,40,-1
 514 1165 l 1,41,-1
 481 868 l 1,42,-1
 940 868 l 2,43,44
 993 868 993 868 993 786 c 0,45,46
 993 600 993 600 915 600 c 2,47,-1
 455 600 l 1,48,-1
 418 268 l 1,49,-1
 934 268 l 2,50,51
 987 268 987 268 987 186 c 0,52,53
 987 0 987 0 909 0 c 2,54,-1
 156 0 l 2,55,56
 115 0 115 0 98.5 14.5 c 128,-1,57
 82 29 82 29 82 66 c 1,58,-1
 215 1352 l 2,59,60
 223 1434 223 1434 305 1434 c 2,35,-1
EndSplineSet
Position2: "'cpsp' Capital Spacing lookup 0 subtable" dx=10 dy=0 dh=20 dv=0
EndChar

StartChar: Ecircumflexdotbelow
Encoding: 7878 7878 48
Width: 1118
GlyphClass: 2
Flags: MW
HStem: -418 254<453 510> 0 268<128 934 418 909> 600 268<481 915 455 940> 1165 268<514 1030 514 514> 1352 82 1534 299<420 715 432 715 692 868 692 913>
VStem: 82 1026 352 260<-374 -208>
AnchorPoint: "Anchor-1" 537 -168 basechar 0
AnchorPoint: "Anchor-0" 475 -416 basechar 0
LayerCount: 2
Fore
SplineSet
692 1833 m 2,0,-1
 715 1833 l 2,1,2
 813 1833 813 1833 836 1794 c 2,3,-1
 946 1585 l 1,4,5
 952 1569 952 1569 952 1561 c 0,6,7
 952 1534 952 1534 913 1534 c 2,8,-1
 868 1534 l 2,9,10
 768 1534 768 1534 737 1583 c 2,11,-1
 686 1665 l 1,12,-1
 623 1585 l 2,13,14
 584 1534 584 1534 481 1534 c 2,15,-1
 432 1534 l 2,16,17
 393 1534 393 1534 393 1554 c 0,18,19
 393 1568 393 1568 408 1585 c 2,20,-1
 563 1794 l 2,21,22
 592 1833 592 1833 692 1833 c 2,0,-1
305 1434 m 2,23,-1
 1055 1434 l 2,24,25
 1108 1434 1108 1434 1108 1352 c 0,26,27
 1108 1166 1108 1166 1030 1165 c 2,28,-1
 514 1165 l 1,29,-1
 481 868 l 1,30,-1
 940 868 l 2,31,32
 993 868 993 868 993 786 c 0,33,34
 993 600 993 600 915 600 c 2,35,-1
 455 600 l 1,36,-1
 418 268 l 1,37,-1
 934 268 l 2,38,39
 987 268 987 268 987 186 c 0,40,41
 987 0 987 0 909 0 c 2,42,-1
 156 0 l 2,43,44
 115 0 115 0 98.5 14.5 c 128,-1,45
 82 29 82 29 82 66 c 1,46,-1
 215 1352 l 2,47,48
 223 1434 223 1434 305 1434 c 2,23,-1
367 -229 m 2,49,50
 373 -163 373 -163 492.5 -163.5 c 128,-1,51
 612 -164 612 -164 612 -229 c 1,52,-1
 598 -352 l 1,53,54
 588 -418 588 -418 470 -418 c 128,-1,55
 352 -418 352 -418 352 -352 c 1,56,-1
 367 -229 l 2,49,50
EndSplineSet
Position2: "'cpsp' Capital Spacing lookup 0 subtable" dx=10 dy=0 dh=20 dv=0
EndChar

StartChar: Ecircumflexgrave
Encoding: 7872 7872 49
Width: 1118
GlyphClass: 2
Flags: MW
HStem: 0 268<128 934 418 909> 600 268<481 915 455 940> 1165 268<514 1030 514 514> 1352 82 1534 299<414 709 426 709 686 831 686 877> 1690 285<803 1018>
VStem: 82 1026
AnchorPoint: "Anchor-1" 973 1698 basechar 0
AnchorPoint: "Anchor-0" 518 0 basechar 0
LayerCount: 2
Fore
SplineSet
836 1974 m 0,0,1
 986 1974 986 1974 1004 1919 c 0,2,3
 1061 1733 1061 1733 1061 1722 c 0,4,5
 1061 1689 1061 1689 986 1689.5 c 128,-1,6
 911 1690 911 1690 877 1736 c 0,7,8
 736 1923 736 1923 735 1942 c 0,9,10
 736 1974 736 1974 836 1974 c 0,0,1
686 1833 m 2,11,-1
 709 1833 l 2,12,13
 791 1833 791 1833 809 1794 c 2,14,-1
 909 1585 l 2,15,16
 915 1569 915 1569 915 1561 c 0,17,18
 915 1534 915 1534 877 1534 c 2,19,-1
 831 1534 l 2,20,21
 710 1534 710 1534 700 1583 c 2,22,-1
 680 1665 l 1,23,-1
 616 1585 l 2,24,25
 577 1534 577 1534 475 1534 c 2,26,-1
 426 1534 l 2,27,28
 387 1534 387 1534 387 1554 c 0,29,30
 387 1568 387 1568 401 1585 c 2,31,-1
 557 1794 l 2,32,33
 586 1833 586 1833 686 1833 c 2,11,-1
305 1434 m 2,34,-1
 1055 1434 l 2,35,36
 1108 1434 1108 1434 1108 1352 c 0,37,38
 1108 1166 1108 1166 1030 1165 c 2,39,-1
 514 1165 l 1,40,-1
 481 868 l 1,41,-1
 940 868 l 2,42,43
 993 868 993 868 993 786 c 0,44,45
 993 600 993 600 915 600 c 2,46,-1
 455 600 l 1,47,-1
 418 268 l 1,48,-1
 934 268 l 2,49,50
 987 268 987 268 987 186 c 0,51,52
 987 0 987 0 909 0 c 2,53,-1
 156 0 l 2,54,55
 115 0 115 0 98.5 14.5 c 128,-1,56
 82 29 82 29 82 66 c 1,57,-1
 215 1352 l 2,58,59
 223 1434 223 1434 305 1434 c 2,34,-1
EndSplineSet
Position2: "'cpsp' Capital Spacing lookup 0 subtable" dx=10 dy=0 dh=20 dv=0
EndChar

StartChar: Ecircumflexhookabove
Encoding: 7874 7874 50
Width: 1118
GlyphClass: 2
Flags: MW
HStem: 0 268<128 934 418 909> 600 268<481 915 455 940> 1165 268<514 1030 514 514> 1352 82 1534 299<414 709 426 709 686 831 686 877> 1835 143<844 1030>
VStem: 1001 143<1821 1846>
AnchorPoint: "Anchor-1" 973 1698 basechar 0
AnchorPoint: "Anchor-0" 518 0 basechar 0
LayerCount: 2
Fore
SplineSet
1001 1835 m 0,0,1
 1001 1870 1001 1870 961.5 1870 c 128,-1,2
 922 1870 922 1870 889 1852.5 c 128,-1,3
 856 1835 856 1835 852 1835 c 0,4,5
 840 1835 840 1835 820.5 1866.5 c 128,-1,6
 801 1898 801 1898 801 1920 c 128,-1,7
 801 1942 801 1942 858 1960 c 128,-1,8
 915 1978 915 1978 971 1978 c 0,9,10
 1145 1978 1145 1978 1145 1843 c 0,11,12
 1145 1786 1145 1786 1069 1739 c 128,-1,13
 993 1692 993 1692 973 1692 c 0,14,15
 889 1692 889 1692 889 1735 c 0,16,17
 889 1760 889 1760 932 1776 c 0,18,19
 979 1796 979 1796 990 1808.5 c 128,-1,20
 1001 1821 1001 1821 1001 1835 c 0,0,1
686 1833 m 2,21,-1
 709 1833 l 2,22,23
 791 1833 791 1833 809 1794 c 2,24,-1
 909 1585 l 2,25,26
 915 1569 915 1569 915 1561 c 0,27,28
 915 1534 915 1534 877 1534 c 2,29,-1
 831 1534 l 2,30,31
 710 1534 710 1534 700 1583 c 2,32,-1
 680 1665 l 1,33,-1
 616 1585 l 2,34,35
 577 1534 577 1534 475 1534 c 2,36,-1
 426 1534 l 2,37,38
 387 1534 387 1534 387 1554 c 0,39,40
 387 1568 387 1568 401 1585 c 2,41,-1
 557 1794 l 2,42,43
 586 1833 586 1833 686 1833 c 2,21,-1
305 1434 m 2,44,-1
 1055 1434 l 2,45,46
 1108 1434 1108 1434 1108 1352 c 0,47,48
 1108 1166 1108 1166 1030 1165 c 2,49,-1
 514 1165 l 1,50,-1
 481 868 l 1,51,-1
 940 868 l 2,52,53
 993 868 993 868 993 786 c 0,54,55
 993 600 993 600 915 600 c 2,56,-1
 455 600 l 1,57,-1
 418 268 l 1,58,-1
 934 268 l 2,59,60
 987 268 987 268 987 186 c 0,61,62
 987 0 987 0 909 0 c 2,63,-1
 156 0 l 2,64,65
 115 0 115 0 98.5 14.5 c 128,-1,66
 82 29 82 29 82 66 c 1,67,-1
 215 1352 l 2,68,69
 223 1434 223 1434 305 1434 c 2,44,-1
EndSplineSet
Position2: "'cpsp' Capital Spacing lookup 0 subtable" dx=10 dy=0 dh=20 dv=0
EndChar

StartChar: Ecircumflextilde
Encoding: 7876 7876 51
Width: 1118
GlyphClass: 2
Flags: MW
HStem: 0 268<128 934 418 909> 600 268<481 915 455 940> 1165 268<514 1030 514 514> 1352 82 1534 250<440 723 700 877 700 922> 1849 176<837 863> 1874 205
VStem: 82 1026
AnchorPoint: "Anchor-1" 717 1796 basechar 0
AnchorPoint: "Anchor-0" 518 0 basechar 0
LayerCount: 2
Fore
SplineSet
625 2079 m 0,0,1
 691 2079 691 2079 753 2052 c 128,-1,2
 815 2025 815 2025 861 2025 c 128,-1,3
 907 2025 907 2025 954 2057 c 128,-1,4
 1001 2089 1001 2089 1036 2040 c 0,5,6
 1054 2017 1054 2017 1052.5 1993.5 c 128,-1,7
 1051 1970 1051 1970 1022 1933 c 0,8,9
 944 1849 944 1849 825 1849 c 0,10,11
 755 1849 755 1849 685.5 1876 c 128,-1,12
 616 1903 616 1903 585.5 1903 c 128,-1,13
 555 1903 555 1903 509 1876 c 128,-1,14
 463 1849 463 1849 430 1902.5 c 128,-1,15
 397 1956 397 1956 434 1995 c 0,16,17
 529 2079 529 2079 625 2079 c 0,0,1
700 1784 m 2,18,-1
 723 1784 l 2,19,20
 813 1784 813 1784 844 1745 c 1,21,-1
 954 1585 l 1,22,23
 960 1569 960 1569 961 1561 c 0,24,25
 961 1534 961 1534 922 1534 c 2,26,-1
 877 1534 l 2,27,28
 822 1534 822 1534 745 1583 c 1,29,-1
 694 1636 l 1,30,-1
 631 1585 l 1,31,32
 617 1579 617 1579 595 1567.5 c 128,-1,33
 573 1556 573 1556 561 1550 c 0,34,35
 528 1534 528 1534 489 1534 c 2,36,-1
 440 1534 l 2,37,38
 401 1534 401 1534 401 1554 c 0,39,40
 401 1568 401 1568 416 1585 c 2,41,-1
 571 1745 l 1,42,43
 612 1784 612 1784 700 1784 c 2,18,-1
305 1434 m 2,44,-1
 1055 1434 l 2,45,46
 1108 1434 1108 1434 1108 1352 c 0,47,48
 1108 1166 1108 1166 1030 1165 c 2,49,-1
 514 1165 l 1,50,-1
 481 868 l 1,51,-1
 940 868 l 2,52,53
 993 868 993 868 993 786 c 0,54,55
 993 600 993 600 915 600 c 2,56,-1
 455 600 l 1,57,-1
 418 268 l 1,58,-1
 934 268 l 2,59,60
 987 268 987 268 987 186 c 0,61,62
 987 0 987 0 909 0 c 2,63,-1
 156 0 l 2,64,65
 115 0 115 0 98.5 14.5 c 128,-1,66
 82 29 82 29 82 66 c 1,67,-1
 215 1352 l 2,68,69
 223 1434 223 1434 305 1434 c 2,44,-1
EndSplineSet
Position2: "'cpsp' Capital Spacing lookup 0 subtable" dx=10 dy=0 dh=20 dv=0
EndChar

StartChar: Edieresis
Encoding: 203 203 52
Width: 1118
GlyphClass: 2
Flags: MW
HStem: 0 268<128 934 418 909> 600 268<481 915 455 940> 1165 268<514 1030 514 514> 1352 82 1546 254<485 543 854 911>
VStem: 82 1026 385 260<1590 1756> 754 260<1590 1756>
AnchorPoint: "Anchor-1" 719 1796 basechar 0
AnchorPoint: "Anchor-0" 518 0 basechar 0
LayerCount: 2
Fore
SplineSet
399 1735 m 2,0,1
 405 1801 405 1801 525 1800.5 c 128,-1,2
 645 1800 645 1800 645 1735 c 1,3,-1
 631 1612 l 1,4,5
 621 1546 621 1546 503 1546 c 128,-1,6
 385 1546 385 1546 385 1612 c 1,7,-1
 399 1735 l 2,0,1
768 1735 m 2,8,9
 774 1801 774 1801 894 1800.5 c 128,-1,10
 1014 1800 1014 1800 1014 1735 c 1,11,-1
 999 1612 l 1,12,13
 989 1546 989 1546 871.5 1546 c 128,-1,14
 754 1546 754 1546 754 1612 c 1,15,-1
 768 1735 l 2,8,9
305 1434 m 2,16,-1
 1055 1434 l 2,17,18
 1108 1434 1108 1434 1108 1352 c 0,19,20
 1108 1166 1108 1166 1030 1165 c 2,21,-1
 514 1165 l 1,22,-1
 481 868 l 1,23,-1
 940 868 l 2,24,25
 993 868 993 868 993 786 c 0,26,27
 993 600 993 600 915 600 c 2,28,-1
 455 600 l 1,29,-1
 418 268 l 1,30,-1
 934 268 l 2,31,32
 987 268 987 268 987 186 c 0,33,34
 987 0 987 0 909 0 c 2,35,-1
 156 0 l 2,36,37
 115 0 115 0 98.5 14.5 c 128,-1,38
 82 29 82 29 82 66 c 1,39,-1
 215 1352 l 2,40,41
 223 1434 223 1434 305 1434 c 2,16,-1
EndSplineSet
Position2: "'cpsp' Capital Spacing lookup 0 subtable" dx=10 dy=0 dh=20 dv=0
EndChar

StartChar: Edotaccent
Encoding: 278 278 53
Width: 1118
GlyphClass: 2
Flags: MW
HStem: 0 268<128 934 418 909> 600 268<481 915 455 940> 1165 268<514 1030 514 514> 1352 82 1546 254<641 698>
VStem: 82 1026 541 260<1590 1756>
AnchorPoint: "Anchor-1" 725 1796 basechar 0
AnchorPoint: "Anchor-0" 518 0 basechar 0
LayerCount: 2
Fore
SplineSet
555 1735 m 2,0,1
 561 1801 561 1801 681 1800.5 c 128,-1,2
 801 1800 801 1800 801 1735 c 1,3,-1
 786 1612 l 1,4,5
 776 1546 776 1546 658.5 1546 c 128,-1,6
 541 1546 541 1546 541 1612 c 1,7,-1
 555 1735 l 2,0,1
305 1434 m 2,8,-1
 1055 1434 l 2,9,10
 1108 1434 1108 1434 1108 1352 c 0,11,12
 1108 1166 1108 1166 1030 1165 c 2,13,-1
 514 1165 l 1,14,-1
 481 868 l 1,15,-1
 940 868 l 2,16,17
 993 868 993 868 993 786 c 0,18,19
 993 600 993 600 915 600 c 2,20,-1
 455 600 l 1,21,-1
 418 268 l 1,22,-1
 934 268 l 2,23,24
 987 268 987 268 987 186 c 0,25,26
 987 0 987 0 909 0 c 2,27,-1
 156 0 l 2,28,29
 115 0 115 0 98.5 14.5 c 128,-1,30
 82 29 82 29 82 66 c 1,31,-1
 215 1352 l 2,32,33
 223 1434 223 1434 305 1434 c 2,8,-1
EndSplineSet
Position2: "'cpsp' Capital Spacing lookup 0 subtable" dx=10 dy=0 dh=20 dv=0
EndChar

StartChar: Edotbelow
Encoding: 7864 7864 54
Width: 1118
GlyphClass: 2
Flags: MW
HStem: -418 254<453 510> 0 268<128 934 418 909> 600 268<481 915 455 940> 1165 268<514 1030 514 514> 1352 82
VStem: 82 1026 352 260<-374 -208>
AnchorPoint: "Anchor-1" 537 -168 basechar 0
AnchorPoint: "Anchor-0" 475 -416 basechar 0
LayerCount: 2
Fore
SplineSet
305 1434 m 2,0,-1
 1055 1434 l 2,1,2
 1108 1434 1108 1434 1108 1352 c 0,3,4
 1108 1166 1108 1166 1030 1165 c 2,5,-1
 514 1165 l 1,6,-1
 481 868 l 1,7,-1
 940 868 l 2,8,9
 993 868 993 868 993 786 c 0,10,11
 993 600 993 600 915 600 c 2,12,-1
 455 600 l 1,13,-1
 418 268 l 1,14,-1
 934 268 l 2,15,16
 987 268 987 268 987 186 c 0,17,18
 987 0 987 0 909 0 c 2,19,-1
 156 0 l 2,20,21
 115 0 115 0 98.5 14.5 c 128,-1,22
 82 29 82 29 82 66 c 1,23,-1
 215 1352 l 2,24,25
 223 1434 223 1434 305 1434 c 2,0,-1
367 -229 m 2,26,27
 373 -163 373 -163 492.5 -163.5 c 128,-1,28
 612 -164 612 -164 612 -229 c 1,29,-1
 598 -352 l 1,30,31
 588 -418 588 -418 470 -418 c 128,-1,32
 352 -418 352 -418 352 -352 c 1,33,-1
 367 -229 l 2,26,27
EndSplineSet
Position2: "'cpsp' Capital Spacing lookup 0 subtable" dx=10 dy=0 dh=20 dv=0
EndChar

StartChar: Egrave
Encoding: 200 200 55
Width: 1118
GlyphClass: 2
Flags: MW
HStem: 0 268<128 934 418 909> 600 268<481 915 455 940> 1165 268<514 1030 514 514> 1352 82 1540 326<485 762>
VStem: 82 1026
AnchorPoint: "Anchor-1" 709 1796 basechar 0
AnchorPoint: "Anchor-0" 518 0 basechar 0
LayerCount: 2
Fore
SplineSet
401 1833 m 0,0,1
 401 1866 401 1866 535.5 1866 c 128,-1,2
 670 1866 670 1866 696 1810 c 0,3,4
 716 1767 716 1767 736 1726.5 c 128,-1,5
 756 1686 756 1686 767 1663 c 128,-1,6
 778 1640 778 1640 787 1620 c 0,7,8
 804 1581 804 1581 805 1573 c 0,9,10
 805 1540 805 1540 719 1540 c 128,-1,11
 633 1540 633 1540 588 1595.5 c 128,-1,12
 543 1651 543 1651 472 1735 c 128,-1,13
 401 1819 401 1819 401 1833 c 0,0,1
305 1434 m 2,14,-1
 1055 1434 l 2,15,16
 1108 1434 1108 1434 1108 1352 c 0,17,18
 1108 1166 1108 1166 1030 1165 c 2,19,-1
 514 1165 l 1,20,-1
 481 868 l 1,21,-1
 940 868 l 2,22,23
 993 868 993 868 993 786 c 0,24,25
 993 600 993 600 915 600 c 2,26,-1
 455 600 l 1,27,-1
 418 268 l 1,28,-1
 934 268 l 2,29,30
 987 268 987 268 987 186 c 0,31,32
 987 0 987 0 909 0 c 2,33,-1
 156 0 l 2,34,35
 115 0 115 0 98.5 14.5 c 128,-1,36
 82 29 82 29 82 66 c 1,37,-1
 215 1352 l 2,38,39
 223 1434 223 1434 305 1434 c 2,14,-1
EndSplineSet
Position2: "'cpsp' Capital Spacing lookup 0 subtable" dx=10 dy=0 dh=20 dv=0
EndChar

StartChar: Ehookabove
Encoding: 7866 7866 56
Width: 1118
GlyphClass: 2
Flags: MW
HStem: 0 268<128 934 418 909> 600 268<481 915 455 940> 1165 268<514 1030 514 514> 1352 82 1776 125<687 714>
VStem: 760 178<1696 1745>
AnchorPoint: "Anchor-1" 709 1796 basechar 0
AnchorPoint: "Anchor-0" 518 0 basechar 0
LayerCount: 2
Fore
SplineSet
760 1731 m 0,0,1
 760 1776 760 1776 694 1776 c 0,2,3
 667 1776 667 1776 638.5 1763.5 c 128,-1,4
 610 1751 610 1751 604 1751 c 0,5,6
 592 1751 592 1751 572.5 1783 c 128,-1,7
 553 1815 553 1815 553 1836 c 0,8,9
 553 1858 553 1858 611.5 1879.5 c 128,-1,10
 670 1901 670 1901 746 1901 c 0,11,12
 823 1901 823 1901 880.5 1856.5 c 128,-1,13
 938 1812 938 1812 938 1742.5 c 128,-1,14
 938 1673 938 1673 852 1601.5 c 128,-1,15
 766 1530 766 1530 720 1530 c 0,16,17
 674 1530 674 1530 643 1543 c 128,-1,18
 612 1556 612 1556 612 1575 c 0,19,20
 612 1593 612 1593 686 1642.5 c 128,-1,21
 760 1692 760 1692 760 1731 c 0,0,1
305 1434 m 2,22,-1
 1055 1434 l 2,23,24
 1108 1434 1108 1434 1108 1352 c 0,25,26
 1108 1166 1108 1166 1030 1165 c 2,27,-1
 514 1165 l 1,28,-1
 481 868 l 1,29,-1
 940 868 l 2,30,31
 993 868 993 868 993 786 c 0,32,33
 993 600 993 600 915 600 c 2,34,-1
 455 600 l 1,35,-1
 418 268 l 1,36,-1
 934 268 l 2,37,38
 987 268 987 268 987 186 c 0,39,40
 987 0 987 0 909 0 c 2,41,-1
 156 0 l 2,42,43
 115 0 115 0 98.5 14.5 c 128,-1,44
 82 29 82 29 82 66 c 1,45,-1
 215 1352 l 2,46,47
 223 1434 223 1434 305 1434 c 2,22,-1
EndSplineSet
Position2: "'cpsp' Capital Spacing lookup 0 subtable" dx=10 dy=0 dh=20 dv=0
EndChar

StartChar: Emacron
Encoding: 274 274 57
Width: 1118
GlyphClass: 2
Flags: MW
HStem: 0 268<128 934 418 909> 600 268<481 915 455 940> 1165 268<514 1030 514 514> 1352 82 1585 195<455 938 496 915>
VStem: 82 1026
AnchorPoint: "Anchor-1" 731 1796 basechar 0
AnchorPoint: "Anchor-0" 518 0 basechar 0
LayerCount: 2
Fore
SplineSet
496 1780 m 2,0,-1
 938 1780 l 2,1,2
 991 1780 991 1780 991 1718 c 0,3,4
 991 1585 991 1585 915 1585 c 2,5,-1
 473 1585 l 2,6,7
 420 1585 420 1585 420 1647 c 0,8,9
 420 1780 420 1780 496 1780 c 2,0,-1
305 1434 m 2,10,-1
 1055 1434 l 2,11,12
 1108 1434 1108 1434 1108 1352 c 0,13,14
 1108 1166 1108 1166 1030 1165 c 2,15,-1
 514 1165 l 1,16,-1
 481 868 l 1,17,-1
 940 868 l 2,18,19
 993 868 993 868 993 786 c 0,20,21
 993 600 993 600 915 600 c 2,22,-1
 455 600 l 1,23,-1
 418 268 l 1,24,-1
 934 268 l 2,25,26
 987 268 987 268 987 186 c 0,27,28
 987 0 987 0 909 0 c 2,29,-1
 156 0 l 2,30,31
 115 0 115 0 98.5 14.5 c 128,-1,32
 82 29 82 29 82 66 c 1,33,-1
 215 1352 l 2,34,35
 223 1434 223 1434 305 1434 c 2,10,-1
EndSplineSet
Position2: "'cpsp' Capital Spacing lookup 0 subtable" dx=10 dy=0 dh=20 dv=0
EndChar

StartChar: Eogonek
Encoding: 280 280 58
Width: 1118
GlyphClass: 2
Flags: MW
HStem: -375 143<969 993> 0 268<128 934 418 801 909 934 934 939> 600 268<481 915 455 940> 1165 268<514 1030 514 514> 1352 82
VStem: 731 141<-184 -166>
AnchorPoint: "Anchor-1" 672 1434 basechar 0
AnchorPoint: "Anchor-0" 819 -416 basechar 0
LayerCount: 2
Fore
SplineSet
1110 -203 m 0,0,1
 1133 -203 1133 -203 1133 -263 c 0,2,3
 1133 -323 1133 -323 1079.5 -349 c 128,-1,4
 1026 -375 1026 -375 952 -375 c 0,5,6
 825 -375 825 -375 778 -319.5 c 128,-1,7
 731 -264 731 -264 731 -193 c 0,8,9
 731 -64 731 -64 801 0 c 1,10,-1
 156 0 l 2,11,12
 115 0 115 0 98.5 14.5 c 128,-1,13
 82 29 82 29 82 66 c 1,14,-1
 215 1352 l 2,15,16
 223 1434 223 1434 305 1434 c 2,17,-1
 1055 1434 l 2,18,19
 1108 1434 1108 1434 1108 1352 c 0,20,21
 1108 1166 1108 1166 1030 1165 c 2,22,-1
 514 1165 l 1,23,-1
 481 868 l 1,24,-1
 940 868 l 2,25,26
 993 868 993 868 993 786 c 0,27,28
 993 600 993 600 915 600 c 2,29,-1
 455 600 l 1,30,-1
 418 268 l 1,31,-1
 934 268 l 2,32,33
 987 268 987 268 987 186 c 0,34,35
 987 0 987 0 909 0 c 1,36,-1
 909 -6 l 2,37,38
 909 -18 909 -18 890.5 -60 c 128,-1,39
 872 -102 872 -102 872 -143 c 0,40,41
 872 -231 872 -231 991 -231 c 0,42,43
 1028 -231 1028 -231 1067 -217 c 128,-1,44
 1106 -203 1106 -203 1110 -203 c 0,0,1
EndSplineSet
Position2: "'cpsp' Capital Spacing lookup 0 subtable" dx=10 dy=0 dh=20 dv=0
EndChar

StartChar: Etilde
Encoding: 7868 7868 59
Width: 1118
GlyphClass: 2
Flags: MW
HStem: 0 268<128 934 418 909> 600 268<481 915 455 940> 1165 268<514 1030 514 514> 1352 82 1552 176<810 839> 1577 205
VStem: 82 1026
AnchorPoint: "Anchor-1" 721 1796 basechar 0
AnchorPoint: "Anchor-0" 518 0 basechar 0
LayerCount: 2
Fore
SplineSet
367 1698 m 0,0,1
 473 1782 473 1782 561 1782 c 128,-1,2
 649 1782 649 1782 717.5 1755.5 c 128,-1,3
 786 1729 786 1729 837.5 1729 c 128,-1,4
 889 1729 889 1729 941 1760.5 c 128,-1,5
 993 1792 993 1792 1030 1743 c 0,6,7
 1050 1720 1050 1720 1047 1696.5 c 128,-1,8
 1044 1673 1044 1673 1014 1636 c 0,9,10
 930 1552 930 1552 797 1552 c 0,11,12
 721 1552 721 1552 643 1579 c 128,-1,13
 565 1606 565 1606 532.5 1606 c 128,-1,14
 500 1606 500 1606 449.5 1579 c 128,-1,15
 399 1552 399 1552 363.5 1605.5 c 128,-1,16
 328 1659 328 1659 367 1698 c 0,0,1
305 1434 m 2,17,-1
 1055 1434 l 2,18,19
 1108 1434 1108 1434 1108 1352 c 0,20,21
 1108 1166 1108 1166 1030 1165 c 2,22,-1
 514 1165 l 1,23,-1
 481 868 l 1,24,-1
 940 868 l 2,25,26
 993 868 993 868 993 786 c 0,27,28
 993 600 993 600 915 600 c 2,29,-1
 455 600 l 1,30,-1
 418 268 l 1,31,-1
 934 268 l 2,32,33
 987 268 987 268 987 186 c 0,34,35
 987 0 987 0 909 0 c 2,36,-1
 156 0 l 2,37,38
 115 0 115 0 98.5 14.5 c 128,-1,39
 82 29 82 29 82 66 c 1,40,-1
 215 1352 l 2,41,42
 223 1434 223 1434 305 1434 c 2,17,-1
EndSplineSet
Position2: "'cpsp' Capital Spacing lookup 0 subtable" dx=10 dy=0 dh=20 dv=0
EndChar

StartChar: F
Encoding: 70 70 60
Width: 1030
GlyphClass: 2
Flags: MW
HStem: 598 268<487 899 461 924> 1165 268<520 973 520 520>
VStem: 86 965
LayerCount: 2
Fore
SplineSet
311 1434 m 2,0,-1
 997 1434 l 2,1,2
 1050 1434 1050 1434 1051 1352 c 0,3,4
 1051 1166 1051 1166 973 1165 c 2,5,-1
 520 1165 l 1,6,-1
 487 866 l 1,7,-1
 924 866 l 2,8,9
 977 866 977 866 977 784 c 0,10,11
 977 598 977 598 899 598 c 2,12,-1
 461 598 l 1,13,-1
 403 61 l 2,14,15
 397 -5 397 -5 274 -4 c 2,16,-1
 203 -4 l 2,17,18
 86 -4 86 -4 86 59 c 1,19,-1
 221 1352 l 2,20,21
 229 1434 229 1434 311 1434 c 2,0,-1
EndSplineSet
Position2: "'cpsp' Capital Spacing lookup 0 subtable" dx=10 dy=0 dh=20 dv=0
EndChar

StartChar: G
Encoding: 71 71 61
Width: 1376
GlyphClass: 2
Flags: MW
HStem: -16 268<613 745 613 760> 528 268<709 1169 752 905> 1180 270<686 915>
VStem: 84 326<493 800 493 861>
AnchorPoint: "Anchor-1" 813 1434 basechar 0
AnchorPoint: "Anchor-0" 688 0 basechar 0
LayerCount: 2
Fore
SplineSet
852 1450 m 0,0,1
 997 1450 997 1450 1132.5 1410 c 128,-1,2
 1268 1370 1268 1370 1268 1311 c 0,3,4
 1268 1268 1268 1268 1209.5 1191 c 128,-1,5
 1151 1114 1151 1114 1114 1114 c 0,6,7
 1108 1114 1108 1114 1074 1130 c 0,8,9
 973 1179 973 1179 817 1180 c 0,10,11
 618 1180 618 1180 514 1036.5 c 128,-1,12
 410 893 410 893 410 610 c 0,13,14
 410 252 410 252 717 252 c 0,15,16
 799 252 799 252 877 266 c 1,17,-1
 905 528 l 1,18,-1
 727 528 l 2,19,20
 674 528 674 528 674 610 c 0,21,22
 674 796 674 796 752 797 c 2,23,-1
 1169 797 l 2,24,25
 1210 797 1210 797 1227.5 782.5 c 128,-1,26
 1245 768 1245 768 1245 747.5 c 128,-1,27
 1245 727 1245 727 1234 626 c 0,28,29
 1195 279 1195 279 1182 145 c 0,30,31
 1176 96 1176 96 1120.5 61.5 c 128,-1,32
 1065 27 1065 27 980 11 c 0,33,34
 827 -17 827 -17 688 -16 c 0,35,36
 381 -16 381 -16 232.5 126 c 128,-1,37
 84 268 84 268 84 565 c 0,38,39
 84 1005 84 1005 280.5 1227.5 c 128,-1,40
 477 1450 477 1450 852 1450 c 0,0,1
EndSplineSet
Position2: "'cpsp' Capital Spacing lookup 0 subtable" dx=10 dy=0 dh=20 dv=0
EndChar

StartChar: Gbreve
Encoding: 286 286 62
Width: 1376
GlyphClass: 2
Flags: MW
HStem: -16 268<613 745 613 760> 528 268<709 1169 752 905> 1180 270<686 915> 1540 186<787 899 787 907>
VStem: 84 326<493 800 493 861>
AnchorPoint: "Anchor-1" 852 1767 basechar 0
AnchorPoint: "Anchor-0" 688 0 basechar 0
LayerCount: 2
Fore
SplineSet
1079 1827 m 0,0,1
 1145 1827 1145 1827 1145 1778 c 0,2,3
 1145 1686 1145 1686 1047.5 1613 c 128,-1,4
 950 1540 950 1540 823 1540 c 128,-1,5
 696 1540 696 1540 618.5 1602.5 c 128,-1,6
 541 1665 541 1665 541 1746 c 128,-1,7
 541 1827 541 1827 621 1827 c 0,8,9
 656 1827 656 1827 684 1790 c 0,10,11
 733 1727 733 1727 840 1726 c 0,12,13
 911 1726 911 1726 939 1741.5 c 128,-1,14
 967 1757 967 1757 975 1761 c 128,-1,15
 983 1765 983 1765 1001 1783 c 2,16,-1
 1020 1800 l 2,17,18
 1046 1827 1046 1827 1079 1827 c 0,0,1
852 1450 m 0,19,20
 997 1450 997 1450 1132.5 1410 c 128,-1,21
 1268 1370 1268 1370 1268 1311 c 0,22,23
 1268 1268 1268 1268 1209.5 1191 c 128,-1,24
 1151 1114 1151 1114 1114 1114 c 0,25,26
 1108 1114 1108 1114 1074 1130 c 0,27,28
 973 1179 973 1179 817 1180 c 0,29,30
 618 1180 618 1180 514 1036.5 c 128,-1,31
 410 893 410 893 410 610 c 0,32,33
 410 252 410 252 717 252 c 0,34,35
 799 252 799 252 877 266 c 1,36,-1
 905 528 l 1,37,-1
 727 528 l 2,38,39
 674 528 674 528 674 610 c 0,40,41
 674 796 674 796 752 797 c 2,42,-1
 1169 797 l 2,43,44
 1210 797 1210 797 1227.5 782.5 c 128,-1,45
 1245 768 1245 768 1245 747.5 c 128,-1,46
 1245 727 1245 727 1234 626 c 0,47,48
 1195 279 1195 279 1182 145 c 0,49,50
 1176 96 1176 96 1120.5 61.5 c 128,-1,51
 1065 27 1065 27 980 11 c 0,52,53
 827 -17 827 -17 688 -16 c 0,54,55
 381 -16 381 -16 232.5 126 c 128,-1,56
 84 268 84 268 84 565 c 0,57,58
 84 1005 84 1005 280.5 1227.5 c 128,-1,59
 477 1450 477 1450 852 1450 c 0,19,20
EndSplineSet
Position2: "'cpsp' Capital Spacing lookup 0 subtable" dx=10 dy=0 dh=20 dv=0
EndChar

StartChar: Gcircumflex
Encoding: 284 284 63
Width: 1376
GlyphClass: 2
Flags: MW
HStem: -16 268<613 745 613 760> 528 268<709 1169 752 905> 1180 270<686 915> 1534 299<561 856 573 856 834 1010 834 1055>
VStem: 84 326<493 800 493 861>
AnchorPoint: "Anchor-1" 1212 1585 basechar 0
AnchorPoint: "Anchor-0" 688 0 basechar 0
LayerCount: 2
Fore
SplineSet
834 1833 m 2,0,-1
 856 1833 l 2,1,2
 954 1833 954 1833 977 1794 c 2,3,-1
 1087 1585 l 1,4,5
 1093 1569 1093 1569 1094 1561 c 0,6,7
 1094 1534 1094 1534 1055 1534 c 2,8,-1
 1010 1534 l 2,9,10
 910 1534 910 1534 879 1583 c 2,11,-1
 827 1665 l 1,12,-1
 764 1585 l 2,13,14
 725 1534 725 1534 623 1534 c 2,15,-1
 573 1534 l 2,16,17
 534 1534 534 1534 535 1554 c 0,18,19
 535 1568 535 1568 549 1585 c 2,20,-1
 705 1794 l 2,21,22
 734 1833 734 1833 834 1833 c 2,0,-1
852 1450 m 0,23,24
 997 1450 997 1450 1132.5 1410 c 128,-1,25
 1268 1370 1268 1370 1268 1311 c 0,26,27
 1268 1268 1268 1268 1209.5 1191 c 128,-1,28
 1151 1114 1151 1114 1114 1114 c 0,29,30
 1108 1114 1108 1114 1074 1130 c 0,31,32
 973 1179 973 1179 817 1180 c 0,33,34
 618 1180 618 1180 514 1036.5 c 128,-1,35
 410 893 410 893 410 610 c 0,36,37
 410 252 410 252 717 252 c 0,38,39
 799 252 799 252 877 266 c 1,40,-1
 905 528 l 1,41,-1
 727 528 l 2,42,43
 674 528 674 528 674 610 c 0,44,45
 674 796 674 796 752 797 c 2,46,-1
 1169 797 l 2,47,48
 1210 797 1210 797 1227.5 782.5 c 128,-1,49
 1245 768 1245 768 1245 747.5 c 128,-1,50
 1245 727 1245 727 1234 626 c 0,51,52
 1195 279 1195 279 1182 145 c 0,53,54
 1176 96 1176 96 1120.5 61.5 c 128,-1,55
 1065 27 1065 27 980 11 c 0,56,57
 827 -17 827 -17 688 -16 c 0,58,59
 381 -16 381 -16 232.5 126 c 128,-1,60
 84 268 84 268 84 565 c 0,61,62
 84 1005 84 1005 280.5 1227.5 c 128,-1,63
 477 1450 477 1450 852 1450 c 0,23,24
EndSplineSet
Position2: "'cpsp' Capital Spacing lookup 0 subtable" dx=10 dy=0 dh=20 dv=0
EndChar

StartChar: Gcommaaccent
Encoding: 290 290 64
Width: 1376
GlyphClass: 2
Flags: MW
HStem: -492 387<526 705> -16 268<613 745 613 760> 528 268<709 1169 752 905> 1180 270<686 915>
VStem: 84 326<493 800 493 861> 532 264<-263 -169 -263 -167>
AnchorPoint: "Anchor-1" 813 1434 basechar 0
AnchorPoint: "Anchor-0" 655 -416 basechar 0
LayerCount: 2
Fore
SplineSet
852 1450 m 0,0,1
 997 1450 997 1450 1132.5 1410 c 128,-1,2
 1268 1370 1268 1370 1268 1311 c 0,3,4
 1268 1268 1268 1268 1209.5 1191 c 128,-1,5
 1151 1114 1151 1114 1114 1114 c 0,6,7
 1108 1114 1108 1114 1074 1130 c 0,8,9
 973 1179 973 1179 817 1180 c 0,10,11
 618 1180 618 1180 514 1036.5 c 128,-1,12
 410 893 410 893 410 610 c 0,13,14
 410 252 410 252 717 252 c 0,15,16
 799 252 799 252 877 266 c 1,17,-1
 905 528 l 1,18,-1
 727 528 l 2,19,20
 674 528 674 528 674 610 c 0,21,22
 674 796 674 796 752 797 c 2,23,-1
 1169 797 l 2,24,25
 1210 797 1210 797 1227.5 782.5 c 128,-1,26
 1245 768 1245 768 1245 747.5 c 128,-1,27
 1245 727 1245 727 1234 626 c 0,28,29
 1195 279 1195 279 1182 145 c 0,30,31
 1176 96 1176 96 1120.5 61.5 c 128,-1,32
 1065 27 1065 27 980 11 c 0,33,34
 827 -17 827 -17 688 -16 c 0,35,36
 381 -16 381 -16 232.5 126 c 128,-1,37
 84 268 84 268 84 565 c 0,38,39
 84 1005 84 1005 280.5 1227.5 c 128,-1,40
 477 1450 477 1450 852 1450 c 0,0,1
666 -104 m 2,41,-1
 705 -104 l 2,42,43
 797 -104 797 -104 797 -196.5 c 128,-1,44
 797 -289 797 -289 701.5 -390.5 c 128,-1,45
 606 -492 606 -492 545 -492 c 0,46,47
 512 -492 512 -492 483.5 -480.5 c 128,-1,48
 455 -469 455 -469 457 -452.5 c 128,-1,49
 459 -436 459 -436 478 -406 c 0,50,51
 532 -320 532 -320 532 -195 c 0,52,53
 533 -104 533 -104 666 -104 c 2,41,-1
EndSplineSet
Position2: "'cpsp' Capital Spacing lookup 0 subtable" dx=10 dy=0 dh=20 dv=0
EndChar

StartChar: Gdotaccent
Encoding: 288 288 65
Width: 1376
GlyphClass: 2
Flags: MW
HStem: -16 268<613 745 613 760> 528 268<709 1169 752 905> 1180 270<686 915> 1546 254<782 840>
VStem: 84 326<493 800 493 861> 682 260<1590 1756>
AnchorPoint: "Anchor-1" 866 1796 basechar 0
AnchorPoint: "Anchor-0" 688 0 basechar 0
LayerCount: 2
Fore
SplineSet
696 1735 m 2,0,1
 702 1801 702 1801 822 1800.5 c 128,-1,2
 942 1800 942 1800 942 1735 c 1,3,-1
 928 1612 l 1,4,5
 918 1546 918 1546 800 1546 c 128,-1,6
 682 1546 682 1546 682 1612 c 1,7,-1
 696 1735 l 2,0,1
852 1450 m 0,8,9
 997 1450 997 1450 1132.5 1410 c 128,-1,10
 1268 1370 1268 1370 1268 1311 c 0,11,12
 1268 1268 1268 1268 1209.5 1191 c 128,-1,13
 1151 1114 1151 1114 1114 1114 c 0,14,15
 1108 1114 1108 1114 1074 1130 c 0,16,17
 973 1179 973 1179 817 1180 c 0,18,19
 618 1180 618 1180 514 1036.5 c 128,-1,20
 410 893 410 893 410 610 c 0,21,22
 410 252 410 252 717 252 c 0,23,24
 799 252 799 252 877 266 c 1,25,-1
 905 528 l 1,26,-1
 727 528 l 2,27,28
 674 528 674 528 674 610 c 0,29,30
 674 796 674 796 752 797 c 2,31,-1
 1169 797 l 2,32,33
 1210 797 1210 797 1227.5 782.5 c 128,-1,34
 1245 768 1245 768 1245 747.5 c 128,-1,35
 1245 727 1245 727 1234 626 c 0,36,37
 1195 279 1195 279 1182 145 c 0,38,39
 1176 96 1176 96 1120.5 61.5 c 128,-1,40
 1065 27 1065 27 980 11 c 0,41,42
 827 -17 827 -17 688 -16 c 0,43,44
 381 -16 381 -16 232.5 126 c 128,-1,45
 84 268 84 268 84 565 c 0,46,47
 84 1005 84 1005 280.5 1227.5 c 128,-1,48
 477 1450 477 1450 852 1450 c 0,8,9
EndSplineSet
Position2: "'cpsp' Capital Spacing lookup 0 subtable" dx=10 dy=0 dh=20 dv=0
EndChar

StartChar: H
Encoding: 72 72 66
Width: 1501
GlyphClass: 2
Flags: MW
HStem: 596 270<487 1012 459 1040> 1397 41G<352 424 424 441 1223 1294 1294 1312>
VStem: 86 1325<30 1404>
AnchorPoint: "Anchor-1" 817 1434 basechar 0
AnchorPoint: "Anchor-0" 698 0 basechar 0
LayerCount: 2
Fore
SplineSet
1223 1438 m 2,0,-1
 1294 1438 l 2,1,2
 1411 1438 1411 1438 1411 1374 c 1,3,-1
 1274 61 l 2,4,5
 1268 -5 1268 -5 1145 -4 c 2,6,-1
 1073 -4 l 2,7,8
 956 -4 956 -4 956 59 c 1,9,-1
 1012 596 l 1,10,-1
 459 596 l 1,11,-1
 403 61 l 2,12,13
 397 -5 397 -5 274 -4 c 2,14,-1
 203 -4 l 2,15,16
 86 -4 86 -4 86 59 c 1,17,-1
 223 1372 l 2,18,19
 229 1438 229 1438 352 1438 c 2,20,-1
 424 1438 l 2,21,22
 541 1438 541 1438 541 1374 c 1,23,-1
 487 866 l 1,24,-1
 1040 866 l 1,25,-1
 1094 1372 l 2,26,27
 1100 1438 1100 1438 1223 1438 c 2,0,-1
EndSplineSet
Position2: "'cpsp' Capital Spacing lookup 0 subtable" dx=10 dy=0 dh=20 dv=0
EndChar

StartChar: Hbar
Encoding: 294 294 67
Width: 1501
GlyphClass: 2
Flags: MW
HStem: 596 270<487 1012 459 1040> 975 195<109 203 150 182 520 1053> 975 463<109 424 127 424 352 500 352 1053>
VStem: 213 328 1083 328
AnchorPoint: "Anchor-1" 817 1434 basechar 0
AnchorPoint: "Anchor-0" 698 0 basechar 0
LayerCount: 2
Fore
SplineSet
1391 1169 m 1,0,-1
 1411 1169 l 2,1,2
 1464 1169 1464 1169 1464 1108 c 0,3,4
 1464 975 1464 975 1389 975 c 2,5,-1
 1370 975 l 1,6,-1
 1274 61 l 2,7,8
 1268 -5 1268 -5 1145 -4 c 2,9,-1
 1073 -4 l 2,10,11
 956 -4 956 -4 956 59 c 1,12,-1
 1012 596 l 1,13,-1
 459 596 l 1,14,-1
 403 61 l 2,15,16
 397 -5 397 -5 274 -4 c 2,17,-1
 203 -4 l 2,18,19
 86 -4 86 -4 86 59 c 1,20,-1
 182 975 l 1,21,-1
 127 975 l 2,22,23
 74 975 74 975 74 1036 c 0,24,25
 74 1169 74 1169 150 1169 c 2,26,-1
 203 1169 l 1,27,-1
 223 1372 l 2,28,29
 229 1438 229 1438 352 1438 c 2,30,-1
 424 1438 l 2,31,32
 541 1438 541 1438 541 1374 c 1,33,-1
 520 1169 l 1,34,-1
 1073 1169 l 1,35,-1
 1094 1372 l 2,36,37
 1100 1438 1100 1438 1223 1438 c 2,38,-1
 1294 1438 l 2,39,40
 1411 1438 1411 1438 1411 1374 c 1,41,-1
 1391 1169 l 1,0,-1
1053 975 m 1,42,-1
 500 975 l 1,43,-1
 487 866 l 1,44,-1
 1040 866 l 1,45,-1
 1053 975 l 1,42,-1
EndSplineSet
Position2: "'cpsp' Capital Spacing lookup 0 subtable" dx=10 dy=0 dh=20 dv=0
EndChar

StartChar: Hcircumflex
Encoding: 292 292 68
Width: 1501
GlyphClass: 2
Flags: MW
HStem: 596 270<487 1012 459 1040> 1397 41G<352 424 424 441 1223 1294 1294 1312> 1534 299<565 860 578 860 838 1014 838 1059>
VStem: 86 1325<30 1404>
AnchorPoint: "Anchor-1" 1217 1585 basechar 0
AnchorPoint: "Anchor-0" 698 0 basechar 0
LayerCount: 2
Fore
SplineSet
838 1833 m 2,0,-1
 860 1833 l 2,1,2
 958 1833 958 1833 981 1794 c 2,3,-1
 1092 1585 l 1,4,5
 1098 1569 1098 1569 1098 1561 c 0,6,7
 1098 1534 1098 1534 1059 1534 c 2,8,-1
 1014 1534 l 2,9,10
 914 1534 914 1534 883 1583 c 2,11,-1
 831 1665 l 1,12,-1
 768 1585 l 2,13,14
 729 1534 729 1534 627 1534 c 2,15,-1
 578 1534 l 2,16,17
 539 1534 539 1534 539 1554 c 0,18,19
 539 1568 539 1568 553 1585 c 2,20,-1
 709 1794 l 2,21,22
 738 1833 738 1833 838 1833 c 2,0,-1
1223 1438 m 2,23,-1
 1294 1438 l 2,24,25
 1411 1438 1411 1438 1411 1374 c 1,26,-1
 1274 61 l 2,27,28
 1268 -5 1268 -5 1145 -4 c 2,29,-1
 1073 -4 l 2,30,31
 956 -4 956 -4 956 59 c 1,32,-1
 1012 596 l 1,33,-1
 459 596 l 1,34,-1
 403 61 l 2,35,36
 397 -5 397 -5 274 -4 c 2,37,-1
 203 -4 l 2,38,39
 86 -4 86 -4 86 59 c 1,40,-1
 223 1372 l 2,41,42
 229 1438 229 1438 352 1438 c 2,43,-1
 424 1438 l 2,44,45
 541 1438 541 1438 541 1374 c 1,46,-1
 487 866 l 1,47,-1
 1040 866 l 1,48,-1
 1094 1372 l 2,49,50
 1100 1438 1100 1438 1223 1438 c 2,23,-1
EndSplineSet
Position2: "'cpsp' Capital Spacing lookup 0 subtable" dx=10 dy=0 dh=20 dv=0
EndChar

StartChar: Hdotbelow
Encoding: 7716 7716 69
Width: 1501
GlyphClass: 2
Flags: MW
HStem: -418 254<633 690> 596 270<487 1012 459 1040> 1397 41G<352 424 424 441 1223 1294 1294 1312>
VStem: 86 1325<30 1404> 532 260<-374 -208>
AnchorPoint: "Anchor-1" 717 -168 basechar 0
AnchorPoint: "Anchor-0" 655 -416 basechar 0
LayerCount: 2
Fore
SplineSet
1223 1438 m 2,0,-1
 1294 1438 l 2,1,2
 1411 1438 1411 1438 1411 1374 c 1,3,-1
 1274 61 l 2,4,5
 1268 -5 1268 -5 1145 -4 c 2,6,-1
 1073 -4 l 2,7,8
 956 -4 956 -4 956 59 c 1,9,-1
 1012 596 l 1,10,-1
 459 596 l 1,11,-1
 403 61 l 2,12,13
 397 -5 397 -5 274 -4 c 2,14,-1
 203 -4 l 2,15,16
 86 -4 86 -4 86 59 c 1,17,-1
 223 1372 l 2,18,19
 229 1438 229 1438 352 1438 c 2,20,-1
 424 1438 l 2,21,22
 541 1438 541 1438 541 1374 c 1,23,-1
 487 866 l 1,24,-1
 1040 866 l 1,25,-1
 1094 1372 l 2,26,27
 1100 1438 1100 1438 1223 1438 c 2,0,-1
547 -229 m 2,28,29
 553 -163 553 -163 673 -163.5 c 128,-1,30
 793 -164 793 -164 793 -229 c 1,31,-1
 778 -352 l 1,32,33
 768 -418 768 -418 650 -418 c 128,-1,34
 532 -418 532 -418 532 -352 c 1,35,-1
 547 -229 l 2,28,29
EndSplineSet
Position2: "'cpsp' Capital Spacing lookup 0 subtable" dx=10 dy=0 dh=20 dv=0
EndChar

StartChar: I
Encoding: 73 73 70
Width: 577
GlyphClass: 2
Flags: MW
HStem: 1397 41G<328 399 399 417>
VStem: 61 455
AnchorPoint: "Anchor-1" 371 1434 basechar 0
AnchorPoint: "Anchor-0" 211 0 basechar 0
LayerCount: 2
Fore
SplineSet
328 1438 m 2,0,-1
 399 1438 l 2,1,2
 516 1438 516 1438 516 1374 c 1,3,-1
 379 61 l 2,4,5
 373 -5 373 -5 250 -4 c 2,6,-1
 178 -4 l 2,7,8
 61 -4 61 -4 61 59 c 1,9,-1
 199 1372 l 2,10,11
 205 1438 205 1438 328 1438 c 2,0,-1
EndSplineSet
Position2: "'cpsp' Capital Spacing lookup 0 subtable" dx=10 dy=0 dh=20 dv=0
EndChar

StartChar: IJ
Encoding: 306 306 71
Width: 1400
GlyphClass: 2
Flags: MW
HStem: -16 268<698 774 668 892> 1397 41G<328 399 399 417 1133 1204 1204 1222>
VStem: 61 1260
AnchorPoint: "Anchor-1" 1171 1434 basechar 0
AnchorPoint: "Anchor-0" 211 0 basechar 0
LayerCount: 2
Fore
SplineSet
328 1438 m 2,0,-1
 399 1438 l 2,1,2
 516 1438 516 1438 516 1374 c 1,3,-1
 379 61 l 2,4,5
 373 -5 373 -5 250 -4 c 2,6,-1
 178 -4 l 2,7,8
 61 -4 61 -4 61 59 c 1,9,-1
 199 1372 l 2,10,11
 205 1438 205 1438 328 1438 c 2,0,-1
1133 1438 m 2,12,-1
 1204 1438 l 2,13,14
 1321 1438 1321 1438 1321 1374 c 1,15,-1
 1219 414 l 2,16,17
 1196 211 1196 211 1078.5 97.5 c 128,-1,18
 961 -16 961 -16 752 -16 c 128,-1,19
 543 -16 543 -16 543 72 c 0,20,21
 543 271 543 271 584 270 c 0,22,23
 588 270 588 270 602 265 c 0,24,25
 639 252 639 252 722 252 c 128,-1,26
 805 252 805 252 850 302 c 128,-1,27
 895 352 895 352 907 465 c 2,28,-1
 1004 1372 l 2,29,30
 1010 1438 1010 1438 1133 1438 c 2,12,-1
EndSplineSet
Position2: "'cpsp' Capital Spacing lookup 0 subtable" dx=10 dy=0 dh=20 dv=0
EndChar

StartChar: Iacute
Encoding: 205 205 72
Width: 577
GlyphClass: 2
Flags: MW
HStem: 1397 41G<328 399 399 417> 1540 326<291 631>
VStem: 61 649
AnchorPoint: "Anchor-1" 444 1796 basechar 0
AnchorPoint: "Anchor-0" 211 0 basechar 0
LayerCount: 2
Fore
SplineSet
350 1719 m 128,-1,1
 381 1763 381 1763 415 1814.5 c 128,-1,2
 449 1866 449 1866 580 1866 c 128,-1,3
 711 1866 711 1866 711 1839 c 0,4,5
 711 1825 711 1825 701.5 1813.5 c 128,-1,6
 692 1802 692 1802 618.5 1731.5 c 128,-1,7
 545 1661 545 1661 483.5 1600.5 c 128,-1,8
 422 1540 422 1540 313 1540 c 0,9,10
 254 1540 254 1540 254 1567 c 0,11,12
 254 1580 254 1580 271.5 1605 c 128,-1,13
 289 1630 289 1630 304 1652.5 c 128,-1,0
 319 1675 319 1675 350 1719 c 128,-1,1
328 1438 m 2,14,-1
 399 1438 l 2,15,16
 516 1438 516 1438 516 1374 c 1,17,-1
 379 61 l 2,18,19
 373 -5 373 -5 250 -4 c 2,20,-1
 178 -4 l 2,21,22
 61 -4 61 -4 61 59 c 1,23,-1
 199 1372 l 2,24,25
 205 1438 205 1438 328 1438 c 2,14,-1
EndSplineSet
Position2: "'cpsp' Capital Spacing lookup 0 subtable" dx=10 dy=0 dh=20 dv=0
EndChar

StartChar: Ibreve
Encoding: 300 300 73
Width: 577
GlyphClass: 2
Flags: MW
HStem: 1397 41G<328 399 399 417> 1540 186<345 457 345 465>
VStem: 61 641
AnchorPoint: "Anchor-1" 410 1767 basechar 0
AnchorPoint: "Anchor-0" 211 0 basechar 0
LayerCount: 2
Fore
SplineSet
637 1827 m 0,0,1
 703 1827 703 1827 702 1778 c 0,2,3
 702 1686 702 1686 605 1613 c 128,-1,4
 508 1540 508 1540 381 1540 c 128,-1,5
 254 1540 254 1540 176 1602.5 c 128,-1,6
 98 1665 98 1665 98 1746 c 128,-1,7
 98 1827 98 1827 178 1827 c 0,8,9
 213 1827 213 1827 242 1790 c 0,10,11
 291 1727 291 1727 397 1726 c 0,12,13
 468 1726 468 1726 496 1741.5 c 128,-1,14
 524 1757 524 1757 532.5 1761 c 128,-1,15
 541 1765 541 1765 559 1783 c 2,16,-1
 578 1800 l 2,17,18
 604 1827 604 1827 637 1827 c 0,0,1
328 1438 m 2,19,-1
 399 1438 l 2,20,21
 516 1438 516 1438 516 1374 c 1,22,-1
 379 61 l 2,23,24
 373 -5 373 -5 250 -4 c 2,25,-1
 178 -4 l 2,26,27
 61 -4 61 -4 61 59 c 1,28,-1
 199 1372 l 2,29,30
 205 1438 205 1438 328 1438 c 2,19,-1
EndSplineSet
Position2: "'cpsp' Capital Spacing lookup 0 subtable" dx=10 dy=0 dh=20 dv=0
EndChar

StartChar: Icircumflex
Encoding: 206 206 74
Width: 577
GlyphClass: 2
Flags: MW
HStem: 1397 41G<328 399 399 417> 1534 299<119 414 131 414 391 567 391 612>
VStem: 61 590
AnchorPoint: "Anchor-1" 770 1585 basechar 0
AnchorPoint: "Anchor-0" 211 0 basechar 0
LayerCount: 2
Fore
SplineSet
391 1833 m 2,0,-1
 414 1833 l 2,1,2
 512 1833 512 1833 535 1794 c 2,3,-1
 645 1585 l 1,4,5
 651 1569 651 1569 651 1561 c 0,6,7
 651 1534 651 1534 612 1534 c 2,8,-1
 567 1534 l 2,9,10
 467 1534 467 1534 436 1583 c 2,11,-1
 385 1665 l 1,12,-1
 322 1585 l 2,13,14
 283 1534 283 1534 180 1534 c 2,15,-1
 131 1534 l 2,16,17
 92 1534 92 1534 92 1554 c 0,18,19
 92 1568 92 1568 106 1585 c 2,20,-1
 262 1794 l 2,21,22
 291 1833 291 1833 391 1833 c 2,0,-1
328 1438 m 2,23,-1
 399 1438 l 2,24,25
 516 1438 516 1438 516 1374 c 1,26,-1
 379 61 l 2,27,28
 373 -5 373 -5 250 -4 c 2,29,-1
 178 -4 l 2,30,31
 61 -4 61 -4 61 59 c 1,32,-1
 199 1372 l 2,33,34
 205 1438 205 1438 328 1438 c 2,23,-1
EndSplineSet
Position2: "'cpsp' Capital Spacing lookup 0 subtable" dx=10 dy=0 dh=20 dv=0
EndChar

StartChar: Idieresis
Encoding: 207 207 75
Width: 577
GlyphClass: 2
Flags: MW
HStem: 1397 41G<328 399 399 417> 1546 254<184 242 553 610>
VStem: 84 260<1590 1756> 453 260<1590 1756>
AnchorPoint: "Anchor-1" 418 1796 basechar 0
AnchorPoint: "Anchor-0" 211 0 basechar 0
LayerCount: 2
Fore
SplineSet
98 1735 m 2,0,1
 104 1801 104 1801 224 1800.5 c 128,-1,2
 344 1800 344 1800 344 1735 c 1,3,-1
 330 1612 l 1,4,5
 320 1546 320 1546 202 1546 c 128,-1,6
 84 1546 84 1546 84 1612 c 1,7,-1
 98 1735 l 2,0,1
467 1735 m 2,8,9
 473 1801 473 1801 593 1800.5 c 128,-1,10
 713 1800 713 1800 713 1735 c 1,11,-1
 698 1612 l 1,12,13
 688 1546 688 1546 570.5 1546 c 128,-1,14
 453 1546 453 1546 453 1612 c 1,15,-1
 467 1735 l 2,8,9
328 1438 m 2,16,-1
 399 1438 l 2,17,18
 516 1438 516 1438 516 1374 c 1,19,-1
 379 61 l 2,20,21
 373 -5 373 -5 250 -4 c 2,22,-1
 178 -4 l 2,23,24
 61 -4 61 -4 61 59 c 1,25,-1
 199 1372 l 2,26,27
 205 1438 205 1438 328 1438 c 2,16,-1
EndSplineSet
Position2: "'cpsp' Capital Spacing lookup 0 subtable" dx=10 dy=0 dh=20 dv=0
EndChar

StartChar: Idotaccent
Encoding: 304 304 76
Width: 577
GlyphClass: 2
Flags: MW
HStem: 1397 41G<328 399 399 417> 1546 254<340 397>
VStem: 240 260<1590 1756>
AnchorPoint: "Anchor-1" 424 1796 basechar 0
AnchorPoint: "Anchor-0" 211 0 basechar 0
LayerCount: 2
Fore
SplineSet
254 1735 m 2,0,1
 260 1801 260 1801 380 1800.5 c 128,-1,2
 500 1800 500 1800 500 1735 c 1,3,-1
 485 1612 l 1,4,5
 475 1546 475 1546 357.5 1546 c 128,-1,6
 240 1546 240 1546 240 1612 c 1,7,-1
 254 1735 l 2,0,1
328 1438 m 2,8,-1
 399 1438 l 2,9,10
 516 1438 516 1438 516 1374 c 1,11,-1
 379 61 l 2,12,13
 373 -5 373 -5 250 -4 c 2,14,-1
 178 -4 l 2,15,16
 61 -4 61 -4 61 59 c 1,17,-1
 199 1372 l 2,18,19
 205 1438 205 1438 328 1438 c 2,8,-1
EndSplineSet
Position2: "'cpsp' Capital Spacing lookup 0 subtable" dx=10 dy=0 dh=20 dv=0
EndChar

StartChar: Idotbelow
Encoding: 7882 7882 77
Width: 577
GlyphClass: 2
Flags: MW
HStem: -418 254<145 203> 1397 41G<328 399 399 417>
VStem: 45 260<-374 -208> 45 471
AnchorPoint: "Anchor-1" 229 -168 basechar 0
AnchorPoint: "Anchor-0" 168 -416 basechar 0
LayerCount: 2
Fore
SplineSet
328 1438 m 2,0,-1
 399 1438 l 2,1,2
 516 1438 516 1438 516 1374 c 1,3,-1
 379 61 l 2,4,5
 373 -5 373 -5 250 -4 c 2,6,-1
 178 -4 l 2,7,8
 61 -4 61 -4 61 59 c 1,9,-1
 199 1372 l 2,10,11
 205 1438 205 1438 328 1438 c 2,0,-1
59 -229 m 2,12,13
 65 -163 65 -163 185 -163.5 c 128,-1,14
 305 -164 305 -164 305 -229 c 1,15,-1
 291 -352 l 1,16,17
 281 -418 281 -418 163 -418 c 128,-1,18
 45 -418 45 -418 45 -352 c 1,19,-1
 59 -229 l 2,12,13
EndSplineSet
Position2: "'cpsp' Capital Spacing lookup 0 subtable" dx=10 dy=0 dh=20 dv=0
EndChar

StartChar: Igrave
Encoding: 204 204 78
Width: 577
GlyphClass: 2
Flags: MW
HStem: 1397 41G<328 399 399 417> 1540 326<184 461>
VStem: 61 455
AnchorPoint: "Anchor-1" 408 1796 basechar 0
AnchorPoint: "Anchor-0" 211 0 basechar 0
LayerCount: 2
Fore
SplineSet
100 1833 m 0,0,1
 100 1866 100 1866 234.5 1866 c 128,-1,2
 369 1866 369 1866 395 1810 c 0,3,4
 415 1767 415 1767 435 1726.5 c 128,-1,5
 455 1686 455 1686 466 1663 c 128,-1,6
 477 1640 477 1640 486 1620 c 0,7,8
 503 1581 503 1581 504 1573 c 0,9,10
 504 1540 504 1540 418 1540 c 128,-1,11
 332 1540 332 1540 287 1595.5 c 128,-1,12
 242 1651 242 1651 171 1735 c 128,-1,13
 100 1819 100 1819 100 1833 c 0,0,1
328 1438 m 2,14,-1
 399 1438 l 2,15,16
 516 1438 516 1438 516 1374 c 1,17,-1
 379 61 l 2,18,19
 373 -5 373 -5 250 -4 c 2,20,-1
 178 -4 l 2,21,22
 61 -4 61 -4 61 59 c 1,23,-1
 199 1372 l 2,24,25
 205 1438 205 1438 328 1438 c 2,14,-1
EndSplineSet
Position2: "'cpsp' Capital Spacing lookup 0 subtable" dx=10 dy=0 dh=20 dv=0
EndChar

StartChar: Ihookabove
Encoding: 7880 7880 79
Width: 577
GlyphClass: 2
Flags: MW
HStem: 1397 41G<328 399 399 417> 1776 125<386 413>
VStem: 459 178<1696 1745>
AnchorPoint: "Anchor-1" 408 1796 basechar 0
AnchorPoint: "Anchor-0" 211 0 basechar 0
LayerCount: 2
Fore
SplineSet
459 1731 m 0,0,1
 459 1776 459 1776 393 1776 c 0,2,3
 366 1776 366 1776 337.5 1763.5 c 128,-1,4
 309 1751 309 1751 303 1751 c 0,5,6
 291 1751 291 1751 271.5 1783 c 128,-1,7
 252 1815 252 1815 252 1836 c 0,8,9
 252 1858 252 1858 310.5 1879.5 c 128,-1,10
 369 1901 369 1901 445 1901 c 0,11,12
 522 1901 522 1901 579.5 1856.5 c 128,-1,13
 637 1812 637 1812 637 1742.5 c 128,-1,14
 637 1673 637 1673 551 1601.5 c 128,-1,15
 465 1530 465 1530 419 1530 c 0,16,17
 373 1530 373 1530 342 1543 c 128,-1,18
 311 1556 311 1556 311 1575 c 0,19,20
 311 1593 311 1593 385 1642.5 c 128,-1,21
 459 1692 459 1692 459 1731 c 0,0,1
328 1438 m 2,22,-1
 399 1438 l 2,23,24
 516 1438 516 1438 516 1374 c 1,25,-1
 379 61 l 2,26,27
 373 -5 373 -5 250 -4 c 2,28,-1
 178 -4 l 2,29,30
 61 -4 61 -4 61 59 c 1,31,-1
 199 1372 l 2,32,33
 205 1438 205 1438 328 1438 c 2,22,-1
EndSplineSet
Position2: "'cpsp' Capital Spacing lookup 0 subtable" dx=10 dy=0 dh=20 dv=0
EndChar

StartChar: Imacron
Encoding: 298 298 80
Width: 577
GlyphClass: 2
Flags: MW
HStem: 1397 41G<328 399 399 417> 1585 195<154 637 195 614>
VStem: 61 629
AnchorPoint: "Anchor-1" 430 1796 basechar 0
AnchorPoint: "Anchor-0" 211 0 basechar 0
LayerCount: 2
Fore
SplineSet
195 1780 m 2,0,-1
 637 1780 l 2,1,2
 690 1780 690 1780 690 1718 c 0,3,4
 690 1585 690 1585 614 1585 c 2,5,-1
 172 1585 l 2,6,7
 119 1585 119 1585 119 1647 c 0,8,9
 119 1780 119 1780 195 1780 c 2,0,-1
328 1438 m 2,10,-1
 399 1438 l 2,11,12
 516 1438 516 1438 516 1374 c 1,13,-1
 379 61 l 2,14,15
 373 -5 373 -5 250 -4 c 2,16,-1
 178 -4 l 2,17,18
 61 -4 61 -4 61 59 c 1,19,-1
 199 1372 l 2,20,21
 205 1438 205 1438 328 1438 c 2,10,-1
EndSplineSet
Position2: "'cpsp' Capital Spacing lookup 0 subtable" dx=10 dy=0 dh=20 dv=0
EndChar

StartChar: Iogonek
Encoding: 302 302 81
Width: 577
GlyphClass: 2
Flags: MW
HStem: -375 143<350 375> 1397 41G<328 399 399 417>
VStem: 113 141<-184 -167>
AnchorPoint: "Anchor-1" 371 1434 basechar 0
AnchorPoint: "Anchor-0" 201 -416 basechar 0
LayerCount: 2
Fore
SplineSet
492 -203 m 0,0,1
 515 -203 515 -203 514 -263 c 0,2,3
 514 -323 514 -323 461 -349 c 128,-1,4
 408 -375 408 -375 334 -375 c 0,5,6
 207 -375 207 -375 160 -319.5 c 128,-1,7
 113 -264 113 -264 113 -193 c 0,8,9
 113 -70 113 -70 178 -4 c 1,10,11
 61 -4 61 -4 61 59 c 1,12,-1
 199 1372 l 2,13,14
 205 1438 205 1438 328 1438 c 2,15,-1
 399 1438 l 2,16,17
 516 1438 516 1438 516 1374 c 1,18,-1
 379 61 l 2,19,20
 373 8 373 8 291 -2 c 1,21,-1
 291 -6 l 2,22,23
 291 -18 291 -18 272.5 -60 c 128,-1,24
 254 -102 254 -102 254 -143 c 0,25,26
 254 -231 254 -231 373 -231 c 0,27,28
 410 -231 410 -231 449 -217 c 128,-1,29
 488 -203 488 -203 492 -203 c 0,0,1
EndSplineSet
Position2: "'cpsp' Capital Spacing lookup 0 subtable" dx=10 dy=0 dh=20 dv=0
EndChar

StartChar: Itilde
Encoding: 296 296 82
Width: 577
GlyphClass: 2
Flags: MW
HStem: 1397 41G<328 399 399 417> 1552 176<495 521> 1577 205
VStem: 61 647
AnchorPoint: "Anchor-1" 414 1796 basechar 0
AnchorPoint: "Anchor-0" 211 0 basechar 0
LayerCount: 2
Fore
SplineSet
96 1698 m 0,0,1
 190 1782 190 1782 270 1782 c 128,-1,2
 350 1782 350 1782 410.5 1755.5 c 128,-1,3
 471 1729 471 1729 518 1729 c 128,-1,4
 565 1729 565 1729 611 1760.5 c 128,-1,5
 657 1792 657 1792 692 1743 c 0,6,7
 710 1720 710 1720 708.5 1696.5 c 128,-1,8
 707 1673 707 1673 678 1636 c 0,9,10
 600 1552 600 1552 483 1552 c 0,11,12
 415 1552 415 1552 345.5 1579 c 128,-1,13
 276 1606 276 1606 246.5 1606 c 128,-1,14
 217 1606 217 1606 171 1579 c 128,-1,15
 125 1552 125 1552 92 1605.5 c 128,-1,16
 59 1659 59 1659 96 1698 c 0,0,1
328 1438 m 2,17,-1
 399 1438 l 2,18,19
 516 1438 516 1438 516 1374 c 1,20,-1
 379 61 l 2,21,22
 373 -5 373 -5 250 -4 c 2,23,-1
 178 -4 l 2,24,25
 61 -4 61 -4 61 59 c 1,26,-1
 199 1372 l 2,27,28
 205 1438 205 1438 328 1438 c 2,17,-1
EndSplineSet
Position2: "'cpsp' Capital Spacing lookup 0 subtable" dx=10 dy=0 dh=20 dv=0
EndChar

StartChar: J
Encoding: 74 74 83
Width: 823
GlyphClass: 2
Flags: MW
HStem: -16 268<121 197 90 314> 1397 41G<555 627 627 644>
VStem: -35 778
AnchorPoint: "Anchor-1" 594 1434 basechar 0
AnchorPoint: "Anchor-0" 0 0 basechar 0
LayerCount: 2
Fore
SplineSet
555 1438 m 2,0,-1
 627 1438 l 2,1,2
 744 1438 744 1438 743 1374 c 1,3,-1
 641 414 l 2,4,5
 618 211 618 211 500.5 97.5 c 128,-1,6
 383 -16 383 -16 174 -16 c 128,-1,7
 -35 -16 -35 -16 -35 72 c 0,8,9
 -35 271 -35 271 6 270 c 0,10,11
 10 270 10 270 25 265 c 0,12,13
 62 252 62 252 144.5 252 c 128,-1,14
 227 252 227 252 272 302 c 128,-1,15
 317 352 317 352 330 465 c 2,16,-1
 426 1372 l 2,17,18
 432 1438 432 1438 555 1438 c 2,0,-1
EndSplineSet
Position2: "'cpsp' Capital Spacing lookup 0 subtable" dx=10 dy=0 dh=20 dv=0
EndChar

StartChar: Jcircumflex
Encoding: 308 308 84
Width: 823
GlyphClass: 2
Flags: MW
HStem: -16 268<121 197 90 314> 1397 41G<555 627 627 644> 1534 299<342 637 354 637 614 791 614 836>
VStem: -35 909
AnchorPoint: "Anchor-1" 993 1585 basechar 0
AnchorPoint: "Anchor-0" 0 0 basechar 0
LayerCount: 2
Fore
SplineSet
614 1833 m 2,0,-1
 637 1833 l 2,1,2
 735 1833 735 1833 758 1794 c 2,3,-1
 868 1585 l 1,4,5
 874 1569 874 1569 874 1561 c 0,6,7
 874 1534 874 1534 836 1534 c 2,8,-1
 791 1534 l 2,9,10
 691 1534 691 1534 659 1583 c 2,11,-1
 608 1665 l 1,12,-1
 545 1585 l 2,13,14
 506 1534 506 1534 403 1534 c 2,15,-1
 354 1534 l 2,16,17
 315 1534 315 1534 315 1554 c 0,18,19
 315 1568 315 1568 330 1585 c 2,20,-1
 485 1794 l 2,21,22
 514 1833 514 1833 614 1833 c 2,0,-1
555 1438 m 2,23,-1
 627 1438 l 2,24,25
 744 1438 744 1438 743 1374 c 1,26,-1
 641 414 l 2,27,28
 618 211 618 211 500.5 97.5 c 128,-1,29
 383 -16 383 -16 174 -16 c 128,-1,30
 -35 -16 -35 -16 -35 72 c 0,31,32
 -35 271 -35 271 6 270 c 0,33,34
 10 270 10 270 25 265 c 0,35,36
 62 252 62 252 144.5 252 c 128,-1,37
 227 252 227 252 272 302 c 128,-1,38
 317 352 317 352 330 465 c 2,39,-1
 426 1372 l 2,40,41
 432 1438 432 1438 555 1438 c 2,23,-1
EndSplineSet
Position2: "'cpsp' Capital Spacing lookup 0 subtable" dx=10 dy=0 dh=20 dv=0
EndChar

StartChar: K
Encoding: 75 75 85
Width: 1179
GlyphClass: 2
Flags: MW
HStem: 1397 41G<338 410 410 454 1020 1116 1116 1155>
VStem: 72 1157
AnchorPoint: "Anchor-1" 696 1434 basechar 0
AnchorPoint: "Anchor-0" 553 0 basechar 0
LayerCount: 2
Fore
SplineSet
1020 1438 m 2,0,-1
 1116 1438 l 2,1,2
 1229 1438 1229 1438 1229 1409 c 0,3,4
 1229 1391 1229 1391 1208 1364 c 2,5,-1
 750 758 l 1,6,-1
 1124 70 l 2,7,8
 1136 45 1136 45 1137 33 c 0,9,10
 1137 -4 1137 -4 1020 -4 c 2,11,-1
 901 -4 l 2,12,13
 799 -4 799 -4 780 35 c 2,14,-1
 459 657 l 1,15,-1
 451 655 l 1,16,-1
 389 61 l 2,17,18
 383 -5 383 -5 260 -4 c 2,19,-1
 188 -4 l 2,20,21
 71 -4 71 -4 72 61 c 1,22,-1
 209 1372 l 2,23,24
 215 1438 215 1438 338 1438 c 2,25,-1
 410 1438 l 2,26,27
 527 1438 527 1438 526 1372 c 1,28,-1
 469 823 l 1,29,-1
 477 821 l 1,30,-1
 893 1399 l 2,31,32
 922 1438 922 1438 1020 1438 c 2,0,-1
EndSplineSet
Position2: "'cpsp' Capital Spacing lookup 0 subtable" dx=10 dy=0 dh=20 dv=0
EndChar

StartChar: Kcommaaccent
Encoding: 310 310 86
Width: 1179
GlyphClass: 2
Flags: MW
HStem: -492 387<391 569> 1397 41G<338 410 410 454 1020 1116 1116 1155>
VStem: 397 264<-263 -169 -263 -167>
AnchorPoint: "Anchor-1" 696 1434 basechar 0
AnchorPoint: "Anchor-0" 520 -416 basechar 0
LayerCount: 2
Fore
SplineSet
1020 1438 m 2,0,-1
 1116 1438 l 2,1,2
 1229 1438 1229 1438 1229 1409 c 0,3,4
 1229 1391 1229 1391 1208 1364 c 2,5,-1
 750 758 l 1,6,-1
 1124 70 l 2,7,8
 1136 45 1136 45 1137 33 c 0,9,10
 1137 -4 1137 -4 1020 -4 c 2,11,-1
 901 -4 l 2,12,13
 799 -4 799 -4 780 35 c 2,14,-1
 459 657 l 1,15,-1
 451 655 l 1,16,-1
 389 61 l 2,17,18
 383 -5 383 -5 260 -4 c 2,19,-1
 188 -4 l 2,20,21
 71 -4 71 -4 72 61 c 1,22,-1
 209 1372 l 2,23,24
 215 1438 215 1438 338 1438 c 2,25,-1
 410 1438 l 2,26,27
 527 1438 527 1438 526 1372 c 1,28,-1
 469 823 l 1,29,-1
 477 821 l 1,30,-1
 893 1399 l 2,31,32
 922 1438 922 1438 1020 1438 c 2,0,-1
530 -104 m 2,33,-1
 569 -104 l 2,34,35
 661 -104 661 -104 661.5 -196.5 c 128,-1,36
 662 -289 662 -289 566.5 -390.5 c 128,-1,37
 471 -492 471 -492 410 -492 c 0,38,39
 377 -492 377 -492 348 -480.5 c 128,-1,40
 319 -469 319 -469 321.5 -452.5 c 128,-1,41
 324 -436 324 -436 343 -406 c 0,42,43
 397 -320 397 -320 397 -195 c 0,44,45
 397 -104 397 -104 530 -104 c 2,33,-1
EndSplineSet
Position2: "'cpsp' Capital Spacing lookup 0 subtable" dx=10 dy=0 dh=20 dv=0
EndChar

StartChar: L
Encoding: 76 76 87
Width: 991
GlyphClass: 2
Flags: MW
HStem: 0 268<120 868 412 844> 1397 41G<340 412 412 429>
VStem: 74 848<41 215>
AnchorPoint: "Anchor-1" 377 1434 basechar 0
AnchorPoint: "Anchor-0" 446 0 basechar 0
LayerCount: 2
Fore
SplineSet
340 1438 m 2,0,-1
 412 1438 l 2,1,2
 529 1438 529 1438 528 1374 c 1,3,-1
 412 268 l 1,4,-1
 868 268 l 2,5,6
 921 268 921 268 922 186 c 0,7,8
 922 0 922 0 844 0 c 2,9,-1
 147 0 l 2,10,11
 106 0 106 0 90 14.5 c 128,-1,12
 74 29 74 29 74 66 c 1,13,-1
 211 1372 l 2,14,15
 217 1438 217 1438 340 1438 c 2,0,-1
EndSplineSet
Position2: "'cpsp' Capital Spacing lookup 0 subtable" dx=10 dy=0 dh=20 dv=0
EndChar

StartChar: LJ
Encoding: 455 455 88
Width: 1470
GlyphClass: 2
Flags: MW
HStem: -373 268<762 838 731 955> 0 268<120 725 412 700> 1397 41G<340 412 412 429 1237 1309 1309 1326>
VStem: 74 1352<41 1404>
LayerCount: 2
Fore
SplineSet
340 1438 m 2,0,-1
 412 1438 l 2,1,2
 529 1438 529 1438 528 1374 c 1,3,-1
 412 268 l 1,4,-1
 725 268 l 2,5,6
 778 268 778 268 778 186 c 0,7,8
 778 0 778 0 700 0 c 2,9,-1
 147 0 l 2,10,11
 106 0 106 0 90 14.5 c 128,-1,12
 74 29 74 29 74 66 c 1,13,-1
 211 1372 l 2,14,15
 217 1438 217 1438 340 1438 c 2,0,-1
1237 1438 m 2,16,-1
 1309 1438 l 2,17,18
 1426 1438 1426 1438 1425 1374 c 1,19,-1
 1282 57 l 2,20,21
 1259 -146 1259 -146 1141.5 -259.5 c 128,-1,22
 1024 -373 1024 -373 815 -373 c 128,-1,23
 606 -373 606 -373 606 -285 c 0,24,25
 606 -86 606 -86 647 -86 c 0,26,27
 651 -86 651 -86 666 -90 c 0,28,29
 716 -104 716 -104 792 -104 c 0,30,31
 947 -104 947 -104 971 109 c 2,32,-1
 1108 1372 l 2,33,34
 1114 1438 1114 1438 1237 1438 c 2,16,-1
EndSplineSet
Position2: "'cpsp' Capital Spacing lookup 0 subtable" dx=10 dy=0 dh=20 dv=0
EndChar

StartChar: Lacute
Encoding: 313 313 89
Width: 991
GlyphClass: 2
Flags: MW
HStem: 0 268<120 868 412 844> 1397 41G<340 412 412 429> 1540 326<297 637>
VStem: 74 848<41 215>
AnchorPoint: "Anchor-1" 451 1796 basechar 0
AnchorPoint: "Anchor-0" 446 0 basechar 0
LayerCount: 2
Fore
SplineSet
356.5 1719 m 128,-1,1
 387 1763 387 1763 421 1814.5 c 128,-1,2
 455 1866 455 1866 586 1866 c 128,-1,3
 717 1866 717 1866 717 1839 c 0,4,5
 717 1825 717 1825 707.5 1813.5 c 128,-1,6
 698 1802 698 1802 624.5 1731.5 c 128,-1,7
 551 1661 551 1661 489.5 1600.5 c 128,-1,8
 428 1540 428 1540 319 1540 c 0,9,10
 260 1540 260 1540 260 1567 c 0,11,12
 260 1580 260 1580 277.5 1605 c 128,-1,13
 295 1630 295 1630 310.5 1652.5 c 128,-1,0
 326 1675 326 1675 356.5 1719 c 128,-1,1
340 1438 m 2,14,-1
 412 1438 l 2,15,16
 529 1438 529 1438 528 1374 c 1,17,-1
 412 268 l 1,18,-1
 868 268 l 2,19,20
 921 268 921 268 922 186 c 0,21,22
 922 0 922 0 844 0 c 2,23,-1
 147 0 l 2,24,25
 106 0 106 0 90 14.5 c 128,-1,26
 74 29 74 29 74 66 c 1,27,-1
 211 1372 l 2,28,29
 217 1438 217 1438 340 1438 c 2,14,-1
EndSplineSet
Position2: "'cpsp' Capital Spacing lookup 0 subtable" dx=10 dy=0 dh=20 dv=0
EndChar

StartChar: Lcaron
Encoding: 317 317 90
Width: 991
GlyphClass: 2
Flags: MW
HStem: 0 268<120 868 412 844> 1393 41G<829 868 868 904> 1397 41G<340 412 412 429>
VStem: 696 264<1275 1369 1275 1371>
AnchorPoint: "Anchor-1" 377 1434 basechar 0
AnchorPoint: "Anchor-0" 446 0 basechar 0
LayerCount: 2
Fore
SplineSet
340 1438 m 2,0,-1
 412 1438 l 2,1,2
 529 1438 529 1438 528 1374 c 1,3,-1
 412 268 l 1,4,-1
 868 268 l 2,5,6
 921 268 921 268 922 186 c 0,7,8
 922 0 922 0 844 0 c 2,9,-1
 147 0 l 2,10,11
 106 0 106 0 90 14.5 c 128,-1,12
 74 29 74 29 74 66 c 1,13,-1
 211 1372 l 2,14,15
 217 1438 217 1438 340 1438 c 2,0,-1
829 1434 m 2,16,-1
 868 1434 l 2,17,18
 960 1434 960 1434 960.5 1341.5 c 128,-1,19
 961 1249 961 1249 881 1148 c 128,-1,20
 801 1047 801 1047 750 1047 c 0,21,22
 717 1047 717 1047 688 1058 c 128,-1,23
 659 1069 659 1069 660.5 1086.5 c 128,-1,24
 662 1104 662 1104 671 1136 c 0,25,26
 697 1224 697 1224 696 1343 c 0,27,28
 696 1434 696 1434 829 1434 c 2,16,-1
EndSplineSet
Position2: "'cpsp' Capital Spacing lookup 0 subtable" dx=10 dy=0 dh=20 dv=0
EndChar

StartChar: Lcommaaccent
Encoding: 315 315 91
Width: 991
GlyphClass: 2
Flags: MW
HStem: -492 387<285 463> 0 268<120 868 412 844> 1397 41G<340 412 412 429>
VStem: 291 264<-263 -169 -263 -167>
AnchorPoint: "Anchor-1" 377 1434 basechar 0
AnchorPoint: "Anchor-0" 414 -416 basechar 0
LayerCount: 2
Fore
SplineSet
340 1438 m 2,0,-1
 412 1438 l 2,1,2
 529 1438 529 1438 528 1374 c 1,3,-1
 412 268 l 1,4,-1
 868 268 l 2,5,6
 921 268 921 268 922 186 c 0,7,8
 922 0 922 0 844 0 c 2,9,-1
 147 0 l 2,10,11
 106 0 106 0 90 14.5 c 128,-1,12
 74 29 74 29 74 66 c 1,13,-1
 211 1372 l 2,14,15
 217 1438 217 1438 340 1438 c 2,0,-1
424 -104 m 2,16,-1
 463 -104 l 2,17,18
 555 -104 555 -104 555 -196.5 c 128,-1,19
 555 -289 555 -289 460 -390.5 c 128,-1,20
 365 -492 365 -492 303 -492 c 0,21,22
 270 -492 270 -492 241.5 -480.5 c 128,-1,23
 213 -469 213 -469 215 -452.5 c 128,-1,24
 217 -436 217 -436 237 -406 c 0,25,26
 291 -320 291 -320 291 -195 c 0,27,28
 291 -104 291 -104 424 -104 c 2,16,-1
EndSplineSet
Position2: "'cpsp' Capital Spacing lookup 0 subtable" dx=10 dy=0 dh=20 dv=0
EndChar

StartChar: Ldot
Encoding: 319 319 92
Width: 991
GlyphClass: 2
Flags: MW
HStem: 0 268<120 868 412 844> 592 287<640 709> 1397 41G<340 412 412 429>
VStem: 532 289<707 756>
AnchorPoint: "Anchor-1" 377 1434 basechar 0
AnchorPoint: "Anchor-0" 446 0 basechar 0
LayerCount: 2
Fore
SplineSet
340 1438 m 2,0,-1
 412 1438 l 2,1,2
 529 1438 529 1438 528 1374 c 1,3,-1
 412 268 l 1,4,-1
 868 268 l 2,5,6
 921 268 921 268 922 186 c 0,7,8
 922 0 922 0 844 0 c 2,9,-1
 147 0 l 2,10,11
 106 0 106 0 90 14.5 c 128,-1,12
 74 29 74 29 74 66 c 1,13,-1
 211 1372 l 2,14,15
 217 1438 217 1438 340 1438 c 2,0,-1
575 829.5 m 128,-1,17
 618 879 618 879 683 879 c 128,-1,18
 748 879 748 879 784.5 842 c 128,-1,19
 821 805 821 805 821 744.5 c 128,-1,20
 821 684 821 684 776 638 c 128,-1,21
 731 592 731 592 668.5 592 c 128,-1,22
 606 592 606 592 569 628 c 128,-1,23
 532 664 532 664 532 722 c 128,-1,16
 532 780 532 780 575 829.5 c 128,-1,17
EndSplineSet
Ligature2: "Ligature Substitution lookup 19 subtable" L periodcentered
Position2: "'cpsp' Capital Spacing lookup 0 subtable" dx=10 dy=0 dh=20 dv=0
EndChar

StartChar: Lj
Encoding: 456 456 93
Width: 1556
GlyphClass: 2
Flags: MW
HStem: -434 240<979 984 938 1108> 0 268<120 868 412 844> 1034 41G<1286 1343 1343 1384> 1247 297<1264 1393 1335 1362> 1397 41G<340 412 412 429>
VStem: 74 1436<41 1497> 1188 322<1294 1497>
AnchorPoint: "Anchor-1" 377 1434 basechar 0
AnchorPoint: "Anchor-0" 446 0 basechar 0
LayerCount: 2
Fore
SplineSet
1335 1544 m 2,0,-1
 1393 1544 l 2,1,2
 1450 1544 1450 1544 1479.5 1525.5 c 128,-1,3
 1509 1507 1509 1507 1509 1481 c 1,4,-1
 1491 1313 l 2,5,6
 1485 1247 1485 1247 1362 1247 c 2,7,-1
 1305 1247 l 2,8,9
 1248 1247 1248 1247 1218 1265.5 c 128,-1,10
 1188 1284 1188 1284 1188 1311 c 1,11,-1
 1206 1479 l 2,12,13
 1212 1544 1212 1544 1335 1544 c 2,0,-1
340 1438 m 2,14,-1
 412 1438 l 2,15,16
 529 1438 529 1438 528 1374 c 1,17,-1
 412 268 l 1,18,-1
 868 268 l 2,19,20
 921 268 921 268 922 186 c 0,21,22
 922 0 922 0 844 0 c 2,23,-1
 147 0 l 2,24,25
 106 0 106 0 90 14.5 c 128,-1,26
 74 29 74 29 74 66 c 1,27,-1
 211 1372 l 2,28,29
 217 1438 217 1438 340 1438 c 2,14,-1
1286 1075 m 2,30,-1
 1343 1075 l 2,31,32
 1400 1075 1400 1075 1430 1056.5 c 128,-1,33
 1460 1038 1460 1038 1460 1012 c 1,34,-1
 1343 -102 l 2,35,36
 1327 -260 1327 -260 1241 -347 c 128,-1,37
 1155 -434 1155 -434 1002 -434 c 0,38,39
 849 -434 849 -434 850 -354 c 0,40,41
 850 -184 850 -184 887 -184 c 0,42,43
 889 -184 889 -184 911.5 -189.5 c 128,-1,44
 934 -195 934 -195 958 -195 c 0,45,46
 1032 -195 1032 -195 1040 -106 c 2,47,-1
 1157 1010 l 2,48,49
 1163 1075 1163 1075 1286 1075 c 2,30,-1
EndSplineSet
Position2: "'cpsp' Capital Spacing lookup 0 subtable" dx=10 dy=0 dh=20 dv=0
EndChar

StartChar: Lslash
Encoding: 321 321 94
Width: 995
GlyphClass: 2
Flags: MW
HStem: 0 268<122 870 414 846> 1397 41G<342 414 414 431>
VStem: 41 883<133 663>
LayerCount: 2
Fore
SplineSet
342 1438 m 2,0,-1
 414 1438 l 2,1,2
 531 1438 531 1438 530 1374 c 1,3,-1
 487 973 l 1,4,-1
 676 1081 l 2,5,6
 696 1093 696 1093 709 1094 c 0,7,8
 727 1094 727 1094 727 1053 c 0,9,10
 727 955 727 955 659 918 c 2,11,-1
 471 809 l 1,12,-1
 414 268 l 1,13,-1
 870 268 l 2,14,15
 923 268 923 268 924 186 c 0,16,17
 924 0 924 0 846 0 c 2,18,-1
 150 0 l 2,19,20
 109 0 109 0 92.5 14.5 c 128,-1,21
 76 29 76 29 76 66 c 1,22,-1
 133 614 l 1,23,-1
 92 592 l 2,24,25
 72 580 72 580 59 580 c 0,26,27
 41 580 41 580 41 621 c 0,28,29
 41 715 41 715 109 756 c 2,30,-1
 150 780 l 1,31,-1
 213 1372 l 2,32,33
 219 1438 219 1438 342 1438 c 2,0,-1
EndSplineSet
Position2: "'cpsp' Capital Spacing lookup 0 subtable" dx=10 dy=0 dh=20 dv=0
EndChar

StartChar: M
Encoding: 77 77 95
Width: 1726
GlyphClass: 2
Flags: MW
HStem: 1397 41G<350 459 459 488 1442 1548 1548 1592>
VStem: 84 1581<40 1394>
LayerCount: 2
Fore
SplineSet
1442 1438 m 2,0,-1
 1548 1438 l 2,1,2
 1665 1438 1665 1438 1665 1372 c 1,3,-1
 1528 61 l 2,4,5
 1522 -5 1522 -5 1399 -4 c 2,6,-1
 1339 -4 l 2,7,8
 1222 -4 1222 -4 1223 61 c 1,9,-1
 1311 909 l 1,10,-1
 1303 911 l 1,11,-1
 950 381 l 1,12,13
 917 342 917 342 864 342 c 2,14,-1
 805 342 l 2,15,16
 754 342 754 342 727 381 c 1,17,-1
 485 911 l 1,18,-1
 477 909 l 1,19,-1
 389 61 l 2,20,21
 383 -5 383 -5 260 -4 c 2,22,-1
 201 -4 l 2,23,24
 84 -4 84 -4 84 61 c 1,25,-1
 221 1372 l 2,26,27
 227 1438 227 1438 350 1438 c 2,28,-1
 459 1438 l 2,29,30
 559 1438 559 1438 584 1382 c 2,31,-1
 877 741 l 1,32,-1
 1309 1382 l 2,33,34
 1346 1438 1346 1438 1442 1438 c 2,0,-1
EndSplineSet
Position2: "'cpsp' Capital Spacing lookup 0 subtable" dx=10 dy=0 dh=20 dv=0
EndChar

StartChar: N
Encoding: 78 78 96
Width: 1472
GlyphClass: 2
Flags: MW
HStem: 1397 41G<338 426 426 456 1223 1282 1282 1326>
VStem: 72 1327<40 1394>
AnchorPoint: "Anchor-1" 811 1434 basechar 0
AnchorPoint: "Anchor-0" 698 0 basechar 0
LayerCount: 2
Fore
SplineSet
1223 1438 m 2,0,-1
 1282 1438 l 2,1,2
 1399 1438 1399 1438 1399 1372 c 1,3,-1
 1262 61 l 2,4,5
 1256 -5 1256 -5 1133 -4 c 2,6,-1
 1055 -4 l 2,7,8
 955 -4 955 -4 924 51 c 2,9,-1
 463 891 l 1,10,-1
 377 61 l 2,11,12
 371 -5 371 -5 248 -4 c 2,13,-1
 188 -4 l 2,14,15
 71 -4 71 -4 72 61 c 1,16,-1
 209 1372 l 2,17,18
 215 1438 215 1438 338 1438 c 2,19,-1
 426 1438 l 2,20,21
 526 1438 526 1438 557 1382 c 2,22,-1
 1008 553 l 1,23,-1
 1094 1372 l 2,24,25
 1100 1438 1100 1438 1223 1438 c 2,0,-1
EndSplineSet
Position2: "'cpsp' Capital Spacing lookup 0 subtable" dx=10 dy=0 dh=20 dv=0
EndChar

StartChar: NJ
Encoding: 458 458 97
Width: 2295
GlyphClass: 2
Flags: MW
HStem: -16 268<1593 1669 1563 1787> 1397 41G<338 426 426 456 1223 1282 1282 1326 2028 2099 2099 2117>
VStem: 72 2144<40 1404>
AnchorPoint: "Anchor-1" 2066 1434 basechar 0
AnchorPoint: "Anchor-0" 698 0 basechar 0
LayerCount: 2
Fore
SplineSet
1223 1438 m 2,0,-1
 1282 1438 l 2,1,2
 1399 1438 1399 1438 1399 1372 c 1,3,-1
 1262 61 l 2,4,5
 1256 -5 1256 -5 1133 -4 c 2,6,-1
 1055 -4 l 2,7,8
 955 -4 955 -4 924 51 c 2,9,-1
 463 891 l 1,10,-1
 377 61 l 2,11,12
 371 -5 371 -5 248 -4 c 2,13,-1
 188 -4 l 2,14,15
 71 -4 71 -4 72 61 c 1,16,-1
 209 1372 l 2,17,18
 215 1438 215 1438 338 1438 c 2,19,-1
 426 1438 l 2,20,21
 526 1438 526 1438 557 1382 c 2,22,-1
 1008 553 l 1,23,-1
 1094 1372 l 2,24,25
 1100 1438 1100 1438 1223 1438 c 2,0,-1
2028 1438 m 2,26,-1
 2099 1438 l 2,27,28
 2216 1438 2216 1438 2216 1374 c 1,29,-1
 2114 414 l 2,30,31
 2091 211 2091 211 1973 97.5 c 128,-1,32
 1855 -16 1855 -16 1646.5 -16 c 128,-1,33
 1438 -16 1438 -16 1438 72 c 0,34,35
 1438 271 1438 271 1479 270 c 0,36,37
 1483 270 1483 270 1497 265 c 0,38,39
 1534 252 1534 252 1617 252 c 128,-1,40
 1700 252 1700 252 1745 302 c 128,-1,41
 1790 352 1790 352 1802 465 c 2,42,-1
 1898 1372 l 2,43,44
 1905 1438 1905 1438 2028 1438 c 2,26,-1
EndSplineSet
Position2: "'cpsp' Capital Spacing lookup 0 subtable" dx=10 dy=0 dh=20 dv=0
EndChar

StartChar: Nacute
Encoding: 323 323 98
Width: 1472
GlyphClass: 2
Flags: MW
HStem: 1397 41G<338 426 426 456 1223 1282 1282 1326> 1540 326<731 1071>
VStem: 72 1327<40 1394>
AnchorPoint: "Anchor-1" 885 1796 basechar 0
AnchorPoint: "Anchor-0" 698 0 basechar 0
LayerCount: 2
Fore
SplineSet
790.5 1719 m 128,-1,1
 821 1763 821 1763 855 1814.5 c 128,-1,2
 889 1866 889 1866 1020 1866 c 128,-1,3
 1151 1866 1151 1866 1151 1839 c 0,4,5
 1151 1825 1151 1825 1142 1813.5 c 128,-1,6
 1133 1802 1133 1802 1059 1731.5 c 128,-1,7
 985 1661 985 1661 923.5 1600.5 c 128,-1,8
 862 1540 862 1540 754 1540 c 0,9,10
 695 1540 695 1540 694 1567 c 0,11,12
 694 1580 694 1580 711.5 1605 c 128,-1,13
 729 1630 729 1630 744.5 1652.5 c 128,-1,0
 760 1675 760 1675 790.5 1719 c 128,-1,1
1223 1438 m 2,14,-1
 1282 1438 l 2,15,16
 1399 1438 1399 1438 1399 1372 c 1,17,-1
 1262 61 l 2,18,19
 1256 -5 1256 -5 1133 -4 c 2,20,-1
 1055 -4 l 2,21,22
 955 -4 955 -4 924 51 c 2,23,-1
 463 891 l 1,24,-1
 377 61 l 2,25,26
 371 -5 371 -5 248 -4 c 2,27,-1
 188 -4 l 2,28,29
 71 -4 71 -4 72 61 c 1,30,-1
 209 1372 l 2,31,32
 215 1438 215 1438 338 1438 c 2,33,-1
 426 1438 l 2,34,35
 526 1438 526 1438 557 1382 c 2,36,-1
 1008 553 l 1,37,-1
 1094 1372 l 2,38,39
 1100 1438 1100 1438 1223 1438 c 2,14,-1
EndSplineSet
Substitution2: "'locl' Localized Forms in Latin lookup 11 subtable" Nacute.loclPLK
Substitution2: "'aalt' Access All Alternates lookup 0 subtable" Nacute.loclPLK
Position2: "'cpsp' Capital Spacing lookup 0 subtable" dx=10 dy=0 dh=20 dv=0
EndChar

StartChar: Ncaron
Encoding: 327 327 99
Width: 1472
GlyphClass: 2
Flags: MW
HStem: 1397 41G<338 426 426 456 1223 1282 1282 1326> 1534 299<604 803 604 825>
VStem: 72 1327<40 1394>
AnchorPoint: "Anchor-1" 854 1796 basechar 0
AnchorPoint: "Anchor-0" 698 0 basechar 0
LayerCount: 2
Fore
SplineSet
1036 1833 m 1,0,-1
 1085 1833 l 2,1,2
 1124 1833 1124 1833 1124 1812 c 0,3,4
 1124 1798 1124 1798 1110 1782 c 2,5,-1
 954 1573 l 2,6,7
 925 1534 925 1534 825 1534 c 2,8,-1
 803 1534 l 2,9,10
 705 1534 705 1534 682 1573 c 2,11,-1
 571 1782 l 1,12,13
 565 1798 565 1798 565 1806 c 0,14,15
 565 1833 565 1833 604 1833 c 2,16,-1
 649 1833 l 2,17,18
 747 1833 747 1833 780 1784 c 2,19,-1
 831 1702 l 1,20,-1
 895 1782 l 2,21,22
 932 1829 932 1829 1036 1833 c 1,0,-1
1223 1438 m 2,23,-1
 1282 1438 l 2,24,25
 1399 1438 1399 1438 1399 1372 c 1,26,-1
 1262 61 l 2,27,28
 1256 -5 1256 -5 1133 -4 c 2,29,-1
 1055 -4 l 2,30,31
 955 -4 955 -4 924 51 c 2,32,-1
 463 891 l 1,33,-1
 377 61 l 2,34,35
 371 -5 371 -5 248 -4 c 2,36,-1
 188 -4 l 2,37,38
 71 -4 71 -4 72 61 c 1,39,-1
 209 1372 l 2,40,41
 215 1438 215 1438 338 1438 c 2,42,-1
 426 1438 l 2,43,44
 526 1438 526 1438 557 1382 c 2,45,-1
 1008 553 l 1,46,-1
 1094 1372 l 2,47,48
 1100 1438 1100 1438 1223 1438 c 2,23,-1
EndSplineSet
Position2: "'cpsp' Capital Spacing lookup 0 subtable" dx=10 dy=0 dh=20 dv=0
EndChar

StartChar: Ncommaaccent
Encoding: 325 325 100
Width: 1472
GlyphClass: 2
Flags: MW
HStem: -492 387<537 715> 1397 41G<338 426 426 456 1223 1282 1282 1326>
VStem: 543 264<-263 -169 -263 -167>
AnchorPoint: "Anchor-1" 811 1434 basechar 0
AnchorPoint: "Anchor-0" 666 -416 basechar 0
LayerCount: 2
Fore
SplineSet
1223 1438 m 2,0,-1
 1282 1438 l 2,1,2
 1399 1438 1399 1438 1399 1372 c 1,3,-1
 1262 61 l 2,4,5
 1256 -5 1256 -5 1133 -4 c 2,6,-1
 1055 -4 l 2,7,8
 955 -4 955 -4 924 51 c 2,9,-1
 463 891 l 1,10,-1
 377 61 l 2,11,12
 371 -5 371 -5 248 -4 c 2,13,-1
 188 -4 l 2,14,15
 71 -4 71 -4 72 61 c 1,16,-1
 209 1372 l 2,17,18
 215 1438 215 1438 338 1438 c 2,19,-1
 426 1438 l 2,20,21
 526 1438 526 1438 557 1382 c 2,22,-1
 1008 553 l 1,23,-1
 1094 1372 l 2,24,25
 1100 1438 1100 1438 1223 1438 c 2,0,-1
676 -104 m 2,26,-1
 715 -104 l 2,27,28
 807 -104 807 -104 807 -196.5 c 128,-1,29
 807 -289 807 -289 711.5 -390.5 c 128,-1,30
 616 -492 616 -492 555 -492 c 0,31,32
 522 -492 522 -492 493.5 -480.5 c 128,-1,33
 465 -469 465 -469 467 -452.5 c 128,-1,34
 469 -436 469 -436 488 -406 c 0,35,36
 542 -320 542 -320 543 -195 c 0,37,38
 543 -104 543 -104 676 -104 c 2,26,-1
EndSplineSet
Position2: "'cpsp' Capital Spacing lookup 0 subtable" dx=10 dy=0 dh=20 dv=0
EndChar

StartChar: Ndotaccent
Encoding: 7748 7748 101
Width: 1472
GlyphClass: 2
Flags: MW
HStem: 1397 41G<338 426 426 456 1223 1282 1282 1326> 1546 254<780 838>
VStem: 680 260<1590 1756>
AnchorPoint: "Anchor-1" 864 1796 basechar 0
AnchorPoint: "Anchor-0" 698 0 basechar 0
LayerCount: 2
Fore
SplineSet
694 1735 m 2,0,1
 700 1801 700 1801 820 1800.5 c 128,-1,2
 940 1800 940 1800 940 1735 c 1,3,-1
 926 1612 l 1,4,5
 916 1546 916 1546 798 1546 c 128,-1,6
 680 1546 680 1546 680 1612 c 1,7,-1
 694 1735 l 2,0,1
1223 1438 m 2,8,-1
 1282 1438 l 2,9,10
 1399 1438 1399 1438 1399 1372 c 1,11,-1
 1262 61 l 2,12,13
 1256 -5 1256 -5 1133 -4 c 2,14,-1
 1055 -4 l 2,15,16
 955 -4 955 -4 924 51 c 2,17,-1
 463 891 l 1,18,-1
 377 61 l 2,19,20
 371 -5 371 -5 248 -4 c 2,21,-1
 188 -4 l 2,22,23
 71 -4 71 -4 72 61 c 1,24,-1
 209 1372 l 2,25,26
 215 1438 215 1438 338 1438 c 2,27,-1
 426 1438 l 2,28,29
 526 1438 526 1438 557 1382 c 2,30,-1
 1008 553 l 1,31,-1
 1094 1372 l 2,32,33
 1100 1438 1100 1438 1223 1438 c 2,8,-1
EndSplineSet
Position2: "'cpsp' Capital Spacing lookup 0 subtable" dx=10 dy=0 dh=20 dv=0
EndChar

StartChar: Eng
Encoding: 330 330 102
Width: 1472
GlyphClass: 2
Flags: MW
HStem: -434 240<879 884 838 1008> 1397 41G<338 426 426 456 1223 1282 1282 1326>
VStem: 72 1327<40 1394>
AnchorPoint: "Anchor-1" 1214 1071 basechar 0
AnchorPoint: "Anchor-0" 0 0 basechar 0
LayerCount: 2
Fore
SplineSet
1260 61 m 1,0,-1
 1243 -102 l 2,1,2
 1227 -260 1227 -260 1141 -347 c 128,-1,3
 1055 -434 1055 -434 902.5 -434 c 128,-1,4
 750 -434 750 -434 750 -354 c 0,5,6
 750 -184 750 -184 786 -184 c 0,7,8
 788 -184 788 -184 811 -189.5 c 128,-1,9
 834 -195 834 -195 858 -195 c 0,10,11
 932 -195 932 -195 940 -106 c 2,12,-1
 952 2 l 1,13,-1
 463 891 l 1,14,-1
 377 61 l 2,15,16
 371 -5 371 -5 248 -4 c 2,17,-1
 188 -4 l 2,18,19
 71 -4 71 -4 72 61 c 1,20,-1
 209 1372 l 2,21,22
 215 1438 215 1438 338 1438 c 2,23,-1
 426 1438 l 2,24,25
 526 1438 526 1438 557 1382 c 2,26,-1
 1008 553 l 1,27,-1
 1094 1372 l 2,28,29
 1100 1438 1100 1438 1223 1438 c 2,30,-1
 1282 1438 l 2,31,32
 1399 1438 1399 1438 1399 1372 c 1,33,-1
 1260 61 l 1,0,-1
EndSplineSet
Position2: "'cpsp' Capital Spacing lookup 0 subtable" dx=10 dy=0 dh=20 dv=0
EndChar

StartChar: Nj
Encoding: 459 459 103
Width: 2037
GlyphClass: 2
Flags: MW
HStem: -434 240<1460 1465 1419 1589> 1034 41G<1767 1825 1825 1866> 1247 297<1745 1874 1817 1843> 1397 41G<338 426 426 456 1223 1282 1282 1326>
VStem: 72 1919<40 1497> 1669 322<1294 1497>
AnchorPoint: "Anchor-1" 811 1434 basechar 0
AnchorPoint: "Anchor-0" 698 0 basechar 0
LayerCount: 2
Fore
SplineSet
1817 1544 m 2,0,-1
 1874 1544 l 2,1,2
 1931 1544 1931 1544 1961 1525.5 c 128,-1,3
 1991 1507 1991 1507 1991 1481 c 1,4,-1
 1972 1313 l 2,5,6
 1966 1247 1966 1247 1843 1247 c 2,7,-1
 1786 1247 l 2,8,9
 1729 1247 1729 1247 1699 1265.5 c 128,-1,10
 1669 1284 1669 1284 1669 1311 c 1,11,-1
 1688 1479 l 2,12,13
 1694 1544 1694 1544 1817 1544 c 2,0,-1
1223 1438 m 2,14,-1
 1282 1438 l 2,15,16
 1399 1438 1399 1438 1399 1372 c 1,17,-1
 1262 61 l 2,18,19
 1256 -5 1256 -5 1133 -4 c 2,20,-1
 1055 -4 l 2,21,22
 955 -4 955 -4 924 51 c 2,23,-1
 463 891 l 1,24,-1
 377 61 l 2,25,26
 371 -5 371 -5 248 -4 c 2,27,-1
 188 -4 l 2,28,29
 71 -4 71 -4 72 61 c 1,30,-1
 209 1372 l 2,31,32
 215 1438 215 1438 338 1438 c 2,33,-1
 426 1438 l 2,34,35
 526 1438 526 1438 557 1382 c 2,36,-1
 1008 553 l 1,37,-1
 1094 1372 l 2,38,39
 1100 1438 1100 1438 1223 1438 c 2,14,-1
1767 1075 m 2,40,-1
 1825 1075 l 2,41,42
 1882 1075 1882 1075 1912 1056.5 c 128,-1,43
 1942 1038 1942 1038 1942 1012 c 1,44,-1
 1825 -102 l 2,45,46
 1809 -260 1809 -260 1722.5 -347 c 128,-1,47
 1636 -434 1636 -434 1483.5 -434 c 128,-1,48
 1331 -434 1331 -434 1331 -354 c 0,49,50
 1331 -184 1331 -184 1368 -184 c 0,51,52
 1370 -184 1370 -184 1392.5 -189.5 c 128,-1,53
 1415 -195 1415 -195 1440 -195 c 0,54,55
 1514 -195 1514 -195 1522 -106 c 2,56,-1
 1638 1010 l 2,57,58
 1644 1075 1644 1075 1767 1075 c 2,40,-1
EndSplineSet
Position2: "'cpsp' Capital Spacing lookup 0 subtable" dx=10 dy=0 dh=20 dv=0
EndChar

StartChar: Ntilde
Encoding: 209 209 104
Width: 1472
GlyphClass: 2
Flags: MW
HStem: 1397 41G<338 426 426 456 1223 1282 1282 1326> 1552 176<949 978> 1577 205
VStem: 72 1327<40 1394>
AnchorPoint: "Anchor-1" 860 1796 basechar 0
AnchorPoint: "Anchor-0" 698 0 basechar 0
LayerCount: 2
Fore
SplineSet
506 1698 m 0,0,1
 612 1782 612 1782 700 1782 c 128,-1,2
 788 1782 788 1782 857 1755.5 c 128,-1,3
 926 1729 926 1729 977 1729 c 128,-1,4
 1028 1729 1028 1729 1080.5 1760.5 c 128,-1,5
 1133 1792 1133 1792 1169 1743 c 0,6,7
 1189 1720 1189 1720 1186.5 1696.5 c 128,-1,8
 1184 1673 1184 1673 1153 1636 c 0,9,10
 1069 1552 1069 1552 936 1552 c 0,11,12
 860 1552 860 1552 782.5 1579 c 128,-1,13
 705 1606 705 1606 672 1606 c 128,-1,14
 639 1606 639 1606 589 1579 c 128,-1,15
 539 1552 539 1552 503 1605.5 c 128,-1,16
 467 1659 467 1659 506 1698 c 0,0,1
1223 1438 m 2,17,-1
 1282 1438 l 2,18,19
 1399 1438 1399 1438 1399 1372 c 1,20,-1
 1262 61 l 2,21,22
 1256 -5 1256 -5 1133 -4 c 2,23,-1
 1055 -4 l 2,24,25
 955 -4 955 -4 924 51 c 2,26,-1
 463 891 l 1,27,-1
 377 61 l 2,28,29
 371 -5 371 -5 248 -4 c 2,30,-1
 188 -4 l 2,31,32
 71 -4 71 -4 72 61 c 1,33,-1
 209 1372 l 2,34,35
 215 1438 215 1438 338 1438 c 2,36,-1
 426 1438 l 2,37,38
 526 1438 526 1438 557 1382 c 2,39,-1
 1008 553 l 1,40,-1
 1094 1372 l 2,41,42
 1100 1438 1100 1438 1223 1438 c 2,17,-1
EndSplineSet
Position2: "'cpsp' Capital Spacing lookup 0 subtable" dx=10 dy=0 dh=20 dv=0
EndChar

StartChar: O
Encoding: 79 79 105
Width: 1497
GlyphClass: 2
Flags: MW
HStem: -16 268<604 817 604 911> 1180 270<678 893>
VStem: 84 326<494 795 494 799> 1087 324<636 937>
AnchorPoint: "Anchor-1" 811 1434 basechar 0
AnchorPoint: "Anchor-0" 670 0 basechar 0
LayerCount: 2
Fore
SplineSet
825 1450 m 0,0,1
 1110 1450 1110 1450 1260.5 1295.5 c 128,-1,2
 1411 1141 1411 1141 1411 848 c 0,3,4
 1411 430 1411 430 1220.5 207 c 128,-1,5
 1030 -16 1030 -16 672 -16 c 0,6,7
 387 -16 387 -16 235.5 137.5 c 128,-1,8
 84 291 84 291 84 582 c 0,9,10
 84 933 84 933 251 1178 c 0,11,12
 336 1303 336 1303 483 1376.5 c 128,-1,13
 630 1450 630 1450 825 1450 c 0,0,1
797 1180 m 0,14,15
 617 1180 617 1180 513.5 1031.5 c 128,-1,16
 410 883 410 883 410 610 c 0,17,18
 410 252 410 252 700 252 c 0,19,20
 878 252 878 252 982.5 400.5 c 128,-1,21
 1087 549 1087 549 1087 819 c 0,22,23
 1088 1180 1088 1180 797 1180 c 0,14,15
EndSplineSet
Substitution2: "Single Substitution lookup 20 subtable" ordmasculine
Substitution2: "'aalt' Access All Alternates lookup 0 subtable" ordmasculine
Position2: "'cpsp' Capital Spacing lookup 0 subtable" dx=10 dy=0 dh=20 dv=0
EndChar

StartChar: Oacute
Encoding: 211 211 106
Width: 1497
GlyphClass: 2
Flags: MW
HStem: -16 268<604 817 604 911> 1180 270<678 893> 1540 326<731 1071>
VStem: 84 326<494 795 494 799> 1087 324<636 937>
AnchorPoint: "Anchor-1" 885 1796 basechar 0
AnchorPoint: "Anchor-0" 670 0 basechar 0
LayerCount: 2
Fore
SplineSet
790.5 1719 m 128,-1,1
 821 1763 821 1763 855 1814.5 c 128,-1,2
 889 1866 889 1866 1020 1866 c 128,-1,3
 1151 1866 1151 1866 1151 1839 c 0,4,5
 1151 1825 1151 1825 1142 1813.5 c 128,-1,6
 1133 1802 1133 1802 1059 1731.5 c 128,-1,7
 985 1661 985 1661 923.5 1600.5 c 128,-1,8
 862 1540 862 1540 754 1540 c 0,9,10
 695 1540 695 1540 694 1567 c 0,11,12
 694 1580 694 1580 711.5 1605 c 128,-1,13
 729 1630 729 1630 744.5 1652.5 c 128,-1,0
 760 1675 760 1675 790.5 1719 c 128,-1,1
825 1450 m 0,14,15
 1110 1450 1110 1450 1260.5 1295.5 c 128,-1,16
 1411 1141 1411 1141 1411 848 c 0,17,18
 1411 430 1411 430 1220.5 207 c 128,-1,19
 1030 -16 1030 -16 672 -16 c 0,20,21
 387 -16 387 -16 235.5 137.5 c 128,-1,22
 84 291 84 291 84 582 c 0,23,24
 84 933 84 933 251 1178 c 0,25,26
 336 1303 336 1303 483 1376.5 c 128,-1,27
 630 1450 630 1450 825 1450 c 0,14,15
797 1180 m 0,28,29
 617 1180 617 1180 513.5 1031.5 c 128,-1,30
 410 883 410 883 410 610 c 0,31,32
 410 252 410 252 700 252 c 0,33,34
 878 252 878 252 982.5 400.5 c 128,-1,35
 1087 549 1087 549 1087 819 c 0,36,37
 1088 1180 1088 1180 797 1180 c 0,28,29
EndSplineSet
Substitution2: "'locl' Localized Forms in Latin lookup 11 subtable" Oacute.loclPLK
Substitution2: "'aalt' Access All Alternates lookup 0 subtable" Oacute.loclPLK
Position2: "'cpsp' Capital Spacing lookup 0 subtable" dx=10 dy=0 dh=20 dv=0
EndChar

StartChar: Obreve
Encoding: 334 334 107
Width: 1497
GlyphClass: 2
Flags: MW
HStem: -16 268<604 817 604 911> 1180 270<678 893> 1540 186<785 897 785 905>
VStem: 84 326<494 795 494 799> 1087 324<636 937>
AnchorPoint: "Anchor-1" 850 1767 basechar 0
AnchorPoint: "Anchor-0" 670 0 basechar 0
LayerCount: 2
Fore
SplineSet
1077 1827 m 0,0,1
 1143 1827 1143 1827 1143 1778 c 0,2,3
 1143 1686 1143 1686 1045.5 1613 c 128,-1,4
 948 1540 948 1540 821 1540 c 128,-1,5
 694 1540 694 1540 616.5 1602.5 c 128,-1,6
 539 1665 539 1665 539 1746 c 128,-1,7
 539 1827 539 1827 618 1827 c 0,8,9
 653 1827 653 1827 682 1790 c 0,10,11
 731 1727 731 1727 838 1726 c 0,12,13
 909 1726 909 1726 937 1741.5 c 128,-1,14
 965 1757 965 1757 973 1761 c 128,-1,15
 981 1765 981 1765 999 1783 c 2,16,-1
 1018 1800 l 2,17,18
 1044 1827 1044 1827 1077 1827 c 0,0,1
825 1450 m 0,19,20
 1110 1450 1110 1450 1260.5 1295.5 c 128,-1,21
 1411 1141 1411 1141 1411 848 c 0,22,23
 1411 430 1411 430 1220.5 207 c 128,-1,24
 1030 -16 1030 -16 672 -16 c 0,25,26
 387 -16 387 -16 235.5 137.5 c 128,-1,27
 84 291 84 291 84 582 c 0,28,29
 84 933 84 933 251 1178 c 0,30,31
 336 1303 336 1303 483 1376.5 c 128,-1,32
 630 1450 630 1450 825 1450 c 0,19,20
797 1180 m 0,33,34
 617 1180 617 1180 513.5 1031.5 c 128,-1,35
 410 883 410 883 410 610 c 0,36,37
 410 252 410 252 700 252 c 0,38,39
 878 252 878 252 982.5 400.5 c 128,-1,40
 1087 549 1087 549 1087 819 c 0,41,42
 1088 1180 1088 1180 797 1180 c 0,33,34
EndSplineSet
Position2: "'cpsp' Capital Spacing lookup 0 subtable" dx=10 dy=0 dh=20 dv=0
EndChar

StartChar: Ocircumflex
Encoding: 212 212 108
Width: 1497
GlyphClass: 2
Flags: MW
HStem: -16 268<604 817 604 911> 1180 270<678 893> 1534 299<559 854 571 854 831 1008 831 1053>
VStem: 84 326<494 795 494 799> 1087 324<636 937>
AnchorPoint: "Anchor-1" 1210 1585 basechar 0
AnchorPoint: "Anchor-0" 670 0 basechar 0
LayerCount: 2
Fore
SplineSet
831 1833 m 2,0,-1
 854 1833 l 2,1,2
 952 1833 952 1833 975 1794 c 2,3,-1
 1085 1585 l 1,4,5
 1091 1569 1091 1569 1092 1561 c 0,6,7
 1092 1534 1092 1534 1053 1534 c 2,8,-1
 1008 1534 l 2,9,10
 908 1534 908 1534 877 1583 c 2,11,-1
 825 1665 l 1,12,-1
 762 1585 l 2,13,14
 723 1534 723 1534 621 1534 c 2,15,-1
 571 1534 l 2,16,17
 532 1534 532 1534 532 1554 c 0,18,19
 532 1568 532 1568 547 1585 c 2,20,-1
 702 1794 l 2,21,22
 731 1833 731 1833 831 1833 c 2,0,-1
825 1450 m 0,23,24
 1110 1450 1110 1450 1260.5 1295.5 c 128,-1,25
 1411 1141 1411 1141 1411 848 c 0,26,27
 1411 430 1411 430 1220.5 207 c 128,-1,28
 1030 -16 1030 -16 672 -16 c 0,29,30
 387 -16 387 -16 235.5 137.5 c 128,-1,31
 84 291 84 291 84 582 c 0,32,33
 84 933 84 933 251 1178 c 0,34,35
 336 1303 336 1303 483 1376.5 c 128,-1,36
 630 1450 630 1450 825 1450 c 0,23,24
797 1180 m 0,37,38
 617 1180 617 1180 513.5 1031.5 c 128,-1,39
 410 883 410 883 410 610 c 0,40,41
 410 252 410 252 700 252 c 0,42,43
 878 252 878 252 982.5 400.5 c 128,-1,44
 1087 549 1087 549 1087 819 c 0,45,46
 1088 1180 1088 1180 797 1180 c 0,37,38
EndSplineSet
Position2: "'cpsp' Capital Spacing lookup 0 subtable" dx=10 dy=0 dh=20 dv=0
EndChar

StartChar: Ocircumflexacute
Encoding: 7888 7888 109
Width: 1497
GlyphClass: 2
Flags: MW
HStem: -16 268<604 817 604 911> 1180 270<678 893> 1534 299<553 848 565 848 825 971 825 1016>
VStem: 84 326<494 795 494 799> 1087 324<636 937>
AnchorPoint: "Anchor-1" 1112 1698 basechar 0
AnchorPoint: "Anchor-0" 670 0 basechar 0
LayerCount: 2
Fore
SplineSet
1274 1972 m 0,0,1
 1352 1972 1352 1972 1352 1925 c 0,2,3
 1352 1892 1352 1892 1176 1718 c 0,4,5
 1141 1687 1141 1687 1057 1688 c 0,6,7
 1018 1688 1018 1688 1018 1714 c 0,8,9
 1018 1726 1018 1726 1114 1917 c 0,10,11
 1143 1972 1143 1972 1274 1972 c 0,0,1
825 1833 m 2,12,-1
 848 1833 l 2,13,14
 930 1833 930 1833 948 1794 c 2,15,-1
 1049 1585 l 2,16,17
 1055 1569 1055 1569 1055 1561 c 0,18,19
 1055 1534 1055 1534 1016 1534 c 2,20,-1
 971 1534 l 2,21,22
 850 1534 850 1534 840 1583 c 2,23,-1
 819 1665 l 1,24,-1
 756 1585 l 2,25,26
 717 1534 717 1534 614 1534 c 2,27,-1
 565 1534 l 2,28,29
 526 1534 526 1534 526 1554 c 0,30,31
 526 1568 526 1568 541 1585 c 2,32,-1
 696 1794 l 2,33,34
 725 1833 725 1833 825 1833 c 2,12,-1
825 1450 m 0,35,36
 1110 1450 1110 1450 1260.5 1295.5 c 128,-1,37
 1411 1141 1411 1141 1411 848 c 0,38,39
 1411 430 1411 430 1220.5 207 c 128,-1,40
 1030 -16 1030 -16 672 -16 c 0,41,42
 387 -16 387 -16 235.5 137.5 c 128,-1,43
 84 291 84 291 84 582 c 0,44,45
 84 933 84 933 251 1178 c 0,46,47
 336 1303 336 1303 483 1376.5 c 128,-1,48
 630 1450 630 1450 825 1450 c 0,35,36
797 1180 m 0,49,50
 617 1180 617 1180 513.5 1031.5 c 128,-1,51
 410 883 410 883 410 610 c 0,52,53
 410 252 410 252 700 252 c 0,54,55
 878 252 878 252 982.5 400.5 c 128,-1,56
 1087 549 1087 549 1087 819 c 0,57,58
 1088 1180 1088 1180 797 1180 c 0,49,50
EndSplineSet
Position2: "'cpsp' Capital Spacing lookup 0 subtable" dx=10 dy=0 dh=20 dv=0
EndChar

StartChar: Ocircumflexdotbelow
Encoding: 7896 7896 110
Width: 1497
GlyphClass: 2
Flags: MW
HStem: -418 254<604 662> -16 268<604 817 604 911> 1180 270<678 893> 1534 299<559 854 571 854 831 1008 831 1053>
VStem: 84 326<494 795 494 799> 504 260<-374 -208> 1087 324<636 937>
AnchorPoint: "Anchor-1" 688 -168 basechar 0
AnchorPoint: "Anchor-0" 627 -416 basechar 0
LayerCount: 2
Fore
SplineSet
831 1833 m 2,0,-1
 854 1833 l 2,1,2
 952 1833 952 1833 975 1794 c 2,3,-1
 1085 1585 l 1,4,5
 1091 1569 1091 1569 1092 1561 c 0,6,7
 1092 1534 1092 1534 1053 1534 c 2,8,-1
 1008 1534 l 2,9,10
 908 1534 908 1534 877 1583 c 2,11,-1
 825 1665 l 1,12,-1
 762 1585 l 2,13,14
 723 1534 723 1534 621 1534 c 2,15,-1
 571 1534 l 2,16,17
 532 1534 532 1534 532 1554 c 0,18,19
 532 1568 532 1568 547 1585 c 2,20,-1
 702 1794 l 2,21,22
 731 1833 731 1833 831 1833 c 2,0,-1
825 1450 m 0,23,24
 1110 1450 1110 1450 1260.5 1295.5 c 128,-1,25
 1411 1141 1411 1141 1411 848 c 0,26,27
 1411 430 1411 430 1220.5 207 c 128,-1,28
 1030 -16 1030 -16 672 -16 c 0,29,30
 387 -16 387 -16 235.5 137.5 c 128,-1,31
 84 291 84 291 84 582 c 0,32,33
 84 933 84 933 251 1178 c 0,34,35
 336 1303 336 1303 483 1376.5 c 128,-1,36
 630 1450 630 1450 825 1450 c 0,23,24
797 1180 m 0,37,38
 617 1180 617 1180 513.5 1031.5 c 128,-1,39
 410 883 410 883 410 610 c 0,40,41
 410 252 410 252 700 252 c 0,42,43
 878 252 878 252 982.5 400.5 c 128,-1,44
 1087 549 1087 549 1087 819 c 0,45,46
 1088 1180 1088 1180 797 1180 c 0,37,38
518 -229 m 2,47,48
 524 -163 524 -163 644 -163.5 c 128,-1,49
 764 -164 764 -164 764 -229 c 1,50,-1
 750 -352 l 1,51,52
 740 -418 740 -418 622 -418 c 128,-1,53
 504 -418 504 -418 504 -352 c 1,54,-1
 518 -229 l 2,47,48
EndSplineSet
Position2: "'cpsp' Capital Spacing lookup 0 subtable" dx=10 dy=0 dh=20 dv=0
EndChar

StartChar: Ocircumflexgrave
Encoding: 7890 7890 111
Width: 1497
GlyphClass: 2
Flags: MW
HStem: -16 268<604 817 604 911> 1180 270<678 893> 1534 299<553 848 565 848 825 971 825 1016> 1690 285<942 1157>
VStem: 84 326<494 795 494 799> 1087 324<636 937>
AnchorPoint: "Anchor-1" 1112 1698 basechar 0
AnchorPoint: "Anchor-0" 670 0 basechar 0
LayerCount: 2
Fore
SplineSet
975 1974 m 0,0,1
 1125 1974 1125 1974 1143 1919 c 0,2,3
 1200 1733 1200 1733 1200 1722 c 0,4,5
 1200 1689 1200 1689 1125.5 1689.5 c 128,-1,6
 1051 1690 1051 1690 1016 1736 c 0,7,8
 875 1923 875 1923 874 1942 c 0,9,10
 875 1974 875 1974 975 1974 c 0,0,1
825 1833 m 2,11,-1
 848 1833 l 2,12,13
 930 1833 930 1833 948 1794 c 2,14,-1
 1049 1585 l 2,15,16
 1055 1569 1055 1569 1055 1561 c 0,17,18
 1055 1534 1055 1534 1016 1534 c 2,19,-1
 971 1534 l 2,20,21
 850 1534 850 1534 840 1583 c 2,22,-1
 819 1665 l 1,23,-1
 756 1585 l 2,24,25
 717 1534 717 1534 614 1534 c 2,26,-1
 565 1534 l 2,27,28
 526 1534 526 1534 526 1554 c 0,29,30
 526 1568 526 1568 541 1585 c 2,31,-1
 696 1794 l 2,32,33
 725 1833 725 1833 825 1833 c 2,11,-1
825 1450 m 0,34,35
 1110 1450 1110 1450 1260.5 1295.5 c 128,-1,36
 1411 1141 1411 1141 1411 848 c 0,37,38
 1411 430 1411 430 1220.5 207 c 128,-1,39
 1030 -16 1030 -16 672 -16 c 0,40,41
 387 -16 387 -16 235.5 137.5 c 128,-1,42
 84 291 84 291 84 582 c 0,43,44
 84 933 84 933 251 1178 c 0,45,46
 336 1303 336 1303 483 1376.5 c 128,-1,47
 630 1450 630 1450 825 1450 c 0,34,35
797 1180 m 0,48,49
 617 1180 617 1180 513.5 1031.5 c 128,-1,50
 410 883 410 883 410 610 c 0,51,52
 410 252 410 252 700 252 c 0,53,54
 878 252 878 252 982.5 400.5 c 128,-1,55
 1087 549 1087 549 1087 819 c 0,56,57
 1088 1180 1088 1180 797 1180 c 0,48,49
EndSplineSet
Position2: "'cpsp' Capital Spacing lookup 0 subtable" dx=10 dy=0 dh=20 dv=0
EndChar

StartChar: Ocircumflexhookabove
Encoding: 7892 7892 112
Width: 1497
GlyphClass: 2
Flags: MW
HStem: -16 268<604 817 604 911> 1180 270<678 893> 1534 299<553 848 565 848 825 971 825 1016> 1835 143<983 1169>
VStem: 84 326<494 795 494 799> 1087 324<636 937> 1141 143<1821 1846>
AnchorPoint: "Anchor-1" 1112 1698 basechar 0
AnchorPoint: "Anchor-0" 670 0 basechar 0
LayerCount: 2
Fore
SplineSet
1141 1835 m 0,0,1
 1141 1870 1141 1870 1101 1870 c 128,-1,2
 1061 1870 1061 1870 1028 1852.5 c 128,-1,3
 995 1835 995 1835 991 1835 c 0,4,5
 979 1835 979 1835 959.5 1866.5 c 128,-1,6
 940 1898 940 1898 940 1920 c 128,-1,7
 940 1942 940 1942 997.5 1960 c 128,-1,8
 1055 1978 1055 1978 1110 1978 c 0,9,10
 1284 1978 1284 1978 1284 1843 c 0,11,12
 1284 1786 1284 1786 1208.5 1739 c 128,-1,13
 1133 1692 1133 1692 1112 1692 c 0,14,15
 1028 1692 1028 1692 1028 1735 c 0,16,17
 1028 1760 1028 1760 1071 1776 c 0,18,19
 1118 1796 1118 1796 1129.5 1808.5 c 128,-1,20
 1141 1821 1141 1821 1141 1835 c 0,0,1
825 1833 m 2,21,-1
 848 1833 l 2,22,23
 930 1833 930 1833 948 1794 c 2,24,-1
 1049 1585 l 2,25,26
 1055 1569 1055 1569 1055 1561 c 0,27,28
 1055 1534 1055 1534 1016 1534 c 2,29,-1
 971 1534 l 2,30,31
 850 1534 850 1534 840 1583 c 2,32,-1
 819 1665 l 1,33,-1
 756 1585 l 2,34,35
 717 1534 717 1534 614 1534 c 2,36,-1
 565 1534 l 2,37,38
 526 1534 526 1534 526 1554 c 0,39,40
 526 1568 526 1568 541 1585 c 2,41,-1
 696 1794 l 2,42,43
 725 1833 725 1833 825 1833 c 2,21,-1
825 1450 m 0,44,45
 1110 1450 1110 1450 1260.5 1295.5 c 128,-1,46
 1411 1141 1411 1141 1411 848 c 0,47,48
 1411 430 1411 430 1220.5 207 c 128,-1,49
 1030 -16 1030 -16 672 -16 c 0,50,51
 387 -16 387 -16 235.5 137.5 c 128,-1,52
 84 291 84 291 84 582 c 0,53,54
 84 933 84 933 251 1178 c 0,55,56
 336 1303 336 1303 483 1376.5 c 128,-1,57
 630 1450 630 1450 825 1450 c 0,44,45
797 1180 m 0,58,59
 617 1180 617 1180 513.5 1031.5 c 128,-1,60
 410 883 410 883 410 610 c 0,61,62
 410 252 410 252 700 252 c 0,63,64
 878 252 878 252 982.5 400.5 c 128,-1,65
 1087 549 1087 549 1087 819 c 0,66,67
 1088 1180 1088 1180 797 1180 c 0,58,59
EndSplineSet
Position2: "'cpsp' Capital Spacing lookup 0 subtable" dx=10 dy=0 dh=20 dv=0
EndChar

StartChar: Ocircumflextilde
Encoding: 7894 7894 113
Width: 1497
GlyphClass: 2
Flags: MW
HStem: -16 268<604 817 604 911> 1180 270<678 893> 1534 250<580 862 840 1016 840 1061> 1849 176<976 1002> 1874 205
VStem: 84 326<494 795 494 799> 1087 324<636 937>
AnchorPoint: "Anchor-1" 856 1796 basechar 0
AnchorPoint: "Anchor-0" 670 0 basechar 0
LayerCount: 2
Fore
SplineSet
764 2079 m 0,0,1
 830 2079 830 2079 892 2052 c 128,-1,2
 954 2025 954 2025 1001.5 2025 c 128,-1,3
 1049 2025 1049 2025 1095 2057 c 128,-1,4
 1141 2089 1141 2089 1176 2040 c 0,5,6
 1194 2017 1194 2017 1192 1993.5 c 128,-1,7
 1190 1970 1190 1970 1161 1933 c 0,8,9
 1083 1849 1083 1849 965 1849 c 0,10,11
 895 1849 895 1849 825.5 1876 c 128,-1,12
 756 1903 756 1903 725 1903 c 128,-1,13
 694 1903 694 1903 648 1876 c 128,-1,14
 602 1849 602 1849 569.5 1902.5 c 128,-1,15
 537 1956 537 1956 573 1995 c 0,16,17
 668 2079 668 2079 764 2079 c 0,0,1
840 1784 m 2,18,-1
 862 1784 l 2,19,20
 952 1784 952 1784 983 1745 c 1,21,-1
 1094 1585 l 1,22,23
 1100 1569 1100 1569 1100 1561 c 0,24,25
 1100 1534 1100 1534 1061 1534 c 2,26,-1
 1016 1534 l 2,27,28
 961 1534 961 1534 885 1583 c 1,29,-1
 834 1636 l 1,30,-1
 770 1585 l 1,31,32
 756 1579 756 1579 734.5 1567.5 c 128,-1,33
 713 1556 713 1556 700 1550 c 0,34,35
 667 1534 667 1534 629 1534 c 2,36,-1
 580 1534 l 2,37,38
 541 1534 541 1534 541 1554 c 0,39,40
 541 1568 541 1568 555 1585 c 2,41,-1
 711 1745 l 1,42,43
 752 1784 752 1784 840 1784 c 2,18,-1
825 1450 m 0,44,45
 1110 1450 1110 1450 1260.5 1295.5 c 128,-1,46
 1411 1141 1411 1141 1411 848 c 0,47,48
 1411 430 1411 430 1220.5 207 c 128,-1,49
 1030 -16 1030 -16 672 -16 c 0,50,51
 387 -16 387 -16 235.5 137.5 c 128,-1,52
 84 291 84 291 84 582 c 0,53,54
 84 933 84 933 251 1178 c 0,55,56
 336 1303 336 1303 483 1376.5 c 128,-1,57
 630 1450 630 1450 825 1450 c 0,44,45
797 1180 m 0,58,59
 617 1180 617 1180 513.5 1031.5 c 128,-1,60
 410 883 410 883 410 610 c 0,61,62
 410 252 410 252 700 252 c 0,63,64
 878 252 878 252 982.5 400.5 c 128,-1,65
 1087 549 1087 549 1087 819 c 0,66,67
 1088 1180 1088 1180 797 1180 c 0,58,59
EndSplineSet
Position2: "'cpsp' Capital Spacing lookup 0 subtable" dx=10 dy=0 dh=20 dv=0
EndChar

StartChar: Odieresis
Encoding: 214 214 114
Width: 1497
GlyphClass: 2
Flags: MW
HStem: -16 268<604 817 604 911> 1180 270<678 893> 1546 254<625 682 993 1051>
VStem: 84 326<494 795 494 799> 524 260<1590 1756> 893 260<1590 1756> 1087 324<636 937>
AnchorPoint: "Anchor-1" 858 1796 basechar 0
AnchorPoint: "Anchor-0" 670 0 basechar 0
LayerCount: 2
Fore
SplineSet
539 1735 m 2,0,1
 545 1801 545 1801 664.5 1800.5 c 128,-1,2
 784 1800 784 1800 784 1735 c 1,3,-1
 770 1612 l 1,4,5
 760 1546 760 1546 642 1546 c 128,-1,6
 524 1546 524 1546 524 1612 c 1,7,-1
 539 1735 l 2,0,1
907 1735 m 2,8,9
 913 1801 913 1801 1033 1800.5 c 128,-1,10
 1153 1800 1153 1800 1153 1735 c 1,11,-1
 1139 1612 l 1,12,13
 1129 1546 1129 1546 1011 1546 c 128,-1,14
 893 1546 893 1546 893 1612 c 1,15,-1
 907 1735 l 2,8,9
825 1450 m 0,16,17
 1110 1450 1110 1450 1260.5 1295.5 c 128,-1,18
 1411 1141 1411 1141 1411 848 c 0,19,20
 1411 430 1411 430 1220.5 207 c 128,-1,21
 1030 -16 1030 -16 672 -16 c 0,22,23
 387 -16 387 -16 235.5 137.5 c 128,-1,24
 84 291 84 291 84 582 c 0,25,26
 84 933 84 933 251 1178 c 0,27,28
 336 1303 336 1303 483 1376.5 c 128,-1,29
 630 1450 630 1450 825 1450 c 0,16,17
797 1180 m 0,30,31
 617 1180 617 1180 513.5 1031.5 c 128,-1,32
 410 883 410 883 410 610 c 0,33,34
 410 252 410 252 700 252 c 0,35,36
 878 252 878 252 982.5 400.5 c 128,-1,37
 1087 549 1087 549 1087 819 c 0,38,39
 1088 1180 1088 1180 797 1180 c 0,30,31
EndSplineSet
Position2: "'cpsp' Capital Spacing lookup 0 subtable" dx=10 dy=0 dh=20 dv=0
EndChar

StartChar: Odotbelow
Encoding: 7884 7884 115
Width: 1497
GlyphClass: 2
Flags: MW
HStem: -418 254<604 662> -16 268<604 817 604 911> 1180 270<678 893>
VStem: 84 326<494 795 494 799> 504 260<-374 -208> 1087 324<636 937>
AnchorPoint: "Anchor-1" 688 -168 basechar 0
AnchorPoint: "Anchor-0" 627 -416 basechar 0
LayerCount: 2
Fore
SplineSet
825 1450 m 0,0,1
 1110 1450 1110 1450 1260.5 1295.5 c 128,-1,2
 1411 1141 1411 1141 1411 848 c 0,3,4
 1411 430 1411 430 1220.5 207 c 128,-1,5
 1030 -16 1030 -16 672 -16 c 0,6,7
 387 -16 387 -16 235.5 137.5 c 128,-1,8
 84 291 84 291 84 582 c 0,9,10
 84 933 84 933 251 1178 c 0,11,12
 336 1303 336 1303 483 1376.5 c 128,-1,13
 630 1450 630 1450 825 1450 c 0,0,1
797 1180 m 0,14,15
 617 1180 617 1180 513.5 1031.5 c 128,-1,16
 410 883 410 883 410 610 c 0,17,18
 410 252 410 252 700 252 c 0,19,20
 878 252 878 252 982.5 400.5 c 128,-1,21
 1087 549 1087 549 1087 819 c 0,22,23
 1088 1180 1088 1180 797 1180 c 0,14,15
518 -229 m 2,24,25
 524 -163 524 -163 644 -163.5 c 128,-1,26
 764 -164 764 -164 764 -229 c 1,27,-1
 750 -352 l 1,28,29
 740 -418 740 -418 622 -418 c 128,-1,30
 504 -418 504 -418 504 -352 c 1,31,-1
 518 -229 l 2,24,25
EndSplineSet
Position2: "'cpsp' Capital Spacing lookup 0 subtable" dx=10 dy=0 dh=20 dv=0
EndChar

StartChar: Ograve
Encoding: 210 210 116
Width: 1497
GlyphClass: 2
Flags: MW
HStem: -16 268<604 817 604 911> 1180 270<678 893> 1540 326<625 901>
VStem: 84 326<494 795 494 799> 1087 324<636 937>
AnchorPoint: "Anchor-1" 848 1796 basechar 0
AnchorPoint: "Anchor-0" 670 0 basechar 0
LayerCount: 2
Fore
SplineSet
541 1833 m 0,0,1
 541 1866 541 1866 675 1866 c 128,-1,2
 809 1866 809 1866 836 1810 c 0,3,4
 856 1767 856 1767 875.5 1726.5 c 128,-1,5
 895 1686 895 1686 906.5 1663 c 128,-1,6
 918 1640 918 1640 927 1620 c 0,7,8
 944 1581 944 1581 944 1573 c 0,9,10
 944 1540 944 1540 858 1540 c 128,-1,11
 772 1540 772 1540 727 1595.5 c 128,-1,12
 682 1651 682 1651 623.5 1719.5 c 128,-1,13
 565 1788 565 1788 553 1805.5 c 128,-1,14
 541 1823 541 1823 541 1833 c 0,0,1
825 1450 m 0,15,16
 1110 1450 1110 1450 1260.5 1295.5 c 128,-1,17
 1411 1141 1411 1141 1411 848 c 0,18,19
 1411 430 1411 430 1220.5 207 c 128,-1,20
 1030 -16 1030 -16 672 -16 c 0,21,22
 387 -16 387 -16 235.5 137.5 c 128,-1,23
 84 291 84 291 84 582 c 0,24,25
 84 933 84 933 251 1178 c 0,26,27
 336 1303 336 1303 483 1376.5 c 128,-1,28
 630 1450 630 1450 825 1450 c 0,15,16
797 1180 m 0,29,30
 617 1180 617 1180 513.5 1031.5 c 128,-1,31
 410 883 410 883 410 610 c 0,32,33
 410 252 410 252 700 252 c 0,34,35
 878 252 878 252 982.5 400.5 c 128,-1,36
 1087 549 1087 549 1087 819 c 0,37,38
 1088 1180 1088 1180 797 1180 c 0,29,30
EndSplineSet
Position2: "'cpsp' Capital Spacing lookup 0 subtable" dx=10 dy=0 dh=20 dv=0
EndChar

StartChar: Ohookabove
Encoding: 7886 7886 117
Width: 1497
GlyphClass: 2
Flags: MW
HStem: -16 268<604 817 604 911> 1180 270<678 893> 1776 125<826 853>
VStem: 84 326<494 795 494 799> 899 178<1696 1745> 1087 324<636 937>
AnchorPoint: "Anchor-1" 848 1796 basechar 0
AnchorPoint: "Anchor-0" 670 0 basechar 0
LayerCount: 2
Fore
SplineSet
899 1731 m 0,0,1
 899 1776 899 1776 834 1776 c 0,2,3
 807 1776 807 1776 778.5 1763.5 c 128,-1,4
 750 1751 750 1751 743 1751 c 0,5,6
 731 1751 731 1751 711.5 1783 c 128,-1,7
 692 1815 692 1815 692 1836.5 c 128,-1,8
 692 1858 692 1858 750.5 1879.5 c 128,-1,9
 809 1901 809 1901 886 1901 c 128,-1,10
 963 1901 963 1901 1020 1856.5 c 128,-1,11
 1077 1812 1077 1812 1077 1742.5 c 128,-1,12
 1077 1673 1077 1673 991 1601.5 c 128,-1,13
 905 1530 905 1530 859 1530 c 128,-1,14
 813 1530 813 1530 782.5 1543 c 128,-1,15
 752 1556 752 1556 752 1574.5 c 128,-1,16
 752 1593 752 1593 825.5 1642.5 c 128,-1,17
 899 1692 899 1692 899 1731 c 0,0,1
825 1450 m 0,18,19
 1110 1450 1110 1450 1260.5 1295.5 c 128,-1,20
 1411 1141 1411 1141 1411 848 c 0,21,22
 1411 430 1411 430 1220.5 207 c 128,-1,23
 1030 -16 1030 -16 672 -16 c 0,24,25
 387 -16 387 -16 235.5 137.5 c 128,-1,26
 84 291 84 291 84 582 c 0,27,28
 84 933 84 933 251 1178 c 0,29,30
 336 1303 336 1303 483 1376.5 c 128,-1,31
 630 1450 630 1450 825 1450 c 0,18,19
797 1180 m 0,32,33
 617 1180 617 1180 513.5 1031.5 c 128,-1,34
 410 883 410 883 410 610 c 0,35,36
 410 252 410 252 700 252 c 0,37,38
 878 252 878 252 982.5 400.5 c 128,-1,39
 1087 549 1087 549 1087 819 c 0,40,41
 1088 1180 1088 1180 797 1180 c 0,32,33
EndSplineSet
Position2: "'cpsp' Capital Spacing lookup 0 subtable" dx=10 dy=0 dh=20 dv=0
EndChar

StartChar: Ohorn
Encoding: 416 416 118
Width: 1497
GlyphClass: 2
Flags: MW
HStem: -16 268<604 817 604 911> 1180 217 1180 270<678 881 556 893>
VStem: 84 326<494 795 494 799> 1087 324<636 937> 1282 166<1459 1497>
AnchorPoint: "Anchor-1" 864 1438 basechar 0
AnchorPoint: "Anchor-0" 670 0 basechar 0
LayerCount: 2
Fore
SplineSet
1241 1315 m 1,0,1
 1411 1161 1411 1161 1411 848 c 0,2,3
 1411 430 1411 430 1220.5 207 c 128,-1,4
 1030 -16 1030 -16 672 -16 c 0,5,6
 387 -16 387 -16 235.5 137.5 c 128,-1,7
 84 291 84 291 84 582 c 0,8,9
 84 933 84 933 251 1178 c 0,10,11
 336 1303 336 1303 483.5 1376.5 c 128,-1,12
 631 1450 631 1450 810 1450 c 128,-1,13
 989 1450 989 1450 1112 1397 c 1,14,-1
 1178 1397 l 2,15,16
 1282 1397 1282 1397 1282 1479 c 0,17,18
 1282 1499 1282 1499 1260.5 1532 c 128,-1,19
 1239 1565 1239 1565 1239 1582 c 128,-1,20
 1239 1599 1239 1599 1266 1616 c 2,21,-1
 1335 1661 l 2,22,23
 1351 1671 1351 1671 1370 1671 c 0,24,25
 1405 1671 1405 1671 1426.5 1616 c 128,-1,26
 1448 1561 1448 1561 1448 1497.5 c 128,-1,27
 1448 1434 1448 1434 1394.5 1381.5 c 128,-1,28
 1341 1329 1341 1329 1241 1315 c 1,0,1
700 252 m 0,29,30
 878 252 878 252 982.5 400.5 c 128,-1,31
 1087 549 1087 549 1087 819 c 0,32,33
 1087 1179 1087 1179 797 1180 c 0,34,35
 617 1180 617 1180 513.5 1031.5 c 128,-1,36
 410 883 410 883 410 610 c 0,37,38
 409 252 409 252 700 252 c 0,29,30
EndSplineSet
Position2: "'cpsp' Capital Spacing lookup 0 subtable" dx=10 dy=0 dh=20 dv=0
EndChar

StartChar: Ohornacute
Encoding: 7898 7898 119
Width: 1497
GlyphClass: 2
Flags: MW
HStem: -16 268<604 817 604 911> 1180 217 1180 270<678 881 556 893> 1544 326<784 1124>
VStem: 84 326<494 795 494 799> 1087 324<636 937> 1282 166<1459 1497>
AnchorPoint: "Anchor-1" 864 1438 basechar 0
AnchorPoint: "Anchor-0" 670 0 basechar 0
LayerCount: 2
Fore
SplineSet
807 1544 m 0,0,1
 748 1544 748 1544 748 1571 c 0,2,3
 748 1584 748 1584 765 1609 c 128,-1,4
 782 1634 782 1634 797.5 1656.5 c 128,-1,5
 813 1679 813 1679 843.5 1723 c 128,-1,6
 874 1767 874 1767 908 1818.5 c 128,-1,7
 942 1870 942 1870 1073 1870 c 128,-1,8
 1204 1870 1204 1870 1204 1843 c 0,9,10
 1204 1829 1204 1829 1195 1817.5 c 128,-1,11
 1186 1806 1186 1806 1112 1735.5 c 128,-1,12
 1038 1665 1038 1665 977 1604.5 c 128,-1,13
 916 1544 916 1544 807 1544 c 0,0,1
1241 1315 m 1,14,15
 1411 1161 1411 1161 1411 848 c 0,16,17
 1411 430 1411 430 1220.5 207 c 128,-1,18
 1030 -16 1030 -16 672 -16 c 0,19,20
 387 -16 387 -16 235.5 137.5 c 128,-1,21
 84 291 84 291 84 582 c 0,22,23
 84 933 84 933 251 1178 c 0,24,25
 336 1303 336 1303 483.5 1376.5 c 128,-1,26
 631 1450 631 1450 810 1450 c 128,-1,27
 989 1450 989 1450 1112 1397 c 1,28,-1
 1178 1397 l 2,29,30
 1282 1397 1282 1397 1282 1479 c 0,31,32
 1282 1499 1282 1499 1260.5 1532 c 128,-1,33
 1239 1565 1239 1565 1239 1582 c 128,-1,34
 1239 1599 1239 1599 1266 1616 c 2,35,-1
 1335 1661 l 2,36,37
 1351 1671 1351 1671 1370 1671 c 0,38,39
 1405 1671 1405 1671 1426.5 1616 c 128,-1,40
 1448 1561 1448 1561 1448 1497.5 c 128,-1,41
 1448 1434 1448 1434 1394.5 1381.5 c 128,-1,42
 1341 1329 1341 1329 1241 1315 c 1,14,15
700 252 m 0,43,44
 878 252 878 252 982.5 400.5 c 128,-1,45
 1087 549 1087 549 1087 819 c 0,46,47
 1087 1179 1087 1179 797 1180 c 0,48,49
 617 1180 617 1180 513.5 1031.5 c 128,-1,50
 410 883 410 883 410 610 c 0,51,52
 409 252 409 252 700 252 c 0,43,44
EndSplineSet
Position2: "'cpsp' Capital Spacing lookup 0 subtable" dx=10 dy=0 dh=20 dv=0
EndChar

StartChar: Ohorndotbelow
Encoding: 7906 7906 120
Width: 1497
GlyphClass: 2
Flags: MW
HStem: -418 254<604 662> -16 268<604 817 604 911> 1180 217 1180 270<678 881 556 893>
VStem: 84 326<494 795 494 799> 504 260<-374 -208> 1087 324<636 937> 1282 166<1459 1497>
AnchorPoint: "Anchor-1" 864 1438 basechar 0
AnchorPoint: "Anchor-0" 627 -416 basechar 0
LayerCount: 2
Fore
SplineSet
1241 1315 m 1,0,1
 1411 1161 1411 1161 1411 848 c 0,2,3
 1411 430 1411 430 1220.5 207 c 128,-1,4
 1030 -16 1030 -16 672 -16 c 0,5,6
 387 -16 387 -16 235.5 137.5 c 128,-1,7
 84 291 84 291 84 582 c 0,8,9
 84 933 84 933 251 1178 c 0,10,11
 336 1303 336 1303 483.5 1376.5 c 128,-1,12
 631 1450 631 1450 810 1450 c 128,-1,13
 989 1450 989 1450 1112 1397 c 1,14,-1
 1178 1397 l 2,15,16
 1282 1397 1282 1397 1282 1479 c 0,17,18
 1282 1499 1282 1499 1260.5 1532 c 128,-1,19
 1239 1565 1239 1565 1239 1582 c 128,-1,20
 1239 1599 1239 1599 1266 1616 c 2,21,-1
 1335 1661 l 2,22,23
 1351 1671 1351 1671 1370 1671 c 0,24,25
 1405 1671 1405 1671 1426.5 1616 c 128,-1,26
 1448 1561 1448 1561 1448 1497.5 c 128,-1,27
 1448 1434 1448 1434 1394.5 1381.5 c 128,-1,28
 1341 1329 1341 1329 1241 1315 c 1,0,1
700 252 m 0,29,30
 878 252 878 252 982.5 400.5 c 128,-1,31
 1087 549 1087 549 1087 819 c 0,32,33
 1087 1179 1087 1179 797 1180 c 0,34,35
 617 1180 617 1180 513.5 1031.5 c 128,-1,36
 410 883 410 883 410 610 c 0,37,38
 409 252 409 252 700 252 c 0,29,30
518 -229 m 2,39,40
 524 -163 524 -163 644 -163.5 c 128,-1,41
 764 -164 764 -164 764 -229 c 1,42,-1
 750 -352 l 1,43,44
 740 -418 740 -418 622 -418 c 128,-1,45
 504 -418 504 -418 504 -352 c 1,46,-1
 518 -229 l 2,39,40
EndSplineSet
Position2: "'cpsp' Capital Spacing lookup 0 subtable" dx=10 dy=0 dh=20 dv=0
EndChar

StartChar: Ohorngrave
Encoding: 7900 7900 121
Width: 1497
GlyphClass: 2
Flags: MW
HStem: -16 268<604 817 604 911> 1180 217 1180 270<678 881 556 893> 1544 326<678 954>
VStem: 84 326<494 795 494 799> 1087 324<636 937> 1282 166<1459 1497>
AnchorPoint: "Anchor-1" 864 1438 basechar 0
AnchorPoint: "Anchor-0" 670 0 basechar 0
LayerCount: 2
Fore
SplineSet
997 1577 m 0,0,1
 997 1544 997 1544 911 1544 c 128,-1,2
 825 1544 825 1544 780 1599.5 c 128,-1,3
 735 1655 735 1655 676.5 1723.5 c 128,-1,4
 618 1792 618 1792 606 1809.5 c 128,-1,5
 594 1827 594 1827 594 1837 c 0,6,7
 594 1870 594 1870 728 1870 c 128,-1,8
 862 1870 862 1870 889 1815 c 0,9,10
 909 1772 909 1772 928.5 1731 c 128,-1,11
 948 1690 948 1690 959.5 1667.5 c 128,-1,12
 971 1645 971 1645 980 1624 c 0,13,14
 997 1585 997 1585 997 1577 c 0,0,1
1241 1315 m 1,15,16
 1411 1161 1411 1161 1411 848 c 0,17,18
 1411 430 1411 430 1220.5 207 c 128,-1,19
 1030 -16 1030 -16 672 -16 c 0,20,21
 387 -16 387 -16 235.5 137.5 c 128,-1,22
 84 291 84 291 84 582 c 0,23,24
 84 933 84 933 251 1178 c 0,25,26
 336 1303 336 1303 483.5 1376.5 c 128,-1,27
 631 1450 631 1450 810 1450 c 128,-1,28
 989 1450 989 1450 1112 1397 c 1,29,-1
 1178 1397 l 2,30,31
 1282 1397 1282 1397 1282 1479 c 0,32,33
 1282 1499 1282 1499 1260.5 1532 c 128,-1,34
 1239 1565 1239 1565 1239 1582 c 128,-1,35
 1239 1599 1239 1599 1266 1616 c 2,36,-1
 1335 1661 l 2,37,38
 1351 1671 1351 1671 1370 1671 c 0,39,40
 1405 1671 1405 1671 1426.5 1616 c 128,-1,41
 1448 1561 1448 1561 1448 1497.5 c 128,-1,42
 1448 1434 1448 1434 1394.5 1381.5 c 128,-1,43
 1341 1329 1341 1329 1241 1315 c 1,15,16
700 252 m 0,44,45
 878 252 878 252 982.5 400.5 c 128,-1,46
 1087 549 1087 549 1087 819 c 0,47,48
 1087 1179 1087 1179 797 1180 c 0,49,50
 617 1180 617 1180 513.5 1031.5 c 128,-1,51
 410 883 410 883 410 610 c 0,52,53
 409 252 409 252 700 252 c 0,44,45
EndSplineSet
Position2: "'cpsp' Capital Spacing lookup 0 subtable" dx=10 dy=0 dh=20 dv=0
EndChar

StartChar: Ohornhookabove
Encoding: 7902 7902 122
Width: 1497
GlyphClass: 2
Flags: MW
HStem: -16 268<604 817 604 911> 1180 217 1180 270<678 881 556 893> 1780 125<880 906>
VStem: 84 326<494 795 494 799> 952 178<1700 1749> 1087 324<636 937> 1282 166<1459 1497>
AnchorPoint: "Anchor-1" 864 1438 basechar 0
AnchorPoint: "Anchor-0" 670 0 basechar 0
LayerCount: 2
Fore
SplineSet
797 1755 m 0,0,1
 785 1755 785 1755 765 1787 c 128,-1,2
 745 1819 745 1819 745 1840.5 c 128,-1,3
 745 1862 745 1862 803.5 1883.5 c 128,-1,4
 862 1905 862 1905 939 1905 c 128,-1,5
 1016 1905 1016 1905 1073 1861 c 128,-1,6
 1130 1817 1130 1817 1130 1747 c 128,-1,7
 1130 1677 1130 1677 1044 1605.5 c 128,-1,8
 958 1534 958 1534 912 1534 c 128,-1,9
 866 1534 866 1534 835.5 1547.5 c 128,-1,10
 805 1561 805 1561 805 1579 c 128,-1,11
 805 1597 805 1597 878.5 1646.5 c 128,-1,12
 952 1696 952 1696 952 1735 c 0,13,14
 952 1780 952 1780 887 1780 c 0,15,16
 860 1780 860 1780 831.5 1767.5 c 128,-1,17
 803 1755 803 1755 797 1755 c 0,0,1
1241 1315 m 1,18,19
 1411 1161 1411 1161 1411 848 c 0,20,21
 1411 430 1411 430 1220.5 207 c 128,-1,22
 1030 -16 1030 -16 672 -16 c 0,23,24
 387 -16 387 -16 235.5 137.5 c 128,-1,25
 84 291 84 291 84 582 c 0,26,27
 84 933 84 933 251 1178 c 0,28,29
 336 1303 336 1303 483.5 1376.5 c 128,-1,30
 631 1450 631 1450 810 1450 c 128,-1,31
 989 1450 989 1450 1112 1397 c 1,32,-1
 1178 1397 l 2,33,34
 1282 1397 1282 1397 1282 1479 c 0,35,36
 1282 1499 1282 1499 1260.5 1532 c 128,-1,37
 1239 1565 1239 1565 1239 1582 c 128,-1,38
 1239 1599 1239 1599 1266 1616 c 2,39,-1
 1335 1661 l 2,40,41
 1351 1671 1351 1671 1370 1671 c 0,42,43
 1405 1671 1405 1671 1426.5 1616 c 128,-1,44
 1448 1561 1448 1561 1448 1497.5 c 128,-1,45
 1448 1434 1448 1434 1394.5 1381.5 c 128,-1,46
 1341 1329 1341 1329 1241 1315 c 1,18,19
700 252 m 0,47,48
 878 252 878 252 982.5 400.5 c 128,-1,49
 1087 549 1087 549 1087 819 c 0,50,51
 1087 1179 1087 1179 797 1180 c 0,52,53
 617 1180 617 1180 513.5 1031.5 c 128,-1,54
 410 883 410 883 410 610 c 0,55,56
 409 252 409 252 700 252 c 0,47,48
EndSplineSet
Position2: "'cpsp' Capital Spacing lookup 0 subtable" dx=10 dy=0 dh=20 dv=0
EndChar

StartChar: Ohorntilde
Encoding: 7904 7904 123
Width: 1497
GlyphClass: 2
Flags: MW
HStem: -16 268<604 817 604 911> 1180 217 1180 270<678 881 556 893> 1556 176<988 1015> 1581 205
VStem: 84 326<494 795 494 799> 1087 324<636 937> 1282 166<1459 1497>
AnchorPoint: "Anchor-1" 864 1438 basechar 0
AnchorPoint: "Anchor-0" 670 0 basechar 0
LayerCount: 2
Fore
SplineSet
977 1556 m 0,0,1
 909 1556 909 1556 839.5 1583 c 128,-1,2
 770 1610 770 1610 740.5 1610 c 128,-1,3
 711 1610 711 1610 664.5 1583 c 128,-1,4
 618 1556 618 1556 585.5 1609.5 c 128,-1,5
 553 1663 553 1663 590 1702 c 0,6,7
 684 1786 684 1786 764 1786 c 128,-1,8
 844 1786 844 1786 904.5 1759.5 c 128,-1,9
 965 1733 965 1733 1013 1733 c 128,-1,10
 1061 1733 1061 1733 1106 1764.5 c 128,-1,11
 1151 1796 1151 1796 1186 1747 c 0,12,13
 1204 1724 1204 1724 1202 1700.5 c 128,-1,14
 1200 1677 1200 1677 1171 1640 c 0,15,16
 1094 1556 1094 1556 977 1556 c 0,0,1
1241 1315 m 1,17,18
 1411 1161 1411 1161 1411 848 c 0,19,20
 1411 430 1411 430 1220.5 207 c 128,-1,21
 1030 -16 1030 -16 672 -16 c 0,22,23
 387 -16 387 -16 235.5 137.5 c 128,-1,24
 84 291 84 291 84 582 c 0,25,26
 84 933 84 933 251 1178 c 0,27,28
 336 1303 336 1303 483.5 1376.5 c 128,-1,29
 631 1450 631 1450 810 1450 c 128,-1,30
 989 1450 989 1450 1112 1397 c 1,31,-1
 1178 1397 l 2,32,33
 1282 1397 1282 1397 1282 1479 c 0,34,35
 1282 1499 1282 1499 1260.5 1532 c 128,-1,36
 1239 1565 1239 1565 1239 1582 c 128,-1,37
 1239 1599 1239 1599 1266 1616 c 2,38,-1
 1335 1661 l 2,39,40
 1351 1671 1351 1671 1370 1671 c 0,41,42
 1405 1671 1405 1671 1426.5 1616 c 128,-1,43
 1448 1561 1448 1561 1448 1497.5 c 128,-1,44
 1448 1434 1448 1434 1394.5 1381.5 c 128,-1,45
 1341 1329 1341 1329 1241 1315 c 1,17,18
700 252 m 0,46,47
 878 252 878 252 982.5 400.5 c 128,-1,48
 1087 549 1087 549 1087 819 c 0,49,50
 1087 1179 1087 1179 797 1180 c 0,51,52
 617 1180 617 1180 513.5 1031.5 c 128,-1,53
 410 883 410 883 410 610 c 0,54,55
 409 252 409 252 700 252 c 0,46,47
EndSplineSet
Position2: "'cpsp' Capital Spacing lookup 0 subtable" dx=10 dy=0 dh=20 dv=0
EndChar

StartChar: Ohungarumlaut
Encoding: 336 336 124
Width: 1497
GlyphClass: 2
Flags: MW
HStem: -16 268<604 817 604 911> 1180 270<678 893> 1540 326<596 936 856 1039>
VStem: 84 326<494 795 494 799> 1087 324<636 937>
AnchorPoint: "Anchor-1" 897 1796 basechar 0
AnchorPoint: "Anchor-0" 670 0 basechar 0
LayerCount: 2
Fore
SplineSet
655.5 1719 m 128,-1,1
 686 1763 686 1763 720 1814.5 c 128,-1,2
 754 1866 754 1866 885 1866 c 128,-1,3
 1016 1866 1016 1866 1016 1839 c 0,4,5
 1016 1825 1016 1825 1006.5 1813.5 c 128,-1,6
 997 1802 997 1802 923.5 1731.5 c 128,-1,7
 850 1661 850 1661 788.5 1600.5 c 128,-1,8
 727 1540 727 1540 618 1540 c 0,9,10
 559 1540 559 1540 559 1567 c 0,11,12
 559 1580 559 1580 576.5 1605 c 128,-1,13
 594 1630 594 1630 609.5 1652.5 c 128,-1,0
 625 1675 625 1675 655.5 1719 c 128,-1,1
1028 1719 m 128,-1,15
 1059 1763 1059 1763 1092.5 1814.5 c 128,-1,16
 1126 1866 1126 1866 1257.5 1866 c 128,-1,17
 1389 1866 1389 1866 1389 1839 c 0,18,19
 1389 1825 1389 1825 1379.5 1813.5 c 128,-1,20
 1370 1802 1370 1802 1326 1760 c 128,-1,21
 1282 1718 1282 1718 1266 1703 c 0,22,23
 1217 1657 1217 1657 1158.5 1598.5 c 128,-1,24
 1100 1540 1100 1540 991 1540 c 0,25,26
 932 1540 932 1540 932 1567 c 0,27,28
 932 1580 932 1580 949.5 1605 c 128,-1,29
 967 1630 967 1630 982 1652.5 c 128,-1,14
 997 1675 997 1675 1028 1719 c 128,-1,15
825 1450 m 0,30,31
 1110 1450 1110 1450 1260.5 1295.5 c 128,-1,32
 1411 1141 1411 1141 1411 848 c 0,33,34
 1411 430 1411 430 1220.5 207 c 128,-1,35
 1030 -16 1030 -16 672 -16 c 0,36,37
 387 -16 387 -16 235.5 137.5 c 128,-1,38
 84 291 84 291 84 582 c 0,39,40
 84 933 84 933 251 1178 c 0,41,42
 336 1303 336 1303 483 1376.5 c 128,-1,43
 630 1450 630 1450 825 1450 c 0,30,31
797 1180 m 0,44,45
 617 1180 617 1180 513.5 1031.5 c 128,-1,46
 410 883 410 883 410 610 c 0,47,48
 410 252 410 252 700 252 c 0,49,50
 878 252 878 252 982.5 400.5 c 128,-1,51
 1087 549 1087 549 1087 819 c 0,52,53
 1088 1180 1088 1180 797 1180 c 0,44,45
EndSplineSet
Position2: "'cpsp' Capital Spacing lookup 0 subtable" dx=10 dy=0 dh=20 dv=0
EndChar

StartChar: Omacron
Encoding: 332 332 125
Width: 1497
GlyphClass: 2
Flags: MW
HStem: -16 268<604 817 604 911> 1180 270<678 893> 1585 195<594 1077 635 1055>
VStem: 84 326<494 795 494 799> 1087 324<636 937>
AnchorPoint: "Anchor-1" 870 1796 basechar 0
AnchorPoint: "Anchor-0" 670 0 basechar 0
LayerCount: 2
Fore
SplineSet
635 1780 m 2,0,-1
 1077 1780 l 2,1,2
 1130 1780 1130 1780 1130 1718 c 0,3,4
 1130 1585 1130 1585 1055 1585 c 2,5,-1
 612 1585 l 2,6,7
 559 1585 559 1585 559 1647 c 0,8,9
 559 1780 559 1780 635 1780 c 2,0,-1
825 1450 m 0,10,11
 1110 1450 1110 1450 1260.5 1295.5 c 128,-1,12
 1411 1141 1411 1141 1411 848 c 0,13,14
 1411 430 1411 430 1220.5 207 c 128,-1,15
 1030 -16 1030 -16 672 -16 c 0,16,17
 387 -16 387 -16 235.5 137.5 c 128,-1,18
 84 291 84 291 84 582 c 0,19,20
 84 933 84 933 251 1178 c 0,21,22
 336 1303 336 1303 483 1376.5 c 128,-1,23
 630 1450 630 1450 825 1450 c 0,10,11
797 1180 m 0,24,25
 617 1180 617 1180 513.5 1031.5 c 128,-1,26
 410 883 410 883 410 610 c 0,27,28
 410 252 410 252 700 252 c 0,29,30
 878 252 878 252 982.5 400.5 c 128,-1,31
 1087 549 1087 549 1087 819 c 0,32,33
 1088 1180 1088 1180 797 1180 c 0,24,25
EndSplineSet
Position2: "'cpsp' Capital Spacing lookup 0 subtable" dx=10 dy=0 dh=20 dv=0
EndChar

StartChar: Oogonek
Encoding: 490 490 126
Width: 1497
GlyphClass: 2
Flags: MW
HStem: -375 143<926 950> -16 268<604 684> 1180 270<678 893>
VStem: 84 326<494 795 494 799> 688 141<-184 -168> 1087 324<636 937>
AnchorPoint: "Anchor-1" 811 1434 basechar 0
AnchorPoint: "Anchor-0" 776 -416 basechar 0
LayerCount: 2
Fore
SplineSet
1411 848 m 0,0,1
 1411 492 1411 492 1272 275.5 c 128,-1,2
 1133 59 1133 59 866 2 c 1,3,-1
 866 -6 l 2,4,5
 866 -18 866 -18 847.5 -60 c 128,-1,6
 829 -102 829 -102 829 -143 c 0,7,8
 829 -231 829 -231 948 -231 c 0,9,10
 985 -231 985 -231 1024 -217 c 128,-1,11
 1063 -203 1063 -203 1067 -203 c 0,12,13
 1090 -203 1090 -203 1090 -263.5 c 128,-1,14
 1090 -324 1090 -324 1036.5 -349.5 c 128,-1,15
 983 -375 983 -375 909 -375 c 0,16,17
 782 -375 782 -375 735 -319.5 c 128,-1,18
 688 -264 688 -264 688 -174 c 128,-1,19
 688 -84 688 -84 743 -14 c 1,20,21
 720 -16 720 -16 672 -16 c 0,22,23
 387 -16 387 -16 235.5 137.5 c 128,-1,24
 84 291 84 291 84 582 c 0,25,26
 84 933 84 933 251 1178 c 0,27,28
 336 1303 336 1303 483.5 1376.5 c 128,-1,29
 631 1450 631 1450 825 1450 c 0,30,31
 1110 1450 1110 1450 1260.5 1295.5 c 128,-1,32
 1411 1141 1411 1141 1411 848 c 0,0,1
700 252 m 0,33,34
 878 252 878 252 982.5 400.5 c 128,-1,35
 1087 549 1087 549 1087 819 c 0,36,37
 1087 1179 1087 1179 797 1180 c 0,38,39
 617 1180 617 1180 513.5 1031.5 c 128,-1,40
 410 883 410 883 410 610 c 0,41,42
 409 252 409 252 700 252 c 0,33,34
EndSplineSet
Position2: "'cpsp' Capital Spacing lookup 0 subtable" dx=10 dy=0 dh=20 dv=0
EndChar

StartChar: Oslash
Encoding: 216 216 127
Width: 1497
GlyphClass: 2
Flags: MW
HStem: -16 268<652 817 652 911> 1180 270<678 830>
VStem: 84 326<593 795 593 799> 1087 324<636 853>
AnchorPoint: "Anchor-1" 750 1434 basechar 0
AnchorPoint: "Anchor-0" 0 0 basechar 0
LayerCount: 2
Fore
SplineSet
483.5 1376.5 m 128,-1,1
 631 1450 631 1450 833.5 1450 c 128,-1,2
 1036 1450 1036 1450 1171 1364 c 1,3,-1
 1253 1458 l 2,4,5
 1273 1483 1273 1483 1296 1483 c 128,-1,6
 1319 1483 1319 1483 1339 1462 c 2,7,-1
 1372 1434 l 2,8,9
 1397 1414 1397 1414 1397 1391 c 128,-1,10
 1397 1368 1397 1368 1376 1348 c 2,11,-1
 1294 1255 l 1,12,13
 1411 1103 1411 1103 1411 848 c 0,14,15
 1411 430 1411 430 1220.5 207 c 128,-1,16
 1030 -16 1030 -16 672 -16 c 0,17,18
 420 -16 420 -16 272 102 c 1,19,-1
 182 0 l 2,20,21
 159 -25 159 -25 138 -25 c 128,-1,22
 117 -25 117 -25 96 -4 c 2,23,-1
 63 25 l 2,24,25
 38 48 38 48 38.5 69 c 128,-1,26
 39 90 39 90 59 111 c 2,27,-1
 164 229 l 1,28,29
 84 368 84 368 84 560 c 128,-1,30
 84 752 84 752 125 902.5 c 128,-1,31
 166 1053 166 1053 251 1178 c 128,-1,0
 336 1303 336 1303 483.5 1376.5 c 128,-1,1
797 1180 m 0,32,33
 617 1180 617 1180 513.5 1031.5 c 128,-1,34
 410 883 410 883 410 610 c 0,35,36
 410 558 410 558 416 512 c 1,37,-1
 965 1133 l 1,38,39
 899 1180 899 1180 797 1180 c 0,32,33
1063 993 m 1,40,-1
 483 342 l 1,41,42
 557 252 557 252 700 252 c 0,43,44
 878 252 878 252 982.5 400.5 c 128,-1,45
 1087 549 1087 549 1087 819 c 0,46,47
 1088 919 1088 919 1063 993 c 1,40,-1
EndSplineSet
Position2: "'cpsp' Capital Spacing lookup 0 subtable" dx=10 dy=0 dh=20 dv=0
EndChar

StartChar: Oslashacute
Encoding: 510 510 128
Width: 1497
GlyphClass: 2
Flags: MW
HStem: -16 268<652 817 652 911> 1180 270<678 830> 1540 326<670 1010>
VStem: 84 326<593 795 593 799> 1087 324<636 853>
AnchorPoint: "Anchor-1" 823 1796 basechar 0
AnchorPoint: "Anchor-0" 0 0 basechar 0
LayerCount: 2
Fore
SplineSet
729 1719 m 128,-1,1
 760 1763 760 1763 793.5 1814.5 c 128,-1,2
 827 1866 827 1866 958.5 1866 c 128,-1,3
 1090 1866 1090 1866 1090 1839 c 0,4,5
 1090 1825 1090 1825 1080.5 1813.5 c 128,-1,6
 1071 1802 1071 1802 997.5 1731.5 c 128,-1,7
 924 1661 924 1661 862.5 1600.5 c 128,-1,8
 801 1540 801 1540 692 1540 c 0,9,10
 633 1540 633 1540 633 1567 c 0,11,12
 633 1580 633 1580 650.5 1605 c 128,-1,13
 668 1630 668 1630 683 1652.5 c 128,-1,0
 698 1675 698 1675 729 1719 c 128,-1,1
483.5 1376.5 m 128,-1,15
 631 1450 631 1450 833.5 1450 c 128,-1,16
 1036 1450 1036 1450 1171 1364 c 1,17,-1
 1253 1458 l 2,18,19
 1273 1483 1273 1483 1296 1483 c 128,-1,20
 1319 1483 1319 1483 1339 1462 c 2,21,-1
 1372 1434 l 2,22,23
 1397 1414 1397 1414 1397 1391 c 128,-1,24
 1397 1368 1397 1368 1376 1348 c 2,25,-1
 1294 1255 l 1,26,27
 1411 1103 1411 1103 1411 848 c 0,28,29
 1411 430 1411 430 1220.5 207 c 128,-1,30
 1030 -16 1030 -16 672 -16 c 0,31,32
 420 -16 420 -16 272 102 c 1,33,-1
 182 0 l 2,34,35
 159 -25 159 -25 138 -25 c 128,-1,36
 117 -25 117 -25 96 -4 c 2,37,-1
 63 25 l 2,38,39
 38 48 38 48 38.5 69 c 128,-1,40
 39 90 39 90 59 111 c 2,41,-1
 164 229 l 1,42,43
 84 368 84 368 84 560 c 128,-1,44
 84 752 84 752 125 902.5 c 128,-1,45
 166 1053 166 1053 251 1178 c 128,-1,14
 336 1303 336 1303 483.5 1376.5 c 128,-1,15
797 1180 m 0,46,47
 617 1180 617 1180 513.5 1031.5 c 128,-1,48
 410 883 410 883 410 610 c 0,49,50
 410 558 410 558 416 512 c 1,51,-1
 965 1133 l 1,52,53
 899 1180 899 1180 797 1180 c 0,46,47
1063 993 m 1,54,-1
 483 342 l 1,55,56
 557 252 557 252 700 252 c 0,57,58
 878 252 878 252 982.5 400.5 c 128,-1,59
 1087 549 1087 549 1087 819 c 0,60,61
 1088 919 1088 919 1063 993 c 1,54,-1
EndSplineSet
Position2: "'cpsp' Capital Spacing lookup 0 subtable" dx=10 dy=0 dh=20 dv=0
EndChar

StartChar: Otilde
Encoding: 213 213 129
Width: 1497
GlyphClass: 2
Flags: MW
HStem: -16 268<604 817 604 911> 1180 270<678 893> 1552 176<949 978> 1577 205
VStem: 84 326<494 795 494 799> 1087 324<636 937>
AnchorPoint: "Anchor-1" 860 1796 basechar 0
AnchorPoint: "Anchor-0" 670 0 basechar 0
LayerCount: 2
Fore
SplineSet
506 1698 m 0,0,1
 612 1782 612 1782 700 1782 c 128,-1,2
 788 1782 788 1782 857 1755.5 c 128,-1,3
 926 1729 926 1729 977 1729 c 128,-1,4
 1028 1729 1028 1729 1080.5 1760.5 c 128,-1,5
 1133 1792 1133 1792 1169 1743 c 0,6,7
 1189 1720 1189 1720 1186.5 1696.5 c 128,-1,8
 1184 1673 1184 1673 1153 1636 c 0,9,10
 1069 1552 1069 1552 936 1552 c 0,11,12
 860 1552 860 1552 782.5 1579 c 128,-1,13
 705 1606 705 1606 672 1606 c 128,-1,14
 639 1606 639 1606 589 1579 c 128,-1,15
 539 1552 539 1552 503 1605.5 c 128,-1,16
 467 1659 467 1659 506 1698 c 0,0,1
825 1450 m 0,17,18
 1110 1450 1110 1450 1260.5 1295.5 c 128,-1,19
 1411 1141 1411 1141 1411 848 c 0,20,21
 1411 430 1411 430 1220.5 207 c 128,-1,22
 1030 -16 1030 -16 672 -16 c 0,23,24
 387 -16 387 -16 235.5 137.5 c 128,-1,25
 84 291 84 291 84 582 c 0,26,27
 84 933 84 933 251 1178 c 0,28,29
 336 1303 336 1303 483 1376.5 c 128,-1,30
 630 1450 630 1450 825 1450 c 0,17,18
797 1180 m 0,31,32
 617 1180 617 1180 513.5 1031.5 c 128,-1,33
 410 883 410 883 410 610 c 0,34,35
 410 252 410 252 700 252 c 0,36,37
 878 252 878 252 982.5 400.5 c 128,-1,38
 1087 549 1087 549 1087 819 c 0,39,40
 1088 1180 1088 1180 797 1180 c 0,31,32
EndSplineSet
Position2: "'cpsp' Capital Spacing lookup 0 subtable" dx=10 dy=0 dh=20 dv=0
EndChar

StartChar: OE
Encoding: 338 338 130
Width: 2091
GlyphClass: 2
Flags: MW
HStem: -16 268<604 720> 0 268<1062 1868 1352 1843> 600 268<1415 1849 1389 1874> 1165 268<1448 1964 1448 1448> 1180 270<678 873 585 893>
VStem: 84 326<494 795 494 858>
AnchorPoint: "Anchor-1" 1047 1434 basechar 0
AnchorPoint: "Anchor-0" 0 0 basechar 0
LayerCount: 2
Fore
SplineSet
1239 1434 m 2,0,-1
 1989 1434 l 2,1,2
 2042 1434 2042 1434 2042 1352 c 0,3,4
 2042 1166 2042 1166 1964 1165 c 2,5,-1
 1448 1165 l 1,6,-1
 1415 868 l 1,7,-1
 1874 868 l 2,8,9
 1927 868 1927 868 1927 786 c 0,10,11
 1927 600 1927 600 1849 600 c 2,12,-1
 1389 600 l 1,13,-1
 1352 268 l 1,14,-1
 1868 268 l 2,15,16
 1921 268 1921 268 1921 186 c 0,17,18
 1921 0 1921 0 1843 0 c 2,19,-1
 1090 0 l 2,20,21
 1049 0 1049 0 1032.5 14.5 c 128,-1,22
 1016 29 1016 29 1016 66 c 2,23,-1
 1016 74 l 1,24,25
 856 -16 856 -16 651 -16 c 0,26,27
 375 -16 375 -16 229.5 136.5 c 128,-1,28
 84 289 84 289 84 578 c 0,29,30
 84 994 84 994 277.5 1222 c 128,-1,31
 471 1450 471 1450 805 1450 c 0,32,33
 1012 1450 1012 1450 1149 1356 c 1,34,35
 1163 1434 1163 1434 1239 1434 c 2,0,-1
700 252 m 0,36,37
 878 252 878 252 982.5 400.5 c 128,-1,38
 1087 549 1087 549 1087 819 c 0,39,40
 1087 1179 1087 1179 797 1180 c 0,41,42
 617 1180 617 1180 513.5 1031.5 c 128,-1,43
 410 883 410 883 410 610 c 0,44,45
 409 252 409 252 700 252 c 0,36,37
EndSplineSet
Position2: "'cpsp' Capital Spacing lookup 0 subtable" dx=10 dy=0 dh=20 dv=0
EndChar

StartChar: P
Encoding: 80 80 131
Width: 1167
GlyphClass: 2
Flags: MW
HStem: 537 270<463 659 659 666 434 659> 1165 268<502 502 502 698>
VStem: 858 326<929 1076>
LayerCount: 2
Fore
SplineSet
295 1434 m 2,0,-1
 739 1434 l 2,1,2
 961 1434 961 1434 1077 1333 c 0,3,4
 1122 1294 1122 1294 1153 1223.5 c 128,-1,5
 1184 1153 1184 1153 1184 1040.5 c 128,-1,6
 1184 928 1184 928 1142 827.5 c 128,-1,7
 1100 727 1100 727 1042.5 674 c 128,-1,8
 985 621 985 621 907 588 c 0,9,10
 785 537 785 537 666 537 c 2,11,-1
 434 537 l 1,12,-1
 385 61 l 2,13,14
 379 -5 379 -5 256 -4 c 2,15,-1
 186 -4 l 2,16,17
 69 -4 69 -4 70 61 c 1,18,-1
 205 1352 l 2,19,20
 213 1434 213 1434 295 1434 c 2,0,-1
502 1165 m 1,21,-1
 463 807 l 1,22,-1
 659 807 l 2,23,24
 739 807 739 807 798.5 853 c 128,-1,25
 858 899 858 899 858 998.5 c 128,-1,26
 858 1098 858 1098 811 1131.5 c 128,-1,27
 764 1165 764 1165 698 1165 c 2,28,-1
 502 1165 l 1,21,-1
EndSplineSet
Position2: "'cpsp' Capital Spacing lookup 0 subtable" dx=10 dy=0 dh=20 dv=0
EndChar

StartChar: Thorn
Encoding: 222 222 132
Width: 1161
GlyphClass: 2
Flags: MW
HStem: 317 270<440 637 637 643 412 637> 946 268<477 717 506 674> 1397 41G<336 406 406 450>
VStem: 836 326<710 857>
LayerCount: 2
Fore
SplineSet
336 1438 m 2,0,-1
 406 1438 l 2,1,2
 523 1438 523 1438 522 1372 c 1,3,-1
 506 1214 l 1,4,-1
 717 1214 l 2,5,6
 941 1214 941 1214 1055 1113 c 0,7,8
 1100 1073 1100 1073 1130.5 1001.5 c 128,-1,9
 1161 930 1161 930 1161 818.5 c 128,-1,10
 1161 707 1161 707 1117 607.5 c 128,-1,11
 1073 508 1073 508 1012.5 454.5 c 128,-1,12
 952 401 952 401 874 369 c 0,13,14
 752 318 752 318 643 317 c 2,15,-1
 412 317 l 1,16,-1
 385 61 l 2,17,18
 379 -5 379 -5 256 -4 c 2,19,-1
 186 -4 l 2,20,21
 69 -4 69 -4 70 61 c 1,22,-1
 207 1372 l 2,23,24
 213 1438 213 1438 336 1438 c 2,0,-1
477 946 m 1,25,-1
 440 588 l 1,26,-1
 637 588 l 2,27,28
 715 588 715 588 775.5 634 c 128,-1,29
 836 680 836 680 836 779.5 c 128,-1,30
 836 879 836 879 787.5 912.5 c 128,-1,31
 739 946 739 946 674 946 c 2,32,-1
 477 946 l 1,25,-1
EndSplineSet
Position2: "'cpsp' Capital Spacing lookup 0 subtable" dx=10 dy=0 dh=20 dv=0
EndChar

StartChar: Q
Encoding: 81 81 133
Width: 1497
GlyphClass: 2
Flags: MW
HStem: 1180 266<680 894>
VStem: 84 326<586 793 489 804> 1087 324<652 941>
LayerCount: 2
Fore
SplineSet
827 1446 m 0,0,1
 1112 1446 1112 1446 1261.5 1293.5 c 128,-1,2
 1411 1141 1411 1141 1411 850 c 128,-1,3
 1411 559 1411 559 1305.5 356.5 c 128,-1,4
 1200 154 1200 154 1016 63 c 1,5,-1
 1014 55 l 1,6,-1
 1305 -55 l 2,7,8
 1340 -69 1340 -69 1339 -111 c 0,9,10
 1339 -332 1339 -332 1280 -332 c 0,11,12
 1267 -332 1267 -332 905 -180.5 c 128,-1,13
 543 -29 543 -29 393 33 c 0,14,15
 88 160 88 160 84 586 c 0,16,17
 84 934 84 934 254 1179 c 0,18,19
 340 1303 340 1303 487 1374.5 c 128,-1,20
 634 1446 634 1446 827 1446 c 0,0,1
799 1180 m 0,21,22
 619 1180 619 1180 514.5 1030.5 c 128,-1,23
 410 881 410 881 410 608 c 0,24,25
 410 243 410 243 700 244 c 0,26,27
 880 244 880 244 983.5 395.5 c 128,-1,28
 1087 547 1087 547 1087 825 c 0,29,30
 1088 1180 1088 1180 799 1180 c 0,21,22
EndSplineSet
Position2: "'cpsp' Capital Spacing lookup 0 subtable" dx=10 dy=0 dh=20 dv=0
EndChar

StartChar: R
Encoding: 82 82 134
Width: 1249
GlyphClass: 2
Flags: MW
HStem: 561 272<469 520 440 664> 1165 268<504 504 504 684>
VStem: 840 330<1008 1069>
AnchorPoint: "Anchor-1" 680 1434 basechar 0
AnchorPoint: "Anchor-0" 565 0 basechar 0
LayerCount: 2
Fore
SplineSet
297 1434 m 2,0,-1
 696 1434 l 2,1,2
 1169 1434 1169 1434 1169 1100 c 0,3,4
 1169 965 1169 965 1094.5 866.5 c 128,-1,5
 1020 768 1020 768 893 723 c 1,6,-1
 893 715 l 1,7,8
 928 701 928 701 963.5 646.5 c 128,-1,9
 999 592 999 592 1020 526 c 2,10,-1
 1153 76 l 2,11,12
 1159 51 1159 51 1159 37 c 0,13,14
 1153 -4 1153 -4 1032 -4 c 2,15,-1
 948 -4 l 2,16,17
 848 -4 848 -4 834 39 c 2,18,-1
 713 438 l 1,19,20
 688 506 688 506 651 533.5 c 128,-1,21
 614 561 614 561 520 561 c 2,22,-1
 440 561 l 1,23,-1
 387 61 l 2,24,25
 381 -5 381 -5 258 -4 c 2,26,-1
 188 -4 l 2,27,28
 71 -4 71 -4 72 61 c 1,29,-1
 207 1352 l 2,30,31
 215 1434 215 1434 297 1434 c 2,0,-1
504 1165 m 1,32,-1
 469 834 l 1,33,-1
 664 834 l 2,34,35
 732 834 732 834 786 891 c 128,-1,36
 840 948 840 948 840 1020 c 0,37,38
 840 1092 840 1092 799 1128.5 c 128,-1,39
 758 1165 758 1165 684 1165 c 2,40,-1
 504 1165 l 1,32,-1
EndSplineSet
Position2: "'cpsp' Capital Spacing lookup 0 subtable" dx=10 dy=0 dh=20 dv=0
EndChar

StartChar: Racute
Encoding: 340 340 135
Width: 1249
GlyphClass: 2
Flags: MW
HStem: 561 272<469 520 440 664> 1165 268<504 504 504 684> 1540 326<600 940>
VStem: 840 330<1008 1069>
AnchorPoint: "Anchor-1" 754 1796 basechar 0
AnchorPoint: "Anchor-0" 565 0 basechar 0
LayerCount: 2
Fore
SplineSet
659.5 1719 m 128,-1,1
 690 1763 690 1763 724 1814.5 c 128,-1,2
 758 1866 758 1866 889 1866 c 128,-1,3
 1020 1866 1020 1866 1020 1839 c 0,4,5
 1020 1825 1020 1825 1010.5 1813.5 c 128,-1,6
 1001 1802 1001 1802 927.5 1731.5 c 128,-1,7
 854 1661 854 1661 792.5 1600.5 c 128,-1,8
 731 1540 731 1540 623 1540 c 0,9,10
 564 1540 564 1540 563 1567 c 0,11,12
 563 1580 563 1580 580.5 1605 c 128,-1,13
 598 1630 598 1630 613.5 1652.5 c 128,-1,0
 629 1675 629 1675 659.5 1719 c 128,-1,1
297 1434 m 2,14,-1
 696 1434 l 2,15,16
 1169 1434 1169 1434 1169 1100 c 0,17,18
 1169 965 1169 965 1094.5 866.5 c 128,-1,19
 1020 768 1020 768 893 723 c 1,20,-1
 893 715 l 1,21,22
 928 701 928 701 963.5 646.5 c 128,-1,23
 999 592 999 592 1020 526 c 2,24,-1
 1153 76 l 2,25,26
 1159 51 1159 51 1159 37 c 0,27,28
 1153 -4 1153 -4 1032 -4 c 2,29,-1
 948 -4 l 2,30,31
 848 -4 848 -4 834 39 c 2,32,-1
 713 438 l 1,33,34
 688 506 688 506 651 533.5 c 128,-1,35
 614 561 614 561 520 561 c 2,36,-1
 440 561 l 1,37,-1
 387 61 l 2,38,39
 381 -5 381 -5 258 -4 c 2,40,-1
 188 -4 l 2,41,42
 71 -4 71 -4 72 61 c 1,43,-1
 207 1352 l 2,44,45
 215 1434 215 1434 297 1434 c 2,14,-1
504 1165 m 1,46,-1
 469 834 l 1,47,-1
 664 834 l 2,48,49
 732 834 732 834 786 891 c 128,-1,50
 840 948 840 948 840 1020 c 128,-1,51
 840 1092 840 1092 799 1128.5 c 128,-1,52
 758 1165 758 1165 684 1165 c 2,53,-1
 504 1165 l 1,46,-1
EndSplineSet
Position2: "'cpsp' Capital Spacing lookup 0 subtable" dx=10 dy=0 dh=20 dv=0
EndChar

StartChar: Rcaron
Encoding: 344 344 136
Width: 1249
GlyphClass: 2
Flags: MW
HStem: 561 272<469 520 440 664> 1165 268<504 504 504 684> 1534 299<473 672 473 694>
VStem: 840 330<1008 1069>
AnchorPoint: "Anchor-1" 723 1796 basechar 0
AnchorPoint: "Anchor-0" 565 0 basechar 0
LayerCount: 2
Fore
SplineSet
905 1833 m 1,0,-1
 954 1833 l 2,1,2
 993 1833 993 1833 993 1812 c 0,3,4
 993 1798 993 1798 979 1782 c 2,5,-1
 823 1573 l 2,6,7
 794 1534 794 1534 694 1534 c 2,8,-1
 672 1534 l 2,9,10
 574 1534 574 1534 551 1573 c 2,11,-1
 440 1782 l 1,12,13
 434 1798 434 1798 434 1806 c 0,14,15
 434 1833 434 1833 473 1833 c 2,16,-1
 518 1833 l 2,17,18
 616 1833 616 1833 649 1784 c 2,19,-1
 700 1702 l 1,20,-1
 764 1782 l 2,21,22
 801 1829 801 1829 905 1833 c 1,0,-1
297 1434 m 2,23,-1
 696 1434 l 2,24,25
 1169 1434 1169 1434 1169 1100 c 0,26,27
 1169 965 1169 965 1094.5 866.5 c 128,-1,28
 1020 768 1020 768 893 723 c 1,29,-1
 893 715 l 1,30,31
 928 701 928 701 963.5 646.5 c 128,-1,32
 999 592 999 592 1020 526 c 2,33,-1
 1153 76 l 2,34,35
 1159 51 1159 51 1159 37 c 0,36,37
 1153 -4 1153 -4 1032 -4 c 2,38,-1
 948 -4 l 2,39,40
 848 -4 848 -4 834 39 c 2,41,-1
 713 438 l 1,42,43
 688 506 688 506 651 533.5 c 128,-1,44
 614 561 614 561 520 561 c 2,45,-1
 440 561 l 1,46,-1
 387 61 l 2,47,48
 381 -5 381 -5 258 -4 c 2,49,-1
 188 -4 l 2,50,51
 71 -4 71 -4 72 61 c 1,52,-1
 207 1352 l 2,53,54
 215 1434 215 1434 297 1434 c 2,23,-1
504 1165 m 1,55,-1
 469 834 l 1,56,-1
 664 834 l 2,57,58
 732 834 732 834 786 891 c 128,-1,59
 840 948 840 948 840 1020 c 0,60,61
 840 1092 840 1092 799 1128.5 c 128,-1,62
 758 1165 758 1165 684 1165 c 2,63,-1
 504 1165 l 1,55,-1
EndSplineSet
Position2: "'cpsp' Capital Spacing lookup 0 subtable" dx=10 dy=0 dh=20 dv=0
EndChar

StartChar: Rcommaaccent
Encoding: 342 342 137
Width: 1249
GlyphClass: 2
Flags: MW
HStem: -492 387<403 582> 561 272<469 520 440 664> 1165 268<504 504 504 684>
VStem: 410 264<-263 -169 -263 -167> 840 330<1008 1069>
AnchorPoint: "Anchor-1" 680 1434 basechar 0
AnchorPoint: "Anchor-0" 532 -416 basechar 0
LayerCount: 2
Fore
SplineSet
297 1434 m 2,0,-1
 696 1434 l 2,1,2
 1169 1434 1169 1434 1169 1100 c 0,3,4
 1169 965 1169 965 1094.5 866.5 c 128,-1,5
 1020 768 1020 768 893 723 c 1,6,-1
 893 715 l 1,7,8
 928 701 928 701 963.5 646.5 c 128,-1,9
 999 592 999 592 1020 526 c 2,10,-1
 1153 76 l 2,11,12
 1159 51 1159 51 1159 37 c 0,13,14
 1153 -4 1153 -4 1032 -4 c 2,15,-1
 948 -4 l 2,16,17
 848 -4 848 -4 834 39 c 2,18,-1
 713 438 l 1,19,20
 688 506 688 506 651 533.5 c 128,-1,21
 614 561 614 561 520 561 c 2,22,-1
 440 561 l 1,23,-1
 387 61 l 2,24,25
 381 -5 381 -5 258 -4 c 2,26,-1
 188 -4 l 2,27,28
 71 -4 71 -4 72 61 c 1,29,-1
 207 1352 l 2,30,31
 215 1434 215 1434 297 1434 c 2,0,-1
504 1165 m 1,32,-1
 469 834 l 1,33,-1
 664 834 l 2,34,35
 732 834 732 834 786 891 c 128,-1,36
 840 948 840 948 840 1020 c 128,-1,37
 840 1092 840 1092 799 1128.5 c 128,-1,38
 758 1165 758 1165 684 1165 c 2,39,-1
 504 1165 l 1,32,-1
543 -104 m 2,40,-1
 582 -104 l 2,41,42
 674 -104 674 -104 674 -196.5 c 128,-1,43
 674 -289 674 -289 578.5 -390.5 c 128,-1,44
 483 -492 483 -492 422 -492 c 0,45,46
 389 -492 389 -492 360.5 -480.5 c 128,-1,47
 332 -469 332 -469 334 -452.5 c 128,-1,48
 336 -436 336 -436 355 -406 c 0,49,50
 409 -320 409 -320 410 -195 c 0,51,52
 410 -104 410 -104 543 -104 c 2,40,-1
EndSplineSet
Position2: "'cpsp' Capital Spacing lookup 0 subtable" dx=10 dy=0 dh=20 dv=0
EndChar

